<svg xmlns="http://www.w3.org/2000/svg" xmlns:xlink="http://www.w3.org/1999/xlink" xmlns:inkscape="http://www.inkscape.org/namespaces/inkscape" version="1.1" width="200" height="200" viewBox="0 0 200 200">
<g>
<g style="mix-blend-mode:multiply">
<path transform="matrix(.5454546,0,0,.5454546,0,0)" stroke-width="24" stroke-linecap="round" stroke-linejoin="round" fill="none" stroke="#bdffb6" stroke-opacity=".5" d="M13.87928 7.838862 13.87931 366.3201"/>
</g>
<g style="mix-blend-mode:multiply">
<path transform="matrix(.5454546,0,0,.5454546,0,0)" stroke-width="24" stroke-linecap="round" stroke-linejoin="round" fill="none" stroke="#bdffb6" stroke-opacity=".5" d="M72.51904 7.567113 72.51907 376.3845"/>
</g>
<g style="mix-blend-mode:multiply">
<path transform="matrix(.5454546,0,0,.5454546,0,0)" stroke-width="24" stroke-linecap="round" stroke-linejoin="round" fill="none" stroke="#bdffb6" stroke-opacity=".5" d="M131.7991 6.557781 131.7992 378.3562"/>
</g>
<g style="mix-blend-mode:multiply">
<path transform="matrix(.5454546,0,0,.5454546,0,0)" stroke-width="24" stroke-linecap="round" stroke-linejoin="round" fill="none" stroke="#bdffb6" stroke-opacity=".5" d="M189.197 6.169551 189.1971 371.6528"/>
</g>
<g style="mix-blend-mode:multiply">
<path transform="matrix(.5454546,0,0,.5454546,0,0)" stroke-width="24" stroke-linecap="round" stroke-linejoin="round" fill="none" stroke="#bdffb6" stroke-opacity=".5" d="M248.7876 5.664871V371.0917"/>
</g>
<g style="mix-blend-mode:multiply">
<path transform="matrix(.5454546,0,0,.5454546,0,0)" stroke-width="24" stroke-linecap="round" stroke-linejoin="round" fill="none" stroke="#bdffb6" stroke-opacity=".5" d="M308.2423 5.858985V374.973"/>
</g>
<g style="mix-blend-mode:multiply">
<path transform="matrix(.5454546,0,0,.5454546,0,0)" stroke-width="24" stroke-linecap="round" stroke-linejoin="round" fill="none" stroke="#bdffb6" stroke-opacity=".5" d="M365.6984 8.188246V374.4323"/>
</g>
<g style="mix-blend-mode:multiply">
<path transform="matrix(.5454546,0,0,.5454546,0,0)" stroke-width="24" stroke-linecap="round" stroke-linejoin="round" fill="none" stroke="#bdffb6" stroke-opacity=".5" d="M4.293566 42.93317H410.5435"/>
</g>
<g style="mix-blend-mode:multiply">
<path transform="matrix(.5454546,0,0,.5454546,0,0)" stroke-width="24" stroke-linecap="round" stroke-linejoin="round" fill="none" stroke="#bdffb6" stroke-opacity=".5" d="M3.9831 102.4266H420.293"/>
</g>
<g style="mix-blend-mode:multiply">
<path transform="matrix(.5454546,0,0,.5454546,0,0)" stroke-width="24" stroke-linecap="round" stroke-linejoin="round" fill="none" stroke="#bdffb6" stroke-opacity=".5" d="M4.409997 159.843H418.2266"/>
</g>
<g style="mix-blend-mode:multiply">
<path transform="matrix(.5454546,0,0,.5454546,0,0)" stroke-width="24" stroke-linecap="round" stroke-linejoin="round" fill="none" stroke="#bdffb6" stroke-opacity=".5" d="M5.380211 218.987H425.7547"/>
</g>
<g style="mix-blend-mode:multiply">
<path transform="matrix(.5454546,0,0,.5454546,0,0)" stroke-width="24" stroke-linecap="round" stroke-linejoin="round" fill="none" stroke="#bdffb6" stroke-opacity=".5" d="M6.854935 276.7917H430.9192"/>
</g>
<g style="mix-blend-mode:multiply">
<path transform="matrix(.5454546,0,0,.5454546,0,0)" stroke-width="24" stroke-linecap="round" stroke-linejoin="round" fill="none" stroke="#bdffb6" stroke-opacity=".5" d="M4.642848 336.5374H384.2001"/>
</g>
<g style="mix-blend-mode:multiply">
<path transform="matrix(.5454546,0,0,.5454546,0,0)" stroke-width="9.35433" stroke-linecap="round" stroke-linejoin="round" fill="none" stroke="#ffb954" stroke-opacity=".5" d="M44.11116 3.568542 44.11119 379.3217"/>
</g>
<g style="mix-blend-mode:multiply">
<path transform="matrix(.5454546,0,0,.5454546,0,0)" stroke-width="9.35433" stroke-linecap="round" stroke-linejoin="round" fill="none" stroke="#ffb954" stroke-opacity=".5" d="M102.0912 3.374428V371.4982"/>
</g>
<g style="mix-blend-mode:multiply">
<path transform="matrix(.5454546,0,0,.5454546,0,0)" stroke-width="9.35433" stroke-linecap="round" stroke-linejoin="round" fill="none" stroke="#ffb954" stroke-opacity=".5" d="M159.3532 3.141524V370.2053"/>
</g>
<g style="mix-blend-mode:multiply">
<path transform="matrix(.5454546,0,0,.5454546,0,0)" stroke-width="9.35433" stroke-linecap="round" stroke-linejoin="round" fill="none" stroke="#ffb954" stroke-opacity=".5" d="M219.0214 2.248614V379.4865"/>
</g>
<g style="mix-blend-mode:multiply">
<path transform="matrix(.5454546,0,0,.5454546,0,0)" stroke-width="9.35433" stroke-linecap="round" stroke-linejoin="round" fill="none" stroke="#ffb954" stroke-opacity=".5" d="M277.5059 1.938048V378.157"/>
</g>
<g style="mix-blend-mode:multiply">
<path transform="matrix(.5454546,0,0,.5454546,0,0)" stroke-width="9.35433" stroke-linecap="round" stroke-linejoin="round" fill="none" stroke="#ffb954" stroke-opacity=".5" d="M336.1456 2.636843 336.1457 373.8142"/>
</g>
<g style="mix-blend-mode:multiply">
<path transform="matrix(.5454546,0,0,.5454546,0,0)" stroke-width="9.35433" stroke-linecap="round" stroke-linejoin="round" fill="none" stroke="#ffb954" stroke-opacity=".5" d="M2.469559 15.05959H442.3763"/>
</g>
<g style="mix-blend-mode:multiply">
<path transform="matrix(.5454546,0,0,.5454546,0,0)" stroke-width="9.35433" stroke-linecap="round" stroke-linejoin="round" fill="none" stroke="#ffb954" stroke-opacity=".5" d="M2.430752 74.5724H476.7101"/>
</g>
<g style="mix-blend-mode:multiply">
<path transform="matrix(.5454546,0,0,.5454546,0,0)" stroke-width="9.35433" stroke-linecap="round" stroke-linejoin="round" fill="none" stroke="#ffb954" stroke-opacity=".5" d="M1.344118 131.0378H414.9037"/>
</g>
<g style="mix-blend-mode:multiply">
<path transform="matrix(.5454546,0,0,.5454546,0,0)" stroke-width="9.35433" stroke-linecap="round" stroke-linejoin="round" fill="none" stroke="#ffb954" stroke-opacity=".5" d="M3.595011 187.7943H436.4632"/>
</g>
<g style="mix-blend-mode:multiply">
<path transform="matrix(.5454546,0,0,.5454546,0,0)" stroke-width="9.35433" stroke-linecap="round" stroke-linejoin="round" fill="none" stroke="#ffb954" stroke-opacity=".5" d="M2.159094 247.2876H436.1915"/>
</g>
<g style="mix-blend-mode:multiply">
<path transform="matrix(.5454546,0,0,.5454546,0,0)" stroke-width="9.35433" stroke-linecap="round" stroke-linejoin="round" fill="none" stroke="#ffb954" stroke-opacity=".5" d="M3.129308 306.9557H431.4707"/>
</g>
</g>
</svg>
