<svg xmlns="http://www.w3.org/2000/svg" xmlns:xlink="http://www.w3.org/1999/xlink" xmlns:inkscape="http://www.inkscape.org/namespaces/inkscape" version="1.1" width="200" height="200" viewBox="0 0 200 200">
<g>
<path transform="matrix(.5454546,0,0,.5454546,-21.67634,-10.524094)" stroke-width="9.35433" stroke-linecap="round" stroke-linejoin="round" fill="none" stroke="#00cfff" d="M239.0121 131.4789C238.9052 131.4597 238.7593 131.4342 238.5742 131.4025 238.3891 131.3707 237.877 131.3521 237.0378 131.3467 236.1985 131.3413 234.7955 131.3182 232.8285 131.2775 230.8616 131.2367 228.886 131.2023 226.9017 131.1744 224.9175 131.1464 222.7931 131.0692 220.5285 130.9427 218.2639 130.8162 215.8613 130.6643 213.3205 130.4872 210.7798 130.3099 208.2002 130.1465 205.5818 129.9969 202.9635 129.8474 200.3467 129.7206 197.7316 129.6165 195.1165 129.5125 192.4307 129.3908 189.6742 129.2514 186.9177 129.1121 183.8998 128.9451 180.6205 128.7505 177.3411 128.5558 173.8937 128.4231 170.2782 128.3522 166.6627 128.2813 163.1454 128.4123 159.7263 128.7451 156.3072 129.0779 153.0548 129.548 149.9691 130.1556 146.8834 130.7632 143.9106 131.4035 141.0508 132.0765 138.191 132.7495 135.5026 133.5005 132.9856 134.3296 130.4686 135.1586 128.1128 136.1068 125.9183 137.1742 123.7238 138.2415 121.831 139.4248 120.24 140.724 118.6489 142.0232 117.243 143.3895 116.0222 144.8229 114.8015 146.2562 113.7127 147.7547 112.7559 149.3183 111.7991 150.882 110.7607 152.5781 109.6406 154.4068 108.5205 156.2354 107.4558 158.3109 106.4465 160.6332 105.4372 162.9555 104.6463 165.5054 104.0739 168.2831 103.5014 171.0607 103.1251 174.0072 102.9449 177.1226 102.7647 180.2381 102.8675 183.4408 103.2533 186.7309 103.6391 190.0209 104.6125 193.2434 106.1736 196.3983 107.7347 199.5531 109.9083 202.4477 112.6945 205.0819 115.4807 207.7161 118.4771 209.8967 121.6836 211.6237 124.8902 213.3508 128.1243 214.6814 131.3862 215.6156 134.648 216.5498 137.9866 217.2774 141.4022 217.7985 144.8177 218.3195 148.3047 218.809 151.8633 219.2669 155.4218 219.7248 158.9799 220.1355 162.5374 220.4992 166.0949 220.8629 169.7199 221.1932 173.4124 221.4902 177.1048 221.7872 180.7831 221.9808 184.4472 222.071 188.1114 222.1612 191.8286 222.2091 195.599 222.2147 199.3693 222.2203 203.2697 222.2817 207.3001 222.399 211.3305 222.5163 215.3204 222.6289 219.2699 222.7368 223.2194 222.8446 227.0291 222.9413 230.699 223.0268 234.3689 223.1122 237.9234 223.1558 241.3624 223.1576 244.8013 223.1593 248.327 223.1972 251.9395 223.2713 255.5521 223.3453 259.1092 223.3842 262.6109 223.3881 266.1126 223.3919 269.6288 223.2912 273.1596 223.0857 276.6904 222.8803 280.3398 222.6711 284.1079 222.4581 287.876 222.2451 291.6394 221.9975 295.3981 221.7155 299.1568 221.4335 302.8316 221.0863 306.4224 220.6738 310.0133 220.2614 313.4422 219.7525 316.709 219.1472 319.976 218.5419 323.0697 217.8646 325.9904 217.1153 328.911 216.366 331.5797 215.4784 333.9963 214.4524 336.4129 213.4264 338.6193 212.2399 340.6154 210.8928 342.6115 209.5457 344.4398 208.0241 346.1002 206.3279 347.7606 204.6318 349.2962 202.8161 350.707 200.8809 352.1178 198.9457 353.2868 196.8484 354.2141 194.5891 355.1412 192.3297 355.8012 189.9417 356.1939 187.425 356.5867 184.9084 356.6963 182.3153 356.5228 179.6457 356.3492 176.9761 355.9173 174.3153 355.2271 171.6631 354.5369 169.0109 353.5898 166.4455 352.386 163.9668 351.1821 161.4881 349.6826 159.202 347.8874 157.1087 346.0922 155.0153 344.2867 153.1986 342.4708 151.6586 340.655 150.1185 338.7665 148.7625 336.8054 147.5904 334.8443 146.4184 332.7647 145.3081 330.5666 144.2596 328.3685 143.2111 326.2087 142.3015 324.087 141.5309 321.9654 140.7603 319.9334 140.0936 317.9911 139.531 316.0489 138.9684 314.2486 138.4687 312.5904 138.032 310.9322 137.5953 309.2891 137.2164 307.661 136.8953 306.0329 136.5742 304.3892 136.3032 302.7298 136.0823 301.0704 135.8614 299.3742 135.6647 297.6411 135.4921 295.9079 135.3196 294.2255 135.1068 292.5937 134.8538 290.9619 134.6009 289.3418 134.3521 287.7335 134.1076 286.1251 133.8631 284.5544 133.6669 283.0215 133.519 281.4886 133.371 280.0104 133.2423 278.5869 133.1328 277.1634 133.0232 275.7839 132.921 274.4483 132.826 273.1128 132.731 271.9174 132.6323 270.8622 132.5299 269.8069 132.4275 268.7699 132.3389 267.7509 132.2642 266.732 132.1895 265.7117 132.1458 264.6901 132.1333 263.6684 132.1208 262.7277 132.113 261.8679 132.11 261.0081 132.1069 260.1472 132.0949 259.2853 132.0741 258.4233 132.0533 257.5137 132.0258 256.5565 131.9916 255.5993 131.9574 254.7053 131.936 253.8745 131.9272 253.0437 131.9185 252.2221 131.9113 251.4097 131.9057 250.5972 131.9001 249.7816 131.8853 248.9629 131.8611 248.1442 131.837 247.3552 131.8003 246.5959 131.7512 245.8367 131.702 245.0987 131.6546 244.3819 131.6089 243.6651 131.5632 242.9548 131.5385 242.2508 131.5347 241.5469 131.5309 240.8336 131.529 240.1109 131.529 239.3882 131.529 238.5943 131.5356 237.7292 131.549 236.8641 131.5623 235.7597 131.5744 234.416 131.5853 232.387 131.6018 230.4876 131.749 228.7178 132.0271"/>
<path transform="matrix(.5454546,0,0,.5454546,-21.67634,-10.524094)" stroke-width="5.730737" stroke-linecap="round" stroke-linejoin="round" fill="none" stroke="#00cfff" d="M179.762 162.8487C179.7039 162.7828 179.6526 162.4407 179.608 161.8222 179.5634 161.2038 179.341 160.3057 178.9407 159.1281 178.5403 157.9505 177.8635 156.9432 176.9102 156.1061 175.9569 155.269 174.9112 154.8544 173.7731 154.8623 172.6351 154.8701 171.3897 155.6124 170.0369 157.0892 168.684 158.5659 167.6887 160.3459 167.051 162.4293 166.4132 164.5127 166.2956 166.3725 166.6982 168.0086 167.1008 169.6447 167.8485 171.1446 168.9413 172.5083 170.0341 173.872 171.2563 175.264 172.6079 176.6843 173.9595 178.1046 175.0771 179.7144 175.9606 181.5136 176.8441 183.3129 177.4788 185.1256 177.8649 186.9519 178.2509 188.7782 178.1816 190.4351 177.6568 191.9226 177.132 193.4101 176.2338 194.7475 174.9622 195.935 173.6906 197.1225 172.0233 197.9912 169.9604 198.5412 167.8976 199.0911 166.1287 199.1157 164.6539 198.6149 163.1791 198.1142 161.9715 197.1197 161.031 195.6315 160.0905 194.1433 159.5137 192.6339 159.3004 191.1033 159.0872 189.5726 159.1988 188.1383 159.6354 186.8005"/>
<path transform="matrix(.5454546,0,0,.5454546,-21.67634,-10.524094)" stroke-width="5.730737" stroke-linecap="round" stroke-linejoin="round" fill="none" stroke="#00cfff" d="M187.9241 151.9986C187.5114 151.962 187.1341 151.9815 186.7921 152.0572 186.5615 152.1082 186.8758 152.2276 187.7348 152.4152 188.5939 152.6028 190.4031 152.6805 193.1625 152.6481 195.9219 152.6158 198.5147 152.6133 200.9408 152.6408 203.367 152.6683 204.6851 152.7083 204.8953 152.7609 205.1055 152.8135 205.1897 152.8399 205.1481 152.8401L205.1168 152.8402 205.2105 152.8399"/>
<path transform="matrix(.5454546,0,0,.5454546,-21.67634,-10.524094)" stroke-width="5.730737" stroke-linecap="round" stroke-linejoin="round" fill="none" stroke="#00cfff" d="M196.981 154.8636C196.5338 154.6184 196.2361 154.4444 196.0879 154.3414 195.9853 154.2702 195.9348 154.7713 195.9364 155.8448 195.938 156.9182 195.9149 159.129 195.8671 162.4771 195.8193 165.8251 195.8387 169.3723 195.9255 173.1187 196.0122 176.8652 196.0797 179.9037 196.128 182.2345 196.1762 184.5652 196.1503 185.7549 196.0502 185.8036L195.9751 185.8402 196.2004 185.7306"/>
<path transform="matrix(.5454546,0,0,.5454546,-21.67634,-10.524094)" stroke-width="5.730737" stroke-linecap="round" stroke-linejoin="round" fill="none" stroke="#00cfff" d="M208.4229 190.6803C207.9495 191.2396 207.7114 191.4984 207.7084 191.4567 207.7063 191.4271 207.7011 191.3532 207.6928 191.2349 207.6844 191.1167 207.8173 190.3213 208.0916 188.8488 208.3659 187.3763 208.8578 185.1315 209.5673 182.1143 210.2768 179.0971 211.0794 175.9643 211.975 172.7158 212.8707 169.4673 213.8173 166.75 214.8148 164.564 215.8123 162.378 216.6318 160.9007 217.2734 160.1322 217.9149 159.3636 218.3805 159.0502 218.6701 159.1919 218.9597 159.3335 219.3167 160.0125 219.7413 161.2287 220.1658 162.4449 220.5657 164.2465 220.9411 166.6336 221.3165 169.0206 221.6844 171.6648 222.0449 174.5662 222.4053 177.4675 222.6968 180.4605 222.9194 183.5451 223.142 186.6297 223.2815 189.3727 223.3381 191.7742 223.3946 194.1756 223.4248 195.6945 223.4288 196.3307L223.4346 197.1705 223.4347 197.1549V197.0898 197.2852"/>
<path transform="matrix(.5454546,0,0,.5454546,-21.67634,-10.524094)" stroke-width="5.730737" stroke-linecap="round" stroke-linejoin="round" fill="none" stroke="#00cfff" d="M211.5574 179.6622C211.0753 179.9068 211.2027 180.1266 211.9398 180.3215 212.6769 180.5165 214.1799 180.6693 216.4488 180.7801 218.7177 180.8908 220.0549 180.9471 220.4603 180.9488 220.8657 180.9506 221.0509 180.8318 221.016 180.5924"/>
<path transform="matrix(.5454546,0,0,.5454546,-21.67634,-10.524094)" stroke-width="5.730737" stroke-linecap="round" stroke-linejoin="round" fill="none" stroke="#00cfff" d="M234.5446 160.1981C234.4291 159.9455 234.3764 159.285 234.3867 158.2165 234.397 157.148 234.5037 156.141 234.7069 155.1955 234.9101 154.25 235.0135 153.8147 235.0172 153.8896 235.0208 153.9645 235.0299 154.1516 235.0445 154.4511 235.0591 154.7506 235.0457 156.0134 235.0042 158.2393 234.9628 160.4653 234.922 163.3574 234.8817 166.9156 234.8415 170.4739 234.7849 173.9128 234.712 177.2325 234.6391 180.5522 234.5345 182.6351 234.398 183.4813 234.2616 184.3275 234.1919 184.7044 234.1889 184.612 234.1847 184.4799 234.1713 184.0643 234.1487 183.3652"/>
<path transform="matrix(.5454546,0,0,.5454546,-21.67634,-10.524094)" stroke-width="5.730737" stroke-linecap="round" stroke-linejoin="round" fill="none" stroke="#00cfff" d="M237.2756 155.5287C236.8126 155.6154 236.6 155.647 236.6378 155.6233 236.6647 155.6065 236.732 155.5645 236.8398 155.4972 236.9474 155.43 237.9871 155.2505 239.9586 154.9589 241.9302 154.6673 243.999 154.7945 246.165 155.3405 248.331 155.8865 249.8722 156.7787 250.7886 158.0169 251.7051 159.2552 252.1549 160.858 252.1381 162.8254 252.1213 164.7927 251.4704 166.6065 250.1854 168.2667 248.9004 169.9269 247.3975 171.2172 245.6766 172.1375 243.9557 173.0579 242.5668 173.6206 241.5097 173.8256 240.4527 174.0307 239.8344 174.178 239.6547 174.2677 239.475 174.3574 239.5647 174.5763 239.9239 174.9244 240.2831 175.2725 241.4039 176.0648 243.2864 177.3013 245.169 178.5378 246.8652 179.9286 248.3752 181.4737 249.8853 183.0189 250.6703 183.907 250.7302 184.138L250.7977 184.3991 250.7903 184.3712"/>
<path transform="matrix(.5454546,0,0,.5454546,-21.67634,-10.524094)" stroke-width="5.730737" stroke-linecap="round" stroke-linejoin="round" fill="none" stroke="#00cfff" d="M263.699 160.3231C263.4681 160.1468 263.2639 160.001 263.0863 159.8859 262.9661 159.808 263.0656 159.7689 263.3849 159.7686 263.7041 159.7684 264.9148 159.7682 267.017 159.7682 269.1192 159.7682 271.1367 159.8283 273.0693 159.9483 275.002 160.0684 276.6595 160.2367 278.0419 160.4534 279.4244 160.6701 280.6168 160.6926 281.6193 160.5211 282.6217 160.3496 283.2928 160.2908 283.6326 160.3447 283.9724 160.3986 284.2059 160.4177 284.3333 160.4022"/>
<path transform="matrix(.5454546,0,0,.5454546,-21.67634,-10.524094)" stroke-width="5.730737" stroke-linecap="round" stroke-linejoin="round" fill="none" stroke="#00cfff" d="M275.1743 161.9224C274.9286 161.6975 274.7713 161.5796 274.7021 161.5687 274.6538 161.5611 274.6691 161.9665 274.7483 162.7851 274.8275 163.6037 274.8441 164.9071 274.7982 166.6955 274.7523 168.4838 274.6873 170.4557 274.6033 172.6111 274.5192 174.7665 274.4765 176.7508 274.4752 178.564 274.4738 180.3772 274.4731 182.1817 274.4731 183.9777 274.4731 185.7736 274.4731 187.3751 274.4731 188.782 274.4731 190.189 274.4731 191.0341 274.4731 191.3175 274.4731 191.6009 274.4731 191.764 274.4731 191.8069 274.4731 191.8672 274.5005 191.8957 274.5554 191.8923"/>
<g style="mix-blend-mode:multiply">
<path transform="matrix(.5454546,0,0,.5454546,-21.67634,-10.524094)" stroke-width="40.01575" stroke-linecap="round" stroke-linejoin="round" fill="none" stroke="#b7f2ff" stroke-opacity=".5" d="M190.5142 175.9038C190.0108 174.8926 189.6382 174.1759 189.3964 173.7538 189.2298 173.4629 189.0968 173.1977 188.9975 172.9582 188.8982 172.7186 188.7383 172.4891 188.518 172.2697 188.2977 172.0504 187.9698 171.8696 187.5345 171.7274 187.0992 171.5851 186.593 171.5069 186.0159 171.4927 185.4389 171.4785 184.8209 171.6248 184.162 171.9315 183.5032 172.2383 182.9379 172.6776 182.4662 173.2495 181.9946 173.8214 181.6901 174.4893 181.5527 175.2531 181.4154 176.0168 181.43 176.7601 181.5966 177.483 181.7632 178.2058 182.1479 178.7386 182.7507 179.0815 183.3535 179.4244 184.0382 179.5829 184.8049 179.5571 185.5715 179.5313 186.3238 179.3028 187.0617 178.8718 187.7997 178.4407 188.4798 177.7451 189.1022 176.7849 189.7245 175.8248 190.1532 174.778 190.3883 173.6447 190.6234 172.5113 190.6512 171.4745 190.4718 170.5343 190.2924 169.5942 189.8857 168.8027 189.2516 168.1599 188.6174 167.5172 187.7727 167.0246 186.7174 166.6822 185.6621 166.3398 184.4692 166.189 183.1388 166.23 181.8084 166.2709 180.5469 166.5903 179.3544 167.1883 178.1618 167.7862 177.1489 168.5059 176.3158 169.3475 175.4827 170.189 174.8366 171.0879 174.3775 172.044 173.9185 173.0001 173.6886 173.8905 173.6877 174.7153 173.6869 175.54 173.9608 176.1252 174.5092 176.4708 175.0577 176.8164 175.7877 176.9463 176.6992 176.8606 177.6107 176.7749 178.608 176.3894 179.691 175.7043 180.7741 175.0192 181.8657 174.0185 182.9659 172.7022 184.0662 171.3859 185.0207 169.8727 185.8296 168.1625 186.6385 166.4523 187.0946 164.8915 187.198 163.4802 187.3015 162.0689 186.9977 160.8943 186.2866 159.9564 185.5756 159.0185 184.5457 158.2358 183.1972 157.6083 181.8486 156.9808 180.254 156.5793 178.4134 156.4038 176.5727 156.2283 174.7451 156.3497 172.9303 156.7682 171.1156 157.1866 169.3398 157.9053 167.6028 158.9244 165.8659 159.9434 164.2455 161.1391 162.7417 162.5113 161.238 163.8836 160.0239 165.2885 159.0995 166.7262 158.1752 168.1638 157.6931 169.4657 157.6532 170.6318 157.6134 171.7978 158.0612 172.8188 158.9965 173.6946 159.9318 174.5704 161.1977 175.2851 162.7941 175.8388 164.3905 176.3924 166.2605 176.742 168.4039 176.8875 170.5474 177.0331 172.8497 176.7636 175.3109 176.0791 177.7721 175.3946 180.02 174.4243 182.0545 173.1682 184.0891 171.912 185.8393 170.5446 187.3052 169.066 188.7711 167.5873 189.8591 166.1464 190.5693 164.7432 191.2795 163.34 191.6663 162.0759 191.7298 160.9509 191.7933 159.8259 191.4976 158.6959 190.8427 157.5611 190.1878 156.4263 189.1437 155.3625 187.7106 154.3695 186.2775 153.3765 184.6063 152.6838 182.6971 152.2914 180.7879 151.8989 178.6895 151.762 176.4021 151.8806 174.1146 151.9992 171.8007 152.2824 169.4604 152.7303 167.1201 153.1781 165.0214 153.6048 163.1642 154.0104 161.307 154.416 159.6018 154.8496 158.0484 155.3111 156.4951 155.7726 155.1786 156.282 154.099 156.8393 153.0194 157.3966 152.2678 158.0188 151.8442 158.706 151.4206 159.3931 151.3192 160.1469 151.5398 160.9673 151.7605 161.7877 152.3703 162.6787 153.3692 163.6402 154.3682 164.6017 155.5751 165.4613 156.99 166.2189 158.405 166.9766 159.976 167.5887 161.703 168.0554 163.4301 168.522 165.1877 168.7824 166.9761 168.8366 168.7644 168.8908 170.428 168.6951 171.967 168.2495 173.5059 167.8039 175.0061 167.2356 176.4675 166.5446 177.9289 165.8535 179.2813 165.1127 180.5245 164.322 181.7678 163.5312 182.8235 162.7618 183.6918 162.0138 184.5601 161.2657 185.2405 160.5047 185.7331 159.7308 186.2257 158.9569 186.5079 158.2118 186.5797 157.4955 186.6515 156.7792 186.4843 156.0958 186.0782 155.4454 185.6721 154.7949 185.0693 154.1628 184.2697 153.549 183.4701 152.9353 182.5795 152.3609 181.5978 151.826 180.6161 151.291 179.599 150.8051 178.5465 150.3683 177.494 149.9314 176.3928 149.5521 175.2431 149.2303 174.0933 148.9084 172.9838 148.6563 171.9145 148.4738 170.8452 148.2912 169.3319 148.0753 167.3748 147.826 165.4176 147.5766 163.9963 147.416 163.1109 147.344 162.2256 147.272 161.3929 147.2212 160.6131 147.1914 159.8332 147.1617 159.0624 147.1603 158.3006 147.1874 157.5388 147.2145 156.508 147.3874 155.2084 147.7061 153.9087 148.0248 152.5927 148.3391 151.2601 148.649 149.9276 148.9588 148.9762 149.1893 148.4059 149.3404 147.8357 149.4916 147.2553 149.6348 146.6648 149.7702 146.0742 149.9056 145.4714 150.0364 144.8563 150.1627 144.2411 150.289 143.6323 150.4298 143.0297 150.5853 142.4272 150.7408 141.8253 150.9352 141.224 151.1688 140.6227 151.4023 140.0552 151.6585 139.5217 151.9375 138.9881 152.2164 138.2464 152.6317 137.2965 153.1833 136.3466 153.7349 135.6036 154.1597 135.0676 154.4579 134.5316 154.7561 134.0076 155.0592 133.4956 155.3671 132.9837 155.675 132.5067 155.9985 132.0647 156.3375 131.6228 156.6765 131.1994 157.0321 130.7945 157.4042 130.3896 157.7764 129.9978 158.1314 129.6192 158.4693 129.2405 158.8072 128.8444 159.1697 128.4308 159.5568 128.0172 159.9438 127.3838 160.4996 126.5305 161.2239 125.6772 161.9483 125.0803 162.4812 124.7399 162.8226 124.3994 163.1641 124.0957 163.5135 123.8287 163.8708 123.5617 164.2282 123.3247 164.5638 123.1177 164.8777 122.9106 165.1915 122.7141 165.5183 122.5281 165.8578 122.342 166.1974 122.1533 166.5721 121.9619 166.9819 121.7704 167.3917 121.5068 168.0521 121.1708 168.9632 120.8349 169.8742 120.5794 170.6017 120.4042 171.1458 120.229 171.6898 120.0762 172.1995 119.946 172.6748 119.8158 173.1502 119.7028 173.6484 119.6071 174.1695 119.5114 174.6906 119.4325 175.2816 119.3703 175.9426 119.3082 176.6036 119.2627 177.2716 119.2339 177.9465 119.2052 178.6215 119.1892 179.5824 119.1861 180.8293 119.1829 182.0762 119.2039 182.9503 119.2489 183.4516 119.294 183.9529 119.3789 184.4692 119.5036 185.0004 119.6283 185.5316 119.7946 186.0681 120.0025 186.6098 120.2103 187.1515 120.4749 187.6674 120.7963 188.1576 121.1177 188.6477 121.5011 189.1278 121.9465 189.5978 122.3919 190.0677 122.8699 190.5292 123.3803 190.9821 123.8908 191.435 124.4345 191.8833 125.0116 192.327 125.5886 192.7707 126.2479 193.2101 126.9894 193.6454 127.7309 194.0806 128.5107 194.4967 129.3288 194.8935 130.1469 195.2903 130.9388 195.6401 131.7044 195.9429 132.47 196.2456 133.3232 196.5249 134.2639 196.7807 135.2047 197.0365 136.1805 197.2824 137.1913 197.5184 138.2021 197.7545 139.1564 197.9821 140.054 198.2011 140.9516 198.4202 141.9187 198.6383 142.9553 198.8557 143.9919 199.073 145.0467 199.2527 146.1197 199.3947 147.1927 199.5367 148.23 199.6449 149.2315 199.7192 150.2331 199.7936 151.3249 199.8946 152.5072 200.0223 153.6894 200.15 154.8694 200.2992 156.0472 200.4698 157.2249 200.6404 158.4325 200.7869 159.67 200.9092 160.9074 201.0315 162.1554 201.1363 163.4138 201.2237 164.6722 201.3111 165.9805 201.378 167.3387 201.4243 168.697 201.4706 170.0113 201.5111 171.2818 201.5458 172.5523 201.5805 173.8448 201.6071 175.1591 201.6256 176.4735 201.6441 177.7937 201.6694 179.12 201.7013 180.4462 201.7332 181.7129 201.7846 182.9201 201.8554 184.1273 201.9262 185.3849 201.9915 186.6929 202.0512 188.0009 202.1109 189.314 202.1663 190.6321 202.2174 191.9502 202.2685 193.9257 202.3678 196.5587 202.5155 199.1918 202.6632 201.1891 202.7709 202.5506 202.8385 203.9121 202.9061 205.1606 202.9696 206.2962 203.029 207.4318 203.0884 208.5899 203.1587 209.7705 203.2398 210.9511 203.3209 212.0739 203.4294 213.1387 203.5653 214.2036 203.7012 216.1886 203.9297 219.0936 204.251 221.9986 204.5722 223.8954 204.7905 224.7839 204.9059 225.6724 205.0212 226.5932 205.1222 227.5462 205.209 228.4992 205.2957 229.4292 205.3509 230.336 205.3746 231.2429 205.3983 232.1737 205.4113 233.1286 205.4137 234.0835 205.416 235.0783 205.3685 236.1131 205.271 237.1479 205.1735 238.1604 205.0635 239.1506 204.941 240.1407 204.8185 241.1362 204.7023 242.137 204.5923 243.1377 204.4824 244.1428 204.3843 245.1521 204.2981 246.1614 204.212 247.1336 204.142 248.0687 204.0883 249.0037 204.0346 249.9388 203.9975 250.8739 203.9771 251.809 203.9567 253.1385 203.9217 254.8622 203.8721 256.5859 203.8225 258.3138 203.7963 260.0459 203.7935 261.7779 203.7908 263.0593 203.812 263.89 203.8571 264.7207 203.9021 265.5722 203.942 266.4442 203.9765 267.3163 204.0111 268.1943 204.0339 269.078 204.0449 269.9617 204.0558 270.8235 204.0581 271.6633 204.0517 272.5032 204.0453 273.3445 204.0004 274.1875 203.9171 275.0304 203.8337 275.9261 203.7466 276.8746 203.6555 277.823 203.5645 278.7693 203.4506 279.7133 203.3137 280.6572 203.1768 281.586 203.0226 282.4995 202.851 283.4129 202.6795 284.3174 202.5175 285.2128 202.365 286.1082 202.2126 286.95 202.0836 287.7384 201.9782 288.5268 201.8727 289.2648 201.7884 289.9523 201.7253 290.6398 201.6621 291.3599 201.6086 292.1124 201.5647 292.865 201.5208 293.8966 201.4727 295.2072 201.4205 296.5179 201.3683 297.4552 201.326 298.019 201.2934 298.5829 201.2608 299.1748 201.2203 299.7948 201.1719 300.4148 201.1236 301.2995 201.0298 302.4491 200.8907 303.5986 200.7516 304.4461 200.6332 304.9914 200.5356 305.5367 200.438 306.3541 200.2188 307.4436 199.8781 308.5331 199.5373 309.6356 199.1589 310.7511 198.7429 311.8666 198.3268 312.6993 197.9996 313.2491 197.7615 313.799 197.5233 314.3305 197.2795 314.8439 197.0302 315.3573 196.7809 316.4969 196.2679 318.2627 195.4913 320.0285 194.7148 321.266 194.1507 321.9752 193.7991 322.6844 193.4476 323.3848 193.1046 324.0765 192.7704 324.7681 192.4361 325.2589 192.1855 325.5486 192.0184 325.8384 191.8514 326.2442 191.5809 326.7661 191.207 327.2879 190.833 327.7836 190.4901 328.2532 190.1782 328.7228 189.8663 329.176 189.5317 329.6128 189.1745 330.0496 188.8174 330.4847 188.4243 330.9181 187.9952 331.3516 187.5662 331.6618 187.2353 331.8488 187.0025 332.0358 186.7696 332.3369 186.3187 332.7519 185.6497 333.167 184.9808 333.4338 184.5298 333.5524 184.2967 333.6709 184.0637 333.77 183.8378 333.8495 183.6191 333.9289 183.4004 333.9892 183.094 334.0303 182.7001 334.0713 182.3062 334.0887 181.8811 334.0823 181.4246 334.076 180.9682 334.0574 180.6193 334.0266 180.378 333.9958 180.1367 333.9122 179.7818 333.7758 179.3133 333.6394 178.8448 333.4687 178.3496 333.2637 177.8277 333.0587 177.3059 332.8903 176.9111 332.7587 176.6432 332.627 176.3754 332.2607 175.8006 331.6597 174.9189 331.0588 174.0372 330.5496 173.2683 330.1321 172.6121 329.7147 171.9559 329.3941 171.472 329.1703 171.1606 328.9465 170.8492 328.7032 170.5463 328.4404 170.2521 328.1776 169.9579 327.9015 169.6795 327.6122 169.4171 327.3229 169.1546 326.8749 168.7767 326.2682 168.2833 325.6616 167.7899 325.0328 167.2524 324.382 166.671 323.7312 166.0895 323.2396 165.6717 322.9071 165.4177 322.5747 165.1637 322.2453 164.9337 321.919 164.7279 321.5927 164.5221 321.2554 164.3375 320.9072 164.1741 320.5589 164.0107 320.1795 163.8494 319.769 163.6903 319.3584 163.5311 318.6741 163.2575 317.7159 162.8694 316.7577 162.4813 315.9942 162.2021 315.4253 162.0319 314.8565 161.8616 314.2881 161.7116 313.7202 161.5818 313.1523 161.452 312.5807 161.343 312.0055 161.2549 311.4302 161.1667 310.5124 161.0231 309.252 160.824 307.9917 160.6249 306.7845 160.4131 305.6304 160.1886 304.4763 159.9641 303.3119 159.7237 302.1372 159.4673 300.9624 159.211 300.0339 159.0048 299.3517 158.8488 298.6695 158.6927 297.9862 158.5279 297.3018 158.3544 296.6174 158.181 295.9141 158.0179 295.1919 157.8652 294.4697 157.7126 293.693 157.5798 292.8618 157.4668 292.0306 157.3538 291.1489 157.2616 290.2167 157.1902 289.2844 157.1188 288.3584 157.0569 287.4385 157.0047 286.5187 156.9524 285.5544 156.8936 284.5457 156.8282 283.5369 156.7629 282.52 156.6819 281.4948 156.5851 280.4697 156.4884 279.47 156.3863 278.4958 156.2789 277.5216 156.1715 276.5049 156.0711 275.4456 155.9777 274.3863 155.8842 273.3529 155.799 272.3452 155.722 271.3375 155.645 269.8025 155.5707 267.7402 155.4991 265.6778 155.4275 264.1229 155.3712 263.0753 155.3303 262.0278 155.2893 260.9707 155.2367 259.9041 155.1725 258.8374 155.1082 257.7661 155.0391 256.6901 154.965 255.6141 154.8909 254.5564 154.8314 253.517 154.7864 252.4776 154.7414 250.3582 154.6682 247.159 154.5667 243.9598 154.4651 241.7978 154.4014 240.6732 154.3755 239.5486 154.3496 238.4378 154.3354 237.3409 154.3328 236.2441 154.3302 235.1186 154.3326 233.9644 154.3398 232.8102 154.3471 231.732 154.3586 230.7299 154.3743 229.7277 154.3901 228.7182 154.3988 227.7012 154.4003 226.6842 154.4019 225.6402 154.3953 224.5692 154.3804 223.4981 154.3655 222.4619 154.3348 221.4606 154.2882 220.4592 154.2416 219.405 154.201 218.2979 154.1662 217.1909 154.1315 216.0898 154.1011 214.9947 154.0751 213.8996 154.0491 212.2642 154.0267 210.0885 154.0081 207.9128 153.9894 206.2915 153.9797 205.2245 153.9789 204.1574 153.978 203.0671 153.9888 201.9535 154.0113 200.8398 154.0337 199.7163 154.125 198.583 154.2851 197.4497 154.4452 196.3041 154.6498 195.1462 154.8988 193.9884 155.1479 192.7992 155.4201 191.5788 155.7156 190.3584 156.0111 189.1349 156.324 187.9082 156.6543 186.6816 156.9845 185.402 157.3578 184.0695 157.7742 182.737 158.1906 181.5044 158.6413 180.3717 159.1264 179.239 159.6116 178.1389 160.1152 177.0713 160.6373 176.0037 161.1593 175.0633 161.6945 174.2502 162.2429 173.4371 162.7912 172.787 163.3258 172.2999 163.8467 171.8128 164.3676 171.4472 164.8796 171.2031 165.3827 170.959 165.8858 170.8135 166.4105 170.7665 166.9569 170.7196 167.5034 170.7652 168.1008 170.9032 168.7493 171.0413 169.3978 171.2901 170.0927 171.6496 170.8341 172.009 171.5754 172.4434 172.3252 172.9528 173.0834 173.4622 173.8416 174.0805 174.5254 174.8077 175.1349 175.535 175.7445 176.3896 176.2977 177.3715 176.7946 178.3535 177.2915 179.4346 177.7377 180.6149 178.1332 181.7952 178.5287 183.0944 178.8815 184.5124 179.1917 185.9304 179.5018 187.3754 179.7964 188.8473 180.0755 190.3191 180.3546 191.8876 180.5983 193.5527 180.8066 195.2178 181.0149 196.9189 181.1558 198.6559 181.2292 200.393 181.3027 202.2088 181.3431 204.1033 181.3504 205.9978 181.3578 207.9791 181.3581 210.0471 181.3513 212.1152 181.3445 215.1991 181.3407 219.2988 181.34 223.3985 181.3392 226.4985 181.3126 228.5989 181.2599 230.6992 181.2073 232.7937 181.1408 234.8824 181.0603 236.971 180.9799 239.0478 180.9281 241.1128 180.9051 243.1777 180.882 245.264 180.8881 247.3716 180.9234 249.4793 180.9586 251.5666 181.0419 253.6334 181.1733 255.7003 181.3046 257.7838 181.4106 259.8842 181.4914 261.9845 181.5722 264.0564 181.6354 266.1 181.6811 268.1436 181.7267 270.1167 181.7519 272.0193 181.7564 273.9219 181.761 275.7687 181.7748 277.5595 181.7978 279.3503 181.8208 281.7852 181.8336 284.864 181.8361 287.9428 181.8386 290.1889 181.8549 291.6023 181.885 293.0157 181.9151 294.3078 181.9354 295.4786 181.946 296.6494 181.9565 297.6691 181.936 298.5376 181.8844 299.4061 181.8328 300.1619 181.7368 300.8048 181.5963 301.4477 181.4559 301.9441 181.3072 302.2939 181.1504 302.6438 180.9935 302.8663 180.8734 302.9614 180.7901 303.0565 180.7067 303.1088 180.6158 303.1183 180.5172 303.1278 180.4187 303.0428 180.2179 302.8635 179.9149 302.6841 179.6119 302.3675 179.2536 301.9137 178.8399 301.4599 178.4262 300.8158 177.9845 299.9814 177.5147 299.147 177.0448 298.1696 176.5271 297.0491 175.9614 295.9287 175.3958 294.6549 174.7953 293.2278 174.1599 291.8008 173.5245 290.1555 172.8519 288.292 172.1419 286.4285 171.4319 284.3891 170.7031 282.1738 169.9556 279.9585 169.2081 277.6843 168.47 275.3513 167.7412 273.0182 167.0125 270.589 166.3298 268.0638 165.6932 265.5386 165.0566 262.9361 164.5222 260.2564 164.0902 257.5767 163.6582 254.878 163.338 252.1603 163.1294 249.4426 162.9208 246.7568 162.7384 244.103 162.5823 241.4491 162.4261 238.8698 162.2425 236.3651 162.0315 233.8604 161.8204 231.5323 161.569 229.3806 161.2773 227.229 160.9856 225.2115 160.7199 223.3281 160.4803 221.4447 160.2406 219.6574 160.0224 217.9662 159.8255 216.275 159.6287 214.7887 159.4114 213.5074 159.1737 212.2262 158.9361 210.9992 158.6813 209.8266 158.4095 208.654 158.1376 207.6183 157.8528 206.7195 157.555 205.8207 157.2572 204.6858 156.7838 203.3147 156.1346 201.9436 155.4855 200.9735 155.0097 200.4043 154.7072 199.8351 154.4047 199.3755 154.1294 199.0255 153.8811 198.6755 153.6329 198.2754 153.3091 197.8251 152.9097 197.3748 152.5103 197.0039 152.1733 196.7123 151.8987 196.4207 151.6241 196.0707 151.3312 195.6623 151.02 195.2538 150.7088 194.9398 150.4618 194.7202 150.2792 194.5006 150.0965 194.2415 149.912 193.943 149.7258 193.6444 149.5396 193.3219 149.3548 192.9754 149.1714 192.6289 148.9881 192.2837 148.8353 191.9398 148.7132 191.5959 148.5911 191.3272 148.5152 191.1337 148.4854 190.9401 148.4556 190.8116 148.5548 190.748 148.7831 190.6845 149.0113 190.6471 149.5512 190.636 150.4029 190.6248 151.2546 190.6793 152.0325 190.7994 152.7366 190.9195 153.4407 191.1021 154.1812 191.347 154.9582 191.592 155.7352 191.8695 156.4294 192.1796 157.0408 192.4896 157.6522 192.7804 158.1125 193.0518 158.4217 193.3233 158.7309 193.5665 158.9573 193.7816 159.101 193.9966 159.2447 194.1899 159.3838 194.3617 159.5185 194.5335 159.6531 194.8096 159.9394 195.19 160.3774 195.7564 161.0297 196.1943 161.7912 196.5039 162.662"/>
</g>
<g style="mix-blend-mode:multiply">
<path transform="matrix(.5454546,0,0,.5454546,-21.67634,-10.524094)" stroke-width="9.35433" stroke-linecap="round" stroke-linejoin="round" fill="none" stroke="#b7f2ff" stroke-opacity=".5" d="M132.2564 213.6616C132.0046 213.6355 131.8673 213.6213 131.8445 213.6189 131.8284 213.6173 131.8356 213.615 131.866 213.6121 131.8963 213.6091 132.034 213.5958 132.279 213.5721 132.5239 213.5484 133.1623 213.5365 134.1941 213.5364 135.2259 213.5363 136.2473 213.5205 137.2583 213.4889 138.2693 213.4574 139.0031 213.4407 139.4597 213.4391 139.9164 213.4374 140.5632 213.4835 141.4002 213.5773 142.2372 213.6711 143.1336 213.7647 144.0896 213.858 145.0455 213.9514 146.0269 214.0437 147.0336 214.1348 148.0403 214.226 149.0939 214.2784 150.1943 214.2921 151.2948 214.3058 152.7317 214.3127 154.505 214.3128 156.2784 214.313 157.449 214.3168 158.0169 214.3243 158.5848 214.3318 159.1301 214.3735 159.6528 214.4495 160.1755 214.5254 160.6809 214.6123 161.169 214.7101 161.6571 214.8078 162.151 214.8954 162.6507 214.9729 163.1503 215.0503 163.6393 215.1154 164.1176 215.1683 164.5959 215.2211 165.0769 215.2652 165.5606 215.3006 166.0443 215.3359 166.5545 215.3592 167.0913 215.3702 167.6281 215.3813 168.1525 215.4024 168.6646 215.4335 169.1767 215.4647 169.938 215.5335 170.9487 215.6399 171.9594 215.7463 173.3217 215.8544 175.0358 215.964 176.7499 216.0737 178.21 216.1898 179.4163 216.3123 180.6225 216.4348 181.5075 216.5407 182.0711 216.63 182.6347 216.7192 183.2077 216.8059 183.7901 216.89 184.3725 216.9741 184.9821 217.0391 185.6189 217.0851 186.2558 217.1311 187.2337 217.1608 188.5526 217.1741 189.8716 217.1875 191.2482 217.1979 192.6823 217.2056 194.1165 217.2132 195.1783 217.2325 195.8676 217.2633 196.557 217.2941 197.6591 217.3075 199.1739 217.3033 200.6888 217.2992 201.8623 217.263 202.6944 217.1946 203.5266 217.1262 204.3788 217.0473 205.251 216.9577 206.1233 216.8682 207.005 216.7814 207.8963 216.6973 208.7876 216.6131 209.6648 216.5481 210.5279 216.5021 211.391 216.4561 212.2152 216.427 213.0003 216.4149 213.7855 216.4028 215.9616 216.3961 219.5287 216.3947 223.0958 216.3934 225.2071 216.4002 225.8625 216.4153 226.5179 216.4303 227.1602 216.4536 227.7893 216.4852 228.4185 216.5167 229.3699 216.5384 230.6437 216.5501 231.9175 216.5619 232.9369 216.5603 233.702 216.5454 234.467 216.5304 235.5356 216.4707 236.9078 216.366 238.2799 216.2614 239.281 216.1915 239.911 216.1564 240.5411 216.1213 241.1882 216.0945 241.8523 216.0759 242.5165 216.0574 243.2049 216.0321 243.9175 216.0002 244.6302 215.9683 245.3378 215.9244 246.0403 215.8686 246.7428 215.8128 247.7473 215.754 249.054 215.6923 250.3606 215.6305 251.3139 215.5983 251.914 215.5957 252.5141 215.5931 253.0583 215.5992 253.5466 215.6139 254.0349 215.6287 254.5064 215.6556 254.961 215.6947 255.4156 215.7338 255.8911 215.7665 256.3875 215.793 256.8838 215.8194 258.1035 215.8341 260.0466 215.8371 261.9897 215.84 263.2764 215.8377 263.9067 215.8302 264.5371 215.8227 265.2031 215.796 265.9049 215.7502 266.6066 215.7043 267.3308 215.6452 268.0772 215.573 268.8237 215.5008 269.8617 215.3896 271.1912 215.2396 272.5208 215.0896 273.5413 214.9695 274.2529 214.8793 274.9645 214.7891 276.0035 214.6481 277.3698 214.4562 278.736 214.2644 279.7041 214.13 280.2739 214.0531 280.8438 213.9762 281.6245 213.902 282.6159 213.8304 283.6074 213.7588 284.3843 213.6874 284.9467 213.6164 285.509 213.5454 286.1001 213.4386 286.7199 213.2962 287.3398 213.1538 287.9812 212.9853 288.6443 212.7906 289.3075 212.596 290.3549 212.2944 291.7864 211.8859 293.218 211.4774 294.2658 211.1578 294.9298 210.9272 295.5939 210.6966 296.2371 210.4646 296.8596 210.231 297.4821 209.9975 298.4926 209.6435 299.8911 209.1691 301.2897 208.6946 302.6508 208.2457 303.9745 207.8222 305.2983 207.3988 306.2955 207.0946 306.9661 206.9097 307.6366 206.7247 308.6968 206.4601 310.1464 206.1158 311.5961 205.7715 312.6526 205.5082 313.3162 205.326 313.9797 205.1439 314.9405 204.865 316.1985 204.4894 317.4565 204.1138 318.3717 203.8266 318.944 203.6277 319.5163 203.4289 320.0677 203.218 320.5984 202.9952 321.129 202.7724 321.8609 202.4281 322.7939 201.9623 323.727 201.4965 324.4427 201.1314 324.9409 200.8668 325.4392 200.6022 326.1107 200.1907 326.9553 199.6324 327.7998 199.0741 328.6239 198.5073 329.4274 197.9319 330.2308 197.3566 331.0484 196.7616 331.88 196.147 332.7116 195.5323 333.2989 195.0815 333.6419 194.7943 333.9849 194.5072 334.29 194.2215 334.5573 193.9372 334.8245 193.6529 335.1933 193.1997 335.6638 192.5776 336.1343 191.9555 336.6271 191.2873 337.142 190.573 337.6569 189.8587 338.0291 189.3257 338.2585 188.9742 338.488 188.6226 338.7156 188.245 338.9415 187.8415 339.1673 187.438 339.4042 187.032 339.6522 186.6233 339.9002 186.2146 340.2863 185.6213 340.8102 184.8435 341.3342 184.0656 341.8483 183.2748 342.3525 182.471 342.8567 181.6672 343.3469 180.8617 343.8231 180.0546 344.2993 179.2475 344.6318 178.662 344.8206 178.2979 345.0094 177.9339 345.2366 177.4124 345.5024 176.7334 345.7681 176.0544 346.1018 175.2642 346.5034 174.3627 346.9049 173.4612 347.1758 172.7591 347.3159 172.2564 347.4561 171.7537 347.5805 171.2589 347.6894 170.7721 347.7982 170.2852 347.9231 169.7999 348.064 169.3163 348.2048 168.8326 348.3146 168.3955 348.3934 168.005 348.4722 167.6146 348.5377 167.1952 348.5898 166.7468 348.6418 166.2985 348.6836 165.9533 348.7151 165.7112 348.7466 165.4692 348.7642 165.3338 348.7679 165.3051 348.7717 165.2763 348.776 165.2721 348.781 165.2926 348.7859 165.313 348.8092 165.4092 348.8509 165.5812 348.8926 165.7532 349.0015 166.0378 349.1779 166.4351 349.3542 166.8324 349.6162 167.473 349.964 168.3569 350.3117 169.2408 350.5995 169.9729 350.8273 170.5533 351.0552 171.1338 351.2043 171.5657 351.2747 171.8491 351.3451 172.1325 351.4026 172.4199 351.4472 172.7113 351.4918 173.0028 351.5207 173.6248 351.534 174.5775 351.5473 175.5301 351.5389 176.1899 351.5089 176.5569 351.4788 176.9238 351.3874 177.498 351.2346 178.2796 351.0817 179.0611 350.9561 179.6447 350.8577 180.0304 350.7593 180.4161 350.6488 180.8124 350.5263 181.2193 350.4037 181.6262 350.2649 182.0416 350.1099 182.4657 349.9548 182.8898 349.7907 183.3147 349.6174 183.7404 349.4441 184.1662 349.0263 185.122 348.3642 186.6077 347.702 188.0935 347.2507 189.0949 347.0102 189.6118 346.7698 190.1288 346.4105 190.8829 345.9324 191.8741 345.4544 192.8653 345.0367 193.7154 344.6795 194.4244 344.3223 195.1334 344.0942 195.6018 343.9954 195.8297 343.8965 196.0575 343.8354 196.2206 343.8122 196.319 343.7889 196.4174 343.7765 196.4701 343.7748 196.4772L343.7743 196.4798 343.7819 196.4545C343.7882 196.4322 343.8357 196.2667 343.9242 195.9579 344.0128 195.6491 344.2593 194.9826 344.6638 193.9583 345.0683 192.9341 345.3902 192.1013 345.6296 191.4599 345.869 190.8185 346.1133 190.1011 346.3627 189.3078 346.6121 188.5146 346.8356 187.7024 347.0334 186.8714 347.2312 186.0404 347.4151 185.215 347.5852 184.3952 347.7552 183.5755 347.9202 182.8465 348.08 182.2083 348.2397 181.57 348.3777 181.0715 348.4939 180.7128 348.61 180.354 348.6714 180.1645 348.678 180.1441L348.6862 180.1204 348.6858 180.1225C348.6843 180.1285 348.6711 180.1845 348.6459 180.2905 348.6208 180.3964 348.4029 180.8036 347.9924 181.5121 347.5818 182.2205 347.1115 183.133 346.5814 184.2496 346.0512 185.3662 345.6294 186.2815 345.3158 186.9955 345.0022 187.7095 344.6869 188.4142 344.37 189.1095 344.0531 189.8048 343.7323 190.4954 343.4075 191.1813 343.0828 191.8672 342.7389 192.5226 342.3757 193.1474 342.0126 193.7723 341.6213 194.3377 341.2017 194.8437 340.7822 195.3497 340.115 196.1003 339.2002 197.0956 338.2854 198.0908 337.61 198.8274 337.174 199.3052 336.7381 199.783 336.2879 200.2563 335.8235 200.7251 335.3591 201.1938 334.8895 201.6357 334.4147 202.0509 333.94 202.4662 333.4572 202.8486 332.9663 203.1983 332.4755 203.548 331.9876 203.8794 331.5027 204.1925 331.0178 204.5056 330.3537 204.9523 329.5106 205.5324 328.6675 206.1126 328.0262 206.5406 327.5869 206.8165 327.1474 207.0924 326.7029 207.3607 326.2532 207.6213 325.8034 207.8819 325.1086 208.216 324.1687 208.6235 323.2287 209.031 322.5318 209.3237 322.0778 209.5017 321.6239 209.6796 321.1864 209.8377 320.7653 209.9757 320.3441 210.1138 319.9021 210.2499 319.4392 210.3839 318.9762 210.518 318.4962 210.6707 317.999 210.8419 317.5019 211.0132 316.988 211.1826 316.4573 211.35 315.9267 211.5175 315.3718 211.6735 314.7928 211.818 314.2137 211.9626 313.3092 212.1454 312.0792 212.3665 310.8493 212.5876 309.8608 212.7788 309.1139 212.94 308.367 213.1013 307.5842 213.2876 306.7656 213.4992 305.947 213.7108 305.1736 213.9173 304.4455 214.1189 303.7174 214.3205 302.975 214.5065 302.2184 214.677 301.4618 214.8475 300.6736 214.9976 299.8541 215.1274 299.0345 215.2572 298.2831 215.37 297.6 215.4656 296.9169 215.5613 296.2744 215.644 295.6726 215.7137 295.0707 215.7834 294.4993 215.8593 293.9582 215.9415 293.417 216.0236 292.9579 216.1026 292.5806 216.1785 292.2034 216.2543 291.9022 216.3079 291.677 216.3391 291.4518 216.3703 291.3322 216.3869 291.3183 216.3888 291.3044 216.3907 291.3112 216.3922 291.3388 216.3931 291.3665 216.3941 291.6036 216.4021 292.0503 216.4173 292.4969 216.4325 293.1475 216.433 294.0018 216.4189 294.8562 216.4048 295.9763 216.3225 297.3623 216.172 298.7483 216.0215 299.9541 215.8854 300.9797 215.7638 302.0054 215.6422 303.0693 215.5076 304.1713 215.3601 305.2733 215.2127 306.3678 215.0526 307.4549 214.88 308.5419 214.7074 309.6433 214.5261 310.759 214.3359 311.8746 214.1458 313.5124 213.8467 315.6723 213.4386 317.8322 213.0306 319.4162 212.7188 320.4243 212.5033 321.4325 212.2877 322.4416 212.0602 323.4516 211.8206 324.4617 211.5811 325.4268 211.3441 326.3469 211.1096 327.2669 210.8752 328.1412 210.6486 328.9696 210.4297 329.798 210.2108 330.5881 209.9927 331.3397 209.7754 332.0913 209.558 332.8091 209.3333 333.4929 209.1011 334.1768 208.8689 334.8121 208.6209 335.399 208.3571 335.9859 208.0934 336.5266 207.8355 337.0211 207.5836 337.5156 207.3318 337.9492 207.088 338.3217 206.8523 338.6943 206.6167 339.042 206.3668 339.3648 206.1027 339.6877 205.8386 340.0005 205.5655 340.3033 205.2835 340.606 205.0015 340.9041 204.7112 341.1974 204.4124 341.4907 204.1135 341.7835 203.7913 342.0758 203.4457 342.3682 203.1001 342.6454 202.7522 342.9076 202.4019 343.1698 202.0517 343.641 201.3588 344.3213 200.3232 345.0016 199.2877 345.4395 198.6133 345.6349 198.3 345.8304 197.9868 346.0854 197.5242 346.4 196.9125 346.7145 196.3007 346.9317 195.8674 347.0513 195.6124 347.171 195.3574 347.4038 194.9158 347.7498 194.2877 348.0957 193.6595 348.2841 193.3044 348.3149 193.2223 348.3457 193.1402 348.3629 193.0943 348.3665 193.0847L348.3675 193.0822 348.3509 193.14C348.3369 193.1866 348.2701 193.4084 348.1505 193.8055 348.0309 194.2027 347.8492 194.6762 347.6053 195.226 347.3614 195.7758 347.1427 196.208 346.9492 196.5226 346.7557 196.8372 346.3808 197.3624 345.8245 198.0983 345.2682 198.8343 344.8475 199.3979 344.5623 199.7894 344.2772 200.1808 343.9547 200.6506 343.595 201.1988 343.2352 201.747 343.0751 201.9712 343.1147 201.8715 343.1543 201.7718 343.2532 201.5225 343.4115 201.1237 343.5698 200.7249 343.7776 200.1361 344.035 199.3572 344.2924 198.5784 344.5738 197.6427 344.8792 196.5502 345.1846 195.4577 345.5042 194.3787 345.8379 193.3132 346.1715 192.2476 346.4181 191.4401 346.5776 190.8906 346.7371 190.341 346.9481 189.5429 347.2106 188.4962 347.4731 187.4496 347.802 185.9556 348.1974 184.0143 348.5927 182.073 348.8217 180.871 348.8843 180.4082 348.9469 179.9455 348.9851 179.4955 348.9988 179.0583 349.0126 178.6212 349.0165 178.2116 349.0103 177.8297 349.0042 177.4477 348.982 177.0872 348.9438 176.7484 348.9056 176.4095 348.8645 175.8618 348.8205 175.1051 348.7765 174.3485 348.7386 173.8239 348.7068 173.5313 348.6749 173.2388 348.6137 172.8668 348.523 172.4151 348.4324 171.9635 348.3763 171.4643 348.3549 170.9174 348.3335 170.3706 348.3349 169.9608 348.3589 169.6881 348.3829 169.4154 348.3954 169.0367 348.3964 168.5521 348.3974 168.0674 348.3408 167.5485 348.2266 166.9955 348.1124 166.4424 347.9798 165.9334 347.8287 165.4684 347.6776 165.0035 347.5561 164.5219 347.4642 164.0235 347.3723 163.5251 347.2391 162.9831 347.0647 162.3975 346.8902 161.8118 346.7562 161.3303 346.6627 160.9527 346.5691 160.5752 346.4435 160.1525 346.2858 159.6847 346.1281 159.2169 346.0306 158.9414 345.9933 158.8582 345.9561 158.775 345.9343 158.7263 345.9279 158.7121 345.9216 158.6979 345.919 158.7126 345.92 158.7564 345.9211 158.8001 345.9248 158.9503 345.9312 159.2068 345.9375 159.4632 345.9972 159.9236 346.1103 160.5879 346.2234 161.2522 346.3063 161.9013 346.359 162.5353 346.4117 163.1693 346.4469 163.8052 346.4647 164.443 346.4825 165.0807 346.4919 165.7005 346.4928 166.3022 346.4937 166.9039 346.4867 167.3742 346.4717 167.7132 346.4567 168.0521 346.4085 168.533 346.3272 169.1559 346.2459 169.7787 346.1522 170.3868 346.0462 170.9801 345.9402 171.5734 345.8134 172.1699 345.6658 172.7697 345.5182 173.3695 345.3953 173.8238 345.2969 174.1327 345.1986 174.4415 345.0065 174.9042 344.7206 175.5208 344.4348 176.1373 344.133 176.7598 343.8152 177.3884 343.4975 178.017 343.2 178.6674 342.9225 179.3397 342.645 180.012 342.2697 180.8338 341.7966 181.8052 341.3234 182.7766 340.8372 183.7741 340.338 184.7978 339.8388 185.8214 339.418 186.6409 339.0756 187.256 338.7332 187.8712 338.4707 188.3142 338.2879 188.5849 338.1051 188.8556 337.9031 189.1135 337.6819 189.3586 337.4608 189.6037 337.2077 189.8587 336.9225 190.1238 336.6374 190.3888 336.3228 190.6661 335.9787 190.9557 335.6346 191.2454 335.0889 191.7139 334.3416 192.3614 333.5944 193.0089 332.8748 193.6159 332.1827 194.1823 331.4907 194.7488 331.0125 195.1655 330.7479 195.4324 330.4834 195.6993 330.142 196.0699 329.7236 196.5442 329.3052 197.0186 328.9478 197.4171 328.6514 197.7398 328.3549 198.0625 328.0026 198.4097 327.5946 198.7812 327.1866 199.1528 326.8322 199.4612 326.5313 199.7065 326.2304 199.9518 325.8884 200.2032 325.5051 200.4608 325.1218 200.7183 324.6894 200.984 324.2077 201.2578 323.726 201.5316 323.0239 201.9523 322.1015 202.5199 321.1791 203.0875 320.489 203.5167 320.0311 203.8075 319.5732 204.0983 319.1185 204.3785 318.6669 204.6481 318.2153 204.9177 317.7904 205.1637 317.392 205.3861 316.9937 205.6085 316.3857 205.9176 315.5678 206.3134 314.75 206.7092 313.9842 207.0636 313.2704 207.3765 312.5566 207.6894 311.8126 207.997 311.0382 208.2993 310.2638 208.6016 309.6771 208.8238 309.2779 208.966 308.8788 209.1081 308.2541 209.3054 307.4039 209.5578 306.5536 209.8103 305.7234 210.0813 304.9131 210.371 304.1028 210.6606 303.2814 210.9437 302.449 211.2202 301.6165 211.4968 300.719 211.7807 299.7563 212.0721 298.7937 212.3636 298.0815 212.5881 297.6198 212.7459 297.1582 212.9037 296.7126 213.0468 296.2832 213.1754 295.8538 213.3039 295.2059 213.4504 294.3396 213.6149 293.4733 213.7793 292.5771 213.9331 291.6509 214.076 290.7247 214.219 289.8572 214.3577 289.0484 214.4922 288.2396 214.6267 287.643 214.7345 287.2585 214.8157 286.8741 214.8969 285.9864 215.0663 284.5954 215.3241 283.2044 215.5818 282.2703 215.7604 281.7929 215.8597 281.3156 215.9591 280.741 216.0676 280.069 216.1852 279.397 216.3029 279.0373 216.3658 278.9901 216.3741 278.9429 216.3823 278.9337 216.3865 278.9624 216.3867 278.9911 216.3868 279.2098 216.3879 279.6186 216.3898 280.0273 216.3917 280.6564 216.3187 281.5058 216.1706 282.3552 216.0225 284.0025 215.7073 286.4478 215.2249 288.893 214.7426 290.6484 214.4055 291.714 214.2137 292.7795 214.0219 293.7901 213.8337 294.7458 213.6491 295.7015 213.4646 297.1761 213.1693 299.1696 212.7634 301.1631 212.3575 303.105 211.9101 304.9953 211.4212 306.8856 210.9323 308.3063 210.5664 309.2573 210.3234 310.2083 210.0805 311.0583 209.8492 311.8071 209.6294 312.556 209.4097 313.2722 209.1648 313.9557 208.8948 314.6393 208.6248 315.3459 208.3334 316.0756 208.0208 316.8052 207.7081 317.4807 207.4121 318.1023 207.1328 318.7238 206.8535 319.3286 206.5871 319.9168 206.3337 320.505 206.0802 321.0765 205.8206 321.6312 205.5547 322.186 205.2888 322.7203 205.026 323.2342 204.7664 323.748 204.5068 324.2749 204.225 324.8147 203.9209 325.3545 203.6168 326.1208 203.1631 327.1135 202.5599 328.1061 201.9567 328.8516 201.4904 329.3497 201.161 329.8478 200.8316 330.351 200.4738 330.8592 200.0875 331.3674 199.7013 332.1153 199.1554 333.103 198.45 334.0907 197.7445 334.793 197.205 335.2098 196.8317 335.6266 196.4583 336.0137 196.0763 336.371 195.6857 336.7283 195.295 337.0976 194.896 337.479 194.4886 337.8604 194.0812 338.2317 193.6768 338.593 193.2752 338.9543 192.8737 339.3032 192.4574 339.64 192.0263 339.9766 191.5953 340.4675 190.922 341.1124 190.0064 341.7574 189.0907 342.2085 188.407 342.4658 187.9552 342.723 187.5034 342.9735 187.0406 343.2171 186.567 343.4608 186.0934 343.6962 185.6149 343.9235 185.1315 344.1507 184.6482 344.4779 183.903 344.9049 182.8959 345.3319 181.8888 345.6276 181.1528 345.7921 180.6879 345.9565 180.2229 346.1349 179.6789 346.3273 179.0557 346.5197 178.4325 346.654 178.0173 346.7303 177.81 346.8065 177.6028 346.8811 177.4347 346.9541 177.306 347.0271 177.1772 347.088 177.2099 347.1368 177.404 347.1856 177.5982 347.2434 178.0818 347.31 178.855 347.3766 179.6282 347.4191 180.2622 347.4374 180.7572 347.4558 181.2521 347.4659 181.8138 347.4678 182.442 347.4696 183.0703 347.4406 183.773 347.3806 184.5499 347.3207 185.3268 347.2314 186.1074 347.1127 186.8917 346.994 187.676 346.8347 188.487 346.635 189.3246 346.4353 190.1622 346.1751 191.0288 345.8546 191.9244 345.534 192.82 345.1285 193.711 344.6381 194.5974 344.1476 195.4837 343.5285 196.426 342.7806 197.4241 342.0327 198.4223 341.1292 199.5013 340.0699 200.661 338.5232 202.3545 336.1123 204.5633 332.8373 207.2874"/>
</g>
</g>
</svg>
