<svg xmlns="http://www.w3.org/2000/svg" xmlns:xlink="http://www.w3.org/1999/xlink" xmlns:inkscape="http://www.inkscape.org/namespaces/inkscape" version="1.1" width="200" height="200" viewBox="0 0 200 200">
<g>
<path transform="matrix(.5454546,0,0,.5454546,0,0)" stroke-width="3.907336" stroke-linecap="round" stroke-linejoin="round" fill="none" stroke="#00cfff" d="M52.04813 81.29166C52.14941 81.13784 51.82157 80.60367 51.06459 79.68916 50.30761 78.77465 48.51961 78.14082 45.70057 77.78767 42.88154 77.43452 40.2512 78.76137 37.80954 81.76822 35.36788 84.77507 34.44118 87.72325 35.02943 90.61276 35.61769 93.50228 37.42194 95.93992 40.4422 97.92567 43.46244 99.91143 46.20185 102.2984 48.66042 105.0867 51.11899 107.875 52.18438 110.9507 51.85658 114.3139 51.52879 117.6771 49.80444 120.467 46.68352 122.6837 43.5626 124.9004 40.26999 124.7027 36.80568 122.0905 31.82167 118.3325 30.39424 113.8426 32.52339 108.6209"/>
<path transform="matrix(.5454546,0,0,.5454546,0,0)" stroke-width="3.907336" stroke-linecap="round" stroke-linejoin="round" fill="none" stroke="#00cfff" d="M76.1995 76.77757C76.00094 76.32894 75.63692 75.45507 75.10744 74.15594 74.57796 72.85682 73.40773 71.76893 71.59676 70.89228 69.78579 70.01563 67.82766 70.682 65.72237 72.8914 63.61708 75.1008 62.32945 79.79964 61.85947 86.98791 61.3895 94.17617 62.0758 100.9704 63.91838 107.3705 65.76097 113.7707 68.00733 116.9797 70.65747 116.9977 74.42407 117.0232 76.84627 113.6404 77.92407 106.8494"/>
<path transform="matrix(.5454546,0,0,.5454546,0,0)" stroke-width="3.907336" stroke-linecap="round" stroke-linejoin="round" fill="none" stroke="#00cfff" d="M88.07259 84.72581C87.90154 84.29253 87.79332 83.98964 87.74793 83.81714 87.71657 83.69793 87.69748 84.7086 87.69069 86.84916 87.68388 88.98972 87.70122 93.37258 87.74269 99.99775 87.78416 106.6229 87.92028 111.5662 88.15106 114.8277 88.38183 118.0892 88.41029 119.2854 88.23645 118.4165"/>
<path transform="matrix(.5454546,0,0,.5454546,0,0)" stroke-width="3.907336" stroke-linecap="round" stroke-linejoin="round" fill="none" stroke="#00cfff" d="M87.96867 101.5679C87.43444 101.6137 87.3441 101.6393 87.69765 101.6445 87.95767 101.6484 88.60771 101.658 89.64778 101.6734 90.68786 101.6888 92.67429 101.5877 95.60708 101.3702 98.53986 101.1527 100.1347 101.0222 100.3916 100.9787 100.6485 100.9352 100.7439 100.9015 100.6778 100.8774 100.5833 100.843 100.2861 100.7347 99.7861 100.5526"/>
<path transform="matrix(.5454546,0,0,.5454546,0,0)" stroke-width="3.907336" stroke-linecap="round" stroke-linejoin="round" fill="none" stroke="#00cfff" d="M103.1075 83.88689C102.9092 83.59556 102.7479 83.43363 102.6236 83.4011 102.5372 83.37848 102.4323 84.98737 102.3091 88.22776 102.1858 91.46815 102.1347 96.17052 102.1558 102.3349 102.177 108.4992 102.2667 113.4726 102.4252 117.2549 102.5836 121.0372 102.6686 123.2013 102.6802 123.7472L102.6782 124.2749 102.6215 123.6621"/>
<path transform="matrix(.5454546,0,0,.5454546,0,0)" stroke-width="3.907336" stroke-linecap="round" stroke-linejoin="round" fill="none" stroke="#00cfff" d="M114.4762 87.88394C114.4872 87.62194 114.465 87.32347 114.4097 86.98853 114.3734 86.76846 114.3024 87.83425 114.1969 90.1859 114.0914 92.53755 113.9947 97.10398 113.9068 103.8852 113.819 110.6664 113.8566 116.1381 114.0197 120.3003 114.1827 124.4626 114.2511 127.0121 114.2247 127.9489 114.1984 128.8857 114.1718 129.1831 114.145 128.8411"/>
<path transform="matrix(.5454546,0,0,.5454546,0,0)" stroke-width="3.907336" stroke-linecap="round" stroke-linejoin="round" fill="none" stroke="#00cfff" d="M114.5916 85.37545C114.1275 85.31231 114.1099 85.24672 114.5388 85.17867 114.8585 85.12796 115.6576 85.00117 116.9363 84.79831 118.2149 84.59546 120.8342 84.85397 124.7942 85.57385 128.7542 86.29374 130.7749 88.09599 130.8561 90.98059 130.9373 93.8652 129.483 96.64524 126.4931 99.32072 123.5032 101.9962 120.9326 103.6395 118.7812 104.2505 116.6298 104.8616 115.6397 105.1123 115.8109 105.0027 115.9821 104.893 117.0416 105.8124 118.9894 107.7608 120.9372 109.7092 123.2806 112.8841 126.0197 117.2855 128.7588 121.6869 130.5164 124.8245 131.2927 126.6983 132.0689 128.572 132.4655 129.5401 132.4825 129.6024L132.4912 129.6292 132.416 129.2327"/>
<path transform="matrix(.5454546,0,0,.5454546,0,0)" stroke-width="3.907336" stroke-linecap="round" stroke-linejoin="round" fill="none" stroke="#00cfff" d="M149.4841 78.33898C148.7182 77.80025 147.5721 77.76783 146.0458 78.24172 144.5195 78.71561 143.3425 79.76267 142.5149 81.38289 141.6874 83.00312 141.0705 85.30135 140.6645 88.27759 140.2585 91.25384 140.1477 94.64526 140.332 98.45187 140.5162 102.2585 141.2451 105.5703 142.5185 108.3874 143.7919 111.2045 145.4923 112.9425 147.6198 113.6013 149.7473 114.2601 151.6571 113.7632 153.349 112.1104 155.041 110.4577 156.4359 108.5598 157.5338 106.4168 158.6317 104.2737 159.3701 102.0322 159.7489 99.69222 160.1278 97.35223 160.2231 94.93531 160.0349 92.44148 159.8468 89.94766 159.2059 87.3587 158.1124 84.67461 157.0189 81.99053 155.659 80.24505 154.0327 79.43819 152.4064 78.63133 151.3536 78.20016 150.8742 78.14468 150.3949 78.0892 150.1766 78.04496 150.2192 78.01195"/>
<path transform="matrix(.5454546,0,0,.5454546,0,0)" stroke-width="3.907336" stroke-linecap="round" stroke-linejoin="round" fill="none" stroke="#00cfff" d="M169.5226 74.24336C169.2911 74.02764 169.1143 73.77578 168.9924 73.48778 168.9107 73.29472 168.9327 73.47643 169.0584 74.0329 169.1842 74.58936 169.2101 76.41856 169.1363 79.52051 169.0624 82.62246 169.0523 86.76172 169.1059 91.9383 169.1595 97.11489 169.3053 101.4462 169.5434 104.9322 169.7814 108.4183 169.969 110.6865 170.1061 111.7369 170.2432 112.7874 170.3145 113.0063 170.32 112.3938"/>
<path transform="matrix(.5454546,0,0,.5454546,0,0)" stroke-width="3.907336" stroke-linecap="round" stroke-linejoin="round" fill="none" stroke="#00cfff" d="M169.453 73.29C169.1247 73.19337 169.0229 73.10672 169.1475 73.03006 169.2372 72.9749 169.677 72.9392 170.467 72.92296 171.2569 72.90671 172.2622 73.0479 173.4827 73.34652 174.7033 73.64513 176.1429 74.18539 177.8016 74.96729 179.4603 75.74919 180.8903 76.79502 182.0914 78.10477 183.2926 79.41453 184.3485 80.75542 185.259 82.12745 186.1695 83.49947 186.99 84.99016 187.7204 86.59952 188.4508 88.20889 188.9668 89.76783 189.2684 91.27634 189.57 92.78485 189.6805 94.36955 189.5999 96.03044 189.5193 97.69134 189.2607 99.27294 188.8241 100.7753 188.3875 102.2776 187.8227 103.6242 187.1295 104.8152 186.4364 106.0062 185.5774 107.099 184.5526 108.0937 183.5277 109.0884 182.3512 110.0541 181.0232 110.991 179.6951 111.9279 178.1771 112.712 176.4692 113.3433 174.7612 113.9745 173.2301 114.5744 171.8759 115.1429"/>
<path transform="matrix(.5454546,0,0,.5454546,0,0)" stroke-width="3.907336" stroke-linecap="round" stroke-linejoin="round" fill="none" stroke="#00cfff" d="M199.2457 86.50215C199.3138 86.14813 199.3512 85.63589 199.358 84.96543L199.3641 84.65691 199.3705 85.01854C199.3745 85.48232 199.3812 86.90049 199.3906 89.27306 199.4 91.64564 199.3884 95.07171 199.3559 99.55126 199.3233 104.0308 199.387 108.1956 199.5469 112.0455 199.7067 115.8955 199.8089 118.0479 199.8534 118.5028L199.8912 119.019 199.8764 118.9655C199.8347 118.7561 199.7037 118.0974 199.4832 116.9895"/>
<path transform="matrix(.5454546,0,0,.5454546,0,0)" stroke-width="3.907336" stroke-linecap="round" stroke-linejoin="round" fill="none" stroke="#00cfff" d="M209.8739 88.3316C209.7265 88.51398 209.6052 88.57342 209.5101 88.50989 209.443 88.46507 209.4467 88.0902 209.5212 87.38527 209.5957 86.68033 209.6388 86.01302 209.6503 85.38334L209.654 84.72054 209.6431 84.84029C209.6268 85.10795 209.5608 86.02676 209.4452 87.5967 209.3296 89.16664 209.232 91.35359 209.1523 94.15755 209.0727 96.9615 209.0032 100.1021 208.9438 103.5794 208.8845 107.0568 208.827 110.5636 208.7713 114.0999 208.7157 117.6362 208.6998 120.1643 208.7237 121.6844 208.7477 123.2044 208.7695 123.9038 208.7891 123.7825 208.8172 123.609 208.9056 123.0632 209.0544 122.145"/>
<path transform="matrix(.5454546,0,0,.5454546,0,0)" stroke-width="3.907336" stroke-linecap="round" stroke-linejoin="round" fill="none" stroke="#00cfff" d="M210.4217 86.1388C210.2696 85.80567 210.2263 85.66371 210.2919 85.71292 210.3389 85.74814 210.4562 85.83619 210.644 85.97707 210.8317 86.11795 211.4209 87.20409 212.4115 89.2355 213.4021 91.26693 214.8871 94.56637 216.8666 99.13383 218.846 103.7013 220.5241 107.5933 221.9007 110.8098 223.2773 114.0262 224.1414 115.9673 224.4928 116.6328L224.9128 117.4226 224.8855 117.3676 224.8183 117.2359 225.0199 117.6311"/>
<path transform="matrix(.5454546,0,0,.5454546,0,0)" stroke-width="3.907336" stroke-linecap="round" stroke-linejoin="round" fill="none" stroke="#00cfff" d="M227.0216 76.38086C227.0659 76.22914 227.1188 76.0516 227.1804 75.84824 227.242 75.64487 227.2375 76.19141 227.1668 77.48785 227.096 78.78431 226.9479 81.49437 226.7222 85.61803 226.4966 89.7417 226.3186 93.98666 226.1883 98.3529 226.058 102.7191 226.0578 106.6234 226.1878 110.0658 226.3178 113.5081 226.4017 115.7831 226.4394 116.8906L226.4806 118.4 226.4779 118.3847C226.4606 118.2253 226.4061 117.7238 226.3145 116.8803"/>
<path transform="matrix(.5454546,0,0,.5454546,0,0)" stroke-width="3.907336" stroke-linecap="round" stroke-linejoin="round" fill="none" stroke="#00cfff" d="M250.1736 87.43518C250.1736 87.28649 250.1329 87.02662 250.0514 86.65559 249.9699 86.28455 249.5296 85.73313 248.7304 85.00131 247.9312 84.2695 246.8171 83.69795 245.3882 83.28665 243.9593 82.87535 242.7652 83.07935 241.8057 83.89867 240.8463 84.71797 239.8417 86.2382 238.7919 88.45936 237.7422 90.68052 236.9903 93.48815 236.5363 96.88223 236.0824 100.2763 235.8425 103.6667 235.8167 107.0533 235.7909 110.4399 236.2547 113.6559 237.208 116.7014 238.1613 119.7468 239.5772 122.0684 241.4556 123.6662 243.3341 125.2639 244.9827 125.8634 246.4014 125.4646 247.8201 125.0658 248.9223 124.0031 249.7078 122.2765 250.4933 120.5499 251.1095 118.7134 251.5564 116.767 252.0034 114.8205 252.3948 113.347 252.7309 112.3464 253.0669 111.3458 253.2618 110.8021 253.3157 110.7153L253.3561 110.6502 253.2349 110.8456"/>
<path transform="matrix(.5454546,0,0,.5454546,0,0)" stroke-width="3.907336" stroke-linecap="round" stroke-linejoin="round" fill="none" stroke="#00cfff" d="M243.1455 103.933C243.1147 103.9425 243.0031 104.028 242.8106 104.1895 242.703 104.2798 242.8231 104.3292 243.171 104.3375 243.5189 104.3459 244.4511 104.35 245.9678 104.3501 247.4845 104.3501 248.995 104.3318 250.4992 104.2951 252.0034 104.2585 252.878 104.2587 253.1228 104.2959 253.3677 104.333 253.46 104.3547 253.3996 104.3609 253.3393 104.3672 253.3051 104.3703 253.297 104.3703 253.2889 104.3703 253.2848 104.3703 253.2848 104.3703 253.2848 104.3703 253.2888 104.3713 253.2969 104.3733 253.305 104.3754 253.3693 104.3852 253.4898 104.4029 253.6103 104.4205 253.7518 104.4296 253.9141 104.4302 254.0765 104.4307 254.2081 104.431 254.3089 104.431 254.4097 104.431 254.4891 104.431 254.5472 104.431 254.6053 104.431 254.6323 104.5195 254.6282 104.6966 254.6241 104.8737 254.5768 105.5063 254.4864 106.5945 254.3959 107.6826 254.3719 108.994 254.4144 110.5286 254.457 112.0632 254.5286 113.4118 254.6294 114.5743 254.7302 115.7368 254.7838 116.7937 254.7903 117.7452 254.7967 118.6967 254.8187 119.2933 254.8563 119.5351 254.8939 119.7768 254.9252 119.8311 254.9504 119.6979"/>
<path transform="matrix(.5454546,0,0,.5454546,0,0)" stroke-width="3.907336" stroke-linecap="round" stroke-linejoin="round" fill="none" stroke="#00cfff" d="M275.4822 72.09995C275.6342 72.05456 275.8158 71.94122 276.027 71.75995 276.1634 71.64287 276.2124 71.57878 276.1738 71.56767 276.1352 71.55656 275.9595 71.54998 275.6467 71.54793 275.3338 71.54587 274.7048 71.53389 273.7596 71.51199 272.8143 71.49008 271.789 71.47762 270.6836 71.4746 269.5782 71.47159 268.5929 71.49559 267.7277 71.54659 266.8625 71.5976 265.9872 71.65496 265.1018 71.71869 264.2165 71.78242 263.4668 71.87089 262.8527 71.98409 262.2387 72.09727 261.8705 72.25461 261.7482 72.45609 261.6259 72.65755 261.5341 73.18059 261.4727 74.02521 261.4113 74.86982 261.3658 76.06287 261.3363 77.60435 261.3068 79.14583 261.3378 80.93706 261.4293 82.97805 261.5209 85.01905 261.6036 86.90166 261.6774 88.62589 261.7512 90.35013 261.8921 92.05246 262.0999 93.73291 262.3078 95.41336 262.4804 97.15748 262.6179 98.96528 262.7554 100.7731 262.8167 102.4603 262.8018 104.027 262.7869 105.5936 262.7509 106.7921 262.6938 107.6223 262.6368 108.4526 262.6378 108.9309 262.6969 109.0573 262.7559 109.1837 263.0958 109.256 263.7164 109.274 264.3371 109.2921 265.4269 109.2377 266.9858 109.1107 268.5448 108.9837 270.1941 108.8771 271.9337 108.7909 273.6733 108.7046 274.9704 108.6469 275.8248 108.6178 276.6792 108.5887 277.2609 108.528 277.57 108.4356 278.0215 108.3007 278.2515 108.0948 278.2602 107.8178"/>
<path transform="matrix(.5454546,0,0,.5454546,0,0)" stroke-width="3.907336" stroke-linecap="round" stroke-linejoin="round" fill="none" stroke="#00cfff" d="M264.2444 89.20631C264.0798 89.15542 263.7042 89.18218 263.1178 89.2866 262.7611 89.3501 262.7918 89.41744 263.2098 89.48862 263.6278 89.55979 265.1543 89.53014 267.7892 89.39964 270.4242 89.26914 272.8368 89.29911 275.0271 89.48955 277.2174 89.67999 278.4553 89.82773 278.741 89.93276 279.13 90.07581 279.294 89.98214 279.2332 89.65174"/>
<path transform="matrix(.5454546,0,0,.5454546,0,0)" stroke-width="3.907336" stroke-linecap="round" stroke-linejoin="round" fill="none" stroke="#00cfff" d="M289.0963 90.7676C289.0027 91.10025 288.9446 91.22928 288.9218 91.15471 288.9056 91.10137 288.865 90.96802 288.7999 90.75467 288.7349 90.54131 288.7009 89.64748 288.698 88.07317 288.6951 86.49886 288.6888 84.69035 288.6793 82.64765 288.6697 80.60495 288.6933 79.48765 288.75 79.29574 288.8067 79.10383 288.8339 79.17765 288.8317 79.51717 288.8294 79.8567 288.8238 80.70552 288.8148 82.06364 288.8058 83.42176 288.7843 86.39892 288.7505 90.99514 288.7166 95.59136 288.7711 100.0681 288.9139 104.4255 289.0568 108.7828 289.1803 112.1311 289.2844 114.4705 289.3885 116.8099 289.4292 118.2212 289.4064 118.7044 289.3835 119.1876 289.3702 119.4082 289.3663 119.3662 289.3608 119.3061 289.3435 119.1171 289.3142 118.7991"/>
<path transform="matrix(.5454546,0,0,.5454546,0,0)" stroke-width="3.907336" stroke-linecap="round" stroke-linejoin="round" fill="none" stroke="#00cfff" d="M289.3329 80.32372C288.882 80.15074 288.6972 80.02313 288.7786 79.94087 288.8364 79.88236 289.4993 79.82433 290.7674 79.76678 292.0355 79.70923 293.7349 79.77779 295.8657 79.97246 297.9964 80.16713 299.7866 80.73303 301.2363 81.67016 302.6859 82.60728 303.771 83.81004 304.4917 85.27843 305.2123 86.74682 305.5722 88.18676 305.5711 89.59825 305.5701 91.00975 305.2572 92.45171 304.6325 93.92416 304.0079 95.3966 303.1605 96.73943 302.0905 97.95266 301.0206 99.16588 299.7944 100.1329 298.412 100.8536 297.0296 101.5743 295.8138 102.1439 294.7647 102.5625 293.7156 102.9811 293.0296 103.3202 292.7067 103.5798 292.3838 103.8393 292.2144 103.9821 292.1984 104.008 292.1825 104.0339 292.1746 104.0469 292.1745 104.0469 292.1745 104.047 292.1745 104.048 292.1745 104.05 292.1745 104.052 292.1775 104.0564 292.1836 104.0631 292.1896 104.0698 292.2512 104.0881 292.3682 104.1179 292.4852 104.1477 292.9077 104.3229 293.6358 104.6434 294.3639 104.964 295.5721 105.6763 297.2603 106.7804 298.9485 107.8844 300.3912 108.9724 301.5883 110.0444 302.7854 111.1164 303.7086 111.9277 304.3581 112.4782 305.0076 113.0288 305.4024 113.3828 305.5424 113.5402L305.7145 113.7334 305.7061 113.7238C305.6619 113.6735 305.5229 113.5155 305.2891 113.2497"/>
<path transform="matrix(.5454546,0,0,.5454546,0,0)" stroke-width="3.907336" stroke-linecap="round" stroke-linejoin="round" fill="none" stroke="#00cfff" d="M314.3202 79.68774C314.1167 79.68774 313.8908 79.68774 313.6425 79.68774 313.3941 79.68774 313.1412 79.7585 312.8838 79.90002 312.6264 80.04155 312.311 80.4028 311.9375 80.98375 311.5641 81.56471 311.336 82.26965 311.2533 83.09856 311.1706 83.92746 311.5084 84.57391 312.2669 85.0379 313.0253 85.50188 313.8767 85.38305 314.8209 84.68141 315.7651 83.97976 316.321 83.18742 316.4887 82.3044 316.6563 81.42137 316.6043 80.81231 316.3328 80.47722 316.0612 80.14213 315.9002 79.97273 315.8499 79.96902 315.7995 79.96532 315.9344 80.14853 316.2546 80.51866 316.5749 80.8888 316.9319 81.49316 317.3257 82.33176 317.7196 83.17035 317.9341 84.14311 317.9692 85.25002 318.0044 86.35693 317.7796 87.22344 317.2947 87.84953 316.8099 88.47563 316.2124 88.89449 315.5024 89.10613"/>
<path transform="matrix(.5454546,0,0,.5454546,0,0)" stroke-width="3.907336" stroke-linecap="round" stroke-linejoin="round" fill="none" stroke="#00cfff" d="M314.7092 81.99037C314.5364 81.99037 314.3427 81.99037 314.1279 81.99037 313.9131 81.99037 313.7698 82.12071 313.6981 82.38139 313.6263 82.64207 313.6755 82.94637 313.8457 83.29427 314.016 83.64216 314.1562 83.54644 314.2665 83.00711 314.3768 82.46778 314.1336 82.29588 313.537 82.49141 312.9405 82.68695 312.6947 82.79263 312.7997 82.80846"/>
<path transform="matrix(.5454546,0,0,.5454546,0,0)" stroke-width="3.907336" stroke-linecap="round" stroke-linejoin="round" fill="none" stroke="#00cfff" d="M340.7957 88.65112C340.8969 88.4973 340.5691 87.96314 339.8121 87.04863 339.0551 86.13412 337.2671 85.50029 334.4481 85.14714 331.6291 84.79399 328.9987 86.12084 326.5571 89.12769 324.1154 92.13453 323.1887 95.08271 323.7769 97.97223 324.3652 100.8617 326.1695 103.2994 329.1897 105.2851 332.21 107.2709 334.9494 109.6579 337.408 112.4462 339.8665 115.2344 340.9319 118.3101 340.6041 121.6733 340.2763 125.0365 338.552 127.8265 335.431 130.0432 332.3101 132.2599 329.0175 132.0622 325.5532 129.45 320.5692 125.692 319.1418 121.2021 321.2709 115.9804"/>
<path transform="matrix(.5454546,0,0,.5454546,0,0)" stroke-width="3.907336" stroke-linecap="round" stroke-linejoin="round" fill="none" stroke="#00cfff" d="M145.8129 167.1016C145.6144 166.653 145.2504 165.7791 144.7209 164.48 144.1914 163.1808 143.0212 162.093 141.2102 161.2163 139.3992 160.3396 137.4411 161.006 135.3358 163.2154 133.2305 165.4248 131.9429 170.1237 131.4729 177.3119 131.0029 184.5002 131.6892 191.2944 133.5318 197.6945 135.3744 204.0947 137.6208 207.3037 140.2709 207.3217 144.0375 207.3472 146.4597 203.9645 147.5375 197.1734"/>
<path transform="matrix(.5454546,0,0,.5454546,0,0)" stroke-width="4.106638" stroke-linecap="round" stroke-linejoin="round" fill="none" stroke="#00cfff" d="M154.0238 187.5024C154.0344 187.8835 154.0555 187.9956 154.0872 187.8386 154.1101 187.7248 154.1676 187.4404 154.2594 186.9852 154.3513 186.5301 154.9492 183.6902 156.053 178.4655 157.1569 173.2407 158.1837 168.6538 159.1335 164.7046 160.0833 160.7555 160.7953 158.3155 161.2696 157.3846 161.7439 156.4536 162.2742 156.5281 162.8606 157.6079 163.4469 158.6877 164.2419 161.5273 165.2457 166.1267 166.2494 170.7261 167.3086 176.3414 168.4233 182.9725 169.5379 189.6037 170.2981 194.5861 170.7039 197.9197 171.1096 201.2533 171.3183 203.1928 171.33 203.7382 171.3416 204.2836 171.3244 204.5761 171.2781 204.6159 171.2132 204.6718 171.1382 204.5592 171.0529 204.2782"/>
<path transform="matrix(.5454546,0,0,.5454546,0,0)" stroke-width="4.106638" stroke-linecap="round" stroke-linejoin="round" fill="none" stroke="#00cfff" d="M148.7809 179.0602C148.944 179.0019 149.2147 178.9432 149.5929 178.8841 149.9712 178.825 150.7253 178.7996 151.8551 178.8081 152.9849 178.8166 154.5259 178.8675 156.478 178.9611 158.4301 179.0546 160.713 179.1139 163.3267 179.1388 165.9405 179.1638 168.4993 179.1287 171.0031 179.0337 173.507 178.9386 175.1912 178.8655 176.0559 178.8144 176.9205 178.7634 177.2994 178.7482 177.1925 178.7689"/>
<path transform="matrix(.5454546,0,0,.5454546,0,0)" stroke-width="4.106638" stroke-linecap="round" stroke-linejoin="round" fill="none" stroke="#00cfff" d="M181.0169 163.5108C180.7557 163.5208 180.4771 163.5338 180.1811 163.5497L180.0057 163.5654 180.4169 163.5777C180.8702 163.5805 183.0716 163.5815 187.0212 163.5808 190.9708 163.5801 194.7758 163.5375 198.4362 163.4528 202.0965 163.3682 204.4736 163.3839 205.5674 163.4999 206.6612 163.6158 207.4939 163.5609 208.0656 163.3349"/>
<path transform="matrix(.5454546,0,0,.5454546,0,0)" stroke-width="4.106638" stroke-linecap="round" stroke-linejoin="round" fill="none" stroke="#00cfff" d="M193.483 165.781C193.4582 165.7881 193.4333 165.7952 193.4084 165.8023"/>
<path transform="matrix(.5454546,0,0,.5454546,0,0)" stroke-width="4.106638" stroke-linecap="round" stroke-linejoin="round" fill="none" stroke="#00cfff" d="M193.483 164.8537C193.3616 164.8537 193.2297 164.8537 193.0873 164.8537 192.9449 164.8537 192.8634 164.9903 192.8428 165.2635 192.8222 165.5367 192.8119 166.671 192.8118 168.6664 192.8118 170.6618 192.8134 173.5767 192.8166 177.4112 192.8198 181.2457 192.8654 185.3621 192.9535 189.7602 193.0416 194.1584 193.1812 198.1755 193.3722 201.8118 193.5633 205.448 193.7416 208.2496 193.9072 210.2165 194.0727 212.1835 194.151 213.2581 194.1421 213.4403L194.1354 213.577 194.1555 213.1669"/>
<path transform="matrix(.5454546,0,0,.5454546,0,0)" stroke-width="4.106638" stroke-linecap="round" stroke-linejoin="round" fill="none" stroke="#00cfff" d="M143.1719 70.20869C143.0765 70.21736 143.0338 70.21471 143.0438 70.20075 143.0535 70.18714 143.0461 70.18598 143.0215 70.1973"/>
<path transform="matrix(.5454546,0,0,.5454546,0,0)" stroke-width="4.106638" stroke-linecap="round" stroke-linejoin="round" fill="none" stroke="#00cfff" d="M155.3986 70.06548C155.368 70.06548 155.3615 70.06548 155.3792 70.06548"/>
<g style="mix-blend-mode:multiply">
<path transform="matrix(.5454546,0,0,.5454546,0,0)" stroke-width="40.01575" stroke-linecap="round" stroke-linejoin="round" fill="none" stroke="#b7f2ff" stroke-opacity=".5" d="M52.66253 95.53677C52.66253 95.35245 52.60879 95.14047 52.5013 94.90085 52.39381 94.66122 52.20033 94.38734 51.92086 94.07921 51.64138 93.77107 51.34947 93.53247 51.04512 93.36341 50.74077 93.19435 50.43902 93.06296 50.13986 92.96925 49.8407 92.87555 49.51877 92.81249 49.17406 92.78008 48.82936 92.74767 48.49006 92.78361 48.15615 92.88789 47.82224 92.99218 47.50423 93.27611 47.20212 93.73967 46.9 94.20324 46.64555 94.76541 46.43874 95.42619 46.23194 96.08697 46.10669 96.72689 46.06297 97.34595 46.01926 97.96501 46.11806 98.56278 46.35938 99.13927 46.6007 99.71575 47.05973 100.2056 47.73648 100.6089 48.41322 101.0122 49.15013 101.2493 49.9472 101.3204 50.74427 101.3914 51.49744 101.2346 52.20673 100.85 52.91602 100.4654 53.49039 99.89294 53.92986 99.13254 54.36932 98.37213 54.6379 97.57757 54.73559 96.74886 54.83328 95.92015 54.74881 95.12259 54.48218 94.35617 54.21555 93.58975 53.7234 92.9455 53.00573 92.4234 52.28807 91.9013 51.42884 91.52198 50.42806 91.28545 49.42728 91.0489 48.3893 90.99561 47.31414 91.12556 46.23898 91.25551 45.22536 91.68411 44.27328 92.41138 43.32121 93.13864 42.51349 93.95721 41.85012 94.8671 41.18676 95.77698 40.69906 96.68831 40.38704 97.60109 40.07501 98.51387 39.99169 99.4652 40.13707 100.4551 40.28246 101.4449 40.70409 102.335 41.40195 103.1252 42.09982 103.9154 42.96351 104.519 43.99302 104.936 45.02253 105.3529 46.14541 105.6053 47.36164 105.6931 48.57788 105.7808 49.76506 105.6256 50.92319 105.2273 52.08131 104.829 53.03308 104.249 53.77847 103.4872 54.52387 102.7254 54.99526 101.8341 55.19264 100.8133 55.39002 99.79242 55.31048 98.76245 54.954 97.72336 54.59753 96.68428 53.95231 95.75181 53.01836 94.92595 52.08441 94.10009 50.92196 93.47691 49.53102 93.05639 48.14007 92.63587 46.81073 92.52747 45.543 92.73119 44.27526 92.93491 43.0943 93.50394 42.00013 94.43826 40.90595 95.37259 39.97784 96.45865 39.21581 97.69645 38.45378 98.93425 37.95788 100.0874 37.72812 101.1558 37.49836 102.2243 37.44494 103.2228 37.56784 104.1515 37.69074 105.0801 38.05777 105.9902 38.66893 106.8819 39.28009 107.7735 40.09225 108.5288 41.10542 109.1479 42.11858 109.767 43.14417 110.1613 44.18218 110.3307 45.22019 110.5002 46.15963 110.4244 47.0005 110.1034 47.84138 109.7824 48.55723 109.2795 49.14805 108.5945 49.73887 107.9096 50.1406 107.1719 50.35324 106.3815 50.56588 105.5911 50.56766 104.8222 50.35859 104.075 50.14952 103.3278 49.65832 102.6825 48.88499 102.1393 48.11165 101.5961 47.26404 101.2243 46.34215 101.0241 45.42025 100.8239 44.47558 100.9096 43.50812 101.2812 42.54066 101.6529 41.63234 102.3066 40.78317 103.2424 39.934 104.1781 39.23662 105.1652 38.69103 106.2034 38.14544 107.2417 37.82617 108.358 37.73322 109.5524 37.64028 110.7469 37.82333 111.9145 38.28238 113.0555 38.74143 114.1964 39.4661 115.0313 40.45638 115.5601 41.44665 116.0889 42.5825 116.3183 43.86391 116.2483 45.14532 116.1783 46.50655 115.8173 47.9476 115.1651 49.38865 114.513 50.83768 113.6819 52.29469 112.6721 53.7517 111.6622 55.05211 110.5307 56.19593 109.2777 57.33975 108.0246 58.2299 106.7748 58.86637 105.5282 59.50284 104.2815 59.91048 103.1044 60.0893 101.9966 60.26812 100.8889 60.28585 99.81879 60.14249 98.78638 59.99914 97.75397 59.68612 96.85205 59.20344 96.08062 58.72076 95.30919 58.15585 94.78506 57.50871 94.50824 56.86157 94.23141 56.21773 94.14827 55.57718 94.25883 54.93663 94.3694 54.3847 94.69902 53.9214 95.2477 53.4581 95.79638 53.10731 96.48601 52.86903 97.31658 52.63076 98.14716 52.55729 99.03791 52.64863 99.98885 52.73997 100.9398 53.1242 101.8967 53.8013 102.8597 54.4784 103.8227 55.58788 104.6902 57.12973 105.4624 58.67158 106.2346 60.44094 106.6861 62.43781 106.8171 64.43467 106.9481 66.37366 106.6937 68.25479 106.054 70.13592 105.4142 71.82699 104.6093 73.328 103.639 74.82902 102.6688 76.09605 101.5975 77.1291 100.4252 78.16216 99.25297 78.86087 98.0898 79.22522 96.93573 79.58957 95.78167 79.74389 94.70915 79.68819 93.71819 79.63249 92.72722 79.3101 91.7905 78.72102 90.90801 78.13194 90.02553 77.37415 89.1907 76.44765 88.40355 75.52114 87.6164 74.53554 86.99146 73.49084 86.52873 72.44614 86.066 71.48766 85.80381 70.61541 85.74217 69.74316 85.68054 68.96782 85.81561 68.28941 86.14738 67.61099 86.47916 67.02672 86.90356 66.53661 87.42059 66.04648 87.93762 65.70781 88.55992 65.5206 89.28749 65.33338 90.01506 65.34942 90.8722 65.56871 91.85892 65.788 92.84564 66.3117 93.96052 67.1398 95.20355 67.96791 96.44659 69.00688 97.58724 70.25671 98.6255 71.50655 99.66375 72.8389 100.3116 74.25375 100.569 75.66861 100.8265 76.94969 100.753 78.09697 100.3486 79.24425 99.9443 80.21307 99.36477 81.00345 98.61006 81.79382 97.85536 82.45119 96.98714 82.97554 96.00539 83.49989 95.02365 83.83436 93.93839 83.97893 92.7496 84.12349 91.56083 83.97651 90.36938 83.53798 89.17526 83.09944 87.98114 82.46667 86.97108 81.63968 86.14508 80.81269 85.31908 79.92021 84.75341 78.96223 84.44807 78.00426 84.14275 76.99368 84.1553 75.93048 84.48575 74.86728 84.8162 73.87175 85.49716 72.94391 86.52865 72.01606 87.56013 71.2447 88.72651 70.62982 90.02779 70.01494 91.32906 69.59231 92.71294 69.36191 94.17944 69.13151 95.64595 69.20825 97.09767 69.59213 98.53461 69.97602 99.97154 70.64015 101.3264 71.58452 102.5991 72.52889 103.8718 73.75081 104.8751 75.25029 105.6091 76.74977 106.3432 78.33075 106.7853 79.99323 106.9355 81.6557 107.0857 83.36087 107.0377 85.10875 106.7916 86.85663 106.5455 88.4821 106.1413 89.98515 105.5791 91.4882 105.0169 92.7602 104.3543 93.80113 103.5915 94.84206 102.8287 95.61036 102.0405 96.10602 101.2269 96.60168 100.4133 96.87045 99.62408 96.91234 98.85918 96.95423 98.09427 96.78148 97.35868 96.3941 96.6524 96.00672 95.94613 95.47119 95.32343 94.78752 94.7843 94.10385 94.24517 93.31323 93.89873 92.41566 93.74498 91.51808 93.59123 90.67124 93.62955 89.87512 93.85994 89.079 94.09033 88.44151 94.56266 87.96265 95.27692 87.4838 95.99118 87.18588 96.87941 87.06889 97.9416 86.9519 99.00379 87.05647 100.1256 87.3826 101.3071 87.70872 102.4885 88.39099 103.7105 89.4294 104.973 90.4678 106.2355 91.81439 107.3485 93.46915 108.3119 95.12391 109.2753 96.92465 109.8628 98.87138 110.0743 100.8181 110.2859 102.7142 110.1526 104.5596 109.6745 106.405 109.1965 108.134 108.5227 109.7466 107.6531 111.3592 106.7835 112.6416 105.7944 113.5937 104.686 114.5457 103.5776 115.269 102.4572 115.7634 101.3248 116.2579 100.1925 116.5183 99.14349 116.5447 98.17775 116.5712 97.21201 116.3093 96.36211 115.7591 95.62807 115.209 94.89403 114.4994 94.22149 113.6306 93.61046 112.7617 92.99943 111.804 92.5712 110.7574 92.32578 109.7107 92.08035 108.6744 92.09513 107.6484 92.37012 106.6224 92.64511 105.7395 93.23413 104.9996 94.13718 104.2598 95.04023 103.6916 96.1859 103.2952 97.57417 102.8987 98.96245 102.7613 100.5286 102.8829 102.2726 103.0045 104.0166 103.5013 105.886 104.3734 107.8806 105.2455 109.8752 106.4046 111.5483 107.8508 112.8998 109.2969 114.2513 110.8448 115.0753 112.4942 115.3717 114.1437 115.6681 115.8993 115.7045 117.7611 115.4807 119.6228 115.2569 121.3915 114.7843 123.0672 114.063 124.7429 113.3417 126.1981 112.4266 127.4329 111.3176 128.6677 110.2087 129.6155 108.9881 130.2764 107.6561 130.9374 106.324 131.37 105.073 131.5743 103.9029 131.7786 102.7329 131.8103 101.7399 131.6695 100.924 131.5287 100.1081 131.2401 99.30986 130.8037 98.52936 130.3674 97.74886 129.8471 97.02004 129.243 96.34293 128.6389 95.66581 128.0149 95.20892 127.371 94.97224 126.727 94.73556 125.9851 94.65147 125.1453 94.71996 124.3054 94.78846 123.4443 95.04118 122.5618 95.47813 121.6793 95.91508 120.86 96.50485 120.1038 97.24745 119.3475 97.99006 118.6898 98.87083 118.1304 99.88977 117.5711 100.9087 117.2021 102.0567 117.0233 103.3336 116.8445 104.6106 116.9919 105.9082 117.4654 107.2263 117.9389 108.5445 118.7176 109.7188 119.8014 110.7492 120.8853 111.7796 122.3068 112.6689 124.0659 113.4171 125.825 114.1652 127.6793 114.6075 129.6288 114.7437 131.5783 114.88 133.4567 114.7053 135.2639 114.2197 137.0712 113.7341 138.6641 113.0178 140.0426 112.0706 141.4211 111.1235 142.5708 110.0419 143.4918 108.8258 144.4128 107.6098 145.1266 106.3688 145.6333 105.1028 146.14 103.8368 146.4647 102.5492 146.6075 101.2398 146.7503 99.93044 146.683 98.59587 146.4055 97.23608 146.1281 95.8763 145.676 94.63688 145.0494 93.51782 144.4228 92.39876 143.7019 91.54519 142.8868 90.95711 142.0718 90.36902 141.2242 90.04173 140.3442 89.97523 139.4642 89.90875 138.5694 90.15251 137.6599 90.70653 136.7504 91.26054 135.7933 92.10287 134.7887 93.23352 133.7841 94.36417 132.8361 95.65037 131.9449 97.09212 131.0536 98.53388 130.3638 100.0834 129.8754 101.7406 129.387 103.3977 129.2144 105.1041 129.3575 106.8596 129.5006 108.6152 130.0016 110.2528 130.8605 111.7724 131.7194 113.292 132.9442 114.5502 134.5349 115.547 136.1256 116.5438 137.9142 117.1458 139.9006 117.353 141.887 117.5602 143.8126 117.3823 145.6773 116.8193 147.542 116.2563 149.2701 115.4129 150.8616 114.289 152.4531 113.1652 153.7354 111.8558 154.7084 110.361 155.6814 108.8661 156.3317 107.4296 156.6594 106.0512 156.987 104.6729 157.1134 103.4002 157.0387 102.2332 156.964 101.0663 156.6158 99.91751 155.9941 98.787 155.3724 97.6565 154.5275 96.61998 153.4596 95.67746 152.3916 94.73494 151.1324 93.95926 149.682 93.35043 148.2316 92.7416 146.693 92.31074 145.0661 92.05785 143.4392 91.80496 141.769 91.75804 140.0554 91.91708 138.3418 92.07611 136.6891 92.57064 135.0974 93.40066 133.5056 94.23067 132.085 95.22096 130.8356 96.37152 129.5862 97.52208 128.5727 98.65411 127.7951 99.76761 127.0176 100.8811 126.4901 102.058 126.2127 103.2984 125.9353 104.5387 126.0553 105.8546 126.5727 107.2458 127.0901 108.6371 127.9313 109.771 129.0963 110.6474 130.2614 111.5239 131.7083 112.0789 133.4371 112.3124 135.166 112.546 137.0574 112.5132 139.1113 112.214 141.1653 111.9148 143.1817 111.3931 145.1607 110.6489 147.1397 109.9047 148.9882 108.9501 150.7063 107.785 152.4244 106.62 153.8608 105.2573 155.0153 103.6969 156.1699 102.1365 157.1005 100.6178 157.8072 99.14075 158.5138 97.66369 158.9946 96.23689 159.2495 94.86034 159.5045 93.48378 159.4451 92.19673 159.0713 90.99919 158.6976 89.80166 158.1618 88.85116 157.4642 88.14771 156.7665 87.44424 155.9528 86.90374 155.0232 86.52618 154.0935 86.14863 153.0332 85.89489 151.8423 85.76497 150.6514 85.63505 149.5204 85.64039 148.4492 85.78101 147.3781 85.92162 146.4703 86.29081 145.726 86.88857 144.9816 87.48634 144.4762 88.39113 144.2098 89.60295 143.9434 90.81478 144.0004 92.24163 144.3807 93.88351 144.761 95.52539 145.4193 97.03133 146.3556 98.40133 147.2919 99.77133 148.3904 100.7591 149.6511 101.3646 150.9118 101.9701 152.1848 102.3261 153.4702 102.4328 154.7556 102.5394 155.9463 102.4214 157.0423 102.0788 158.1382 101.7361 159.1134 101.1214 159.9677 100.2346 160.8221 99.34787 161.5031 98.29181 162.0108 97.06644 162.5185 95.84108 162.8745 94.57959 163.0789 93.28197 163.2832 91.98434 163.3226 90.79063 163.1972 89.70084 163.0717 88.61103 162.7302 87.64299 162.1725 86.79669 161.6148 85.9504 160.8513 85.1086 159.8819 84.27131 158.9124 83.43401 157.8533 82.71621 156.7045 82.1179 155.5557 81.5196 154.4555 81.22509 153.4039 81.23438 152.3524 81.24367 151.2711 81.57135 150.1602 82.21742 149.0492 82.86349 148.1311 83.76797 147.4057 84.93086 146.6804 86.09376 146.2393 87.42841 146.0823 88.93484 145.9253 90.44126 146.1691 92.15303 146.8137 94.07014 147.4583 95.98726 148.4693 97.87498 149.8466 99.73332 151.224 101.5917 152.6649 103.113 154.1693 104.2972 155.6736 105.4815 157.3648 106.3633 159.2428 106.9425 161.1207 107.5218 163.0557 107.8403 165.0478 107.8983 167.0399 107.9562 168.8688 107.7461 170.5345 107.2681 172.2001 106.79 173.7497 106.1277 175.1831 105.2811 176.6165 104.4346 177.8386 103.4928 178.8496 102.4558 179.8605 101.4188 180.5969 100.3761 181.0589 99.32767 181.5209 98.27929 181.8056 97.28027 181.9133 96.3306 182.0209 95.38093 181.8574 94.42467 181.4229 93.46183 180.9883 92.49899 180.3462 91.5278 179.4966 90.54828 178.647 89.56876 177.6307 88.71513 176.4478 87.9874 175.2649 87.25966 174.146 86.88245 173.091 86.85576 172.036 86.82907 171.0834 87.13696 170.2332 87.77943 169.3829 88.42191 168.6734 89.33978 168.1047 90.53304 167.536 91.72629 167.2731 93.21589 167.316 95.00184 167.3589 96.78779 167.824 98.61105 168.7113 100.4716 169.5985 102.3322 170.7007 103.9661 172.0179 105.3734 173.3351 106.7806 174.8388 107.7427 176.5291 108.2598 178.2195 108.7768 179.9284 108.9652 181.6561 108.8249 183.3837 108.6846 185.0748 108.2925 186.7294 107.6487 188.384 107.0049 189.8621 106.1478 191.1639 105.0773 192.4657 104.0068 193.5272 102.8919 194.3483 101.7326 195.1695 100.5734 195.7862 99.41352 196.1985 98.25308 196.6108 97.09264 196.8529 95.97821 196.9248 94.90981 196.9967 93.84141 196.8597 92.91969 196.5137 92.14467 196.1678 91.36964 195.6857 90.76673 195.0676 90.33594 194.4495 89.90514 193.7065 89.6682 192.8385 89.62512 191.9705 89.58204 191.1015 89.78492 190.2316 90.23375 189.3616 90.68258 188.5492 91.29041 187.7942 92.05724 187.0393 92.82407 186.4244 93.77577 185.9497 94.91234 185.4749 96.0489 185.2484 97.33836 185.27 98.7807 185.2916 100.223 185.7258 101.7767 186.5725 103.4416 187.4192 105.1066 188.4723 106.5215 189.7317 107.6864 190.991 108.8514 192.3785 109.5497 193.8942 109.7814 195.4098 110.0131 196.992 109.9792 198.6407 109.6798 200.2895 109.3804 201.8949 108.8586 203.4572 108.1144 205.0194 107.3702 206.3815 106.5039 207.5435 105.5155 208.7056 104.5271 209.7132 103.4766 210.5665 102.364 211.4198 101.2514 212.0158 100.1671 212.3544 99.11114 212.6931 98.0552 212.841 97.07889 212.7981 96.18222 212.7552 95.28555 212.5281 94.53509 212.1169 93.93085 211.7057 93.3266 211.1033 92.86754 210.3098 92.55367 209.5162 92.2398 208.7381 92.08637 207.9754 92.09338 207.2128 92.10039 206.5322 92.32698 205.9339 92.77313 205.3355 93.21929 204.8913 93.9447 204.6011 94.94936 204.3109 95.95402 204.2358 97.16708 204.3757 98.58856 204.5156 100.01 205.0071 101.6674 205.8503 103.5607 206.6935 105.4539 207.8559 107.2172 209.3376 108.8504 210.8193 110.4836 212.3866 111.5201 214.0397 111.9599 215.6927 112.3997 217.5309 112.5533 219.5542 112.4207 221.5775 112.288 223.6463 111.8848 225.7604 111.211 227.8745 110.5372 229.782 109.6175 231.4829 108.4518 233.1838 107.2862 234.6299 105.9385 235.8211 104.4087 237.0124 102.879 237.9017 101.2927 238.4892 99.6497 239.0767 98.00675 239.3883 96.48486 239.424 95.08404 239.4597 93.68321 239.153 92.38666 238.504 91.19438 237.8549 90.0021 237.0488 89.03144 236.0856 88.28242 235.1224 87.53341 234.1204 87.09456 233.0797 86.9659 232.0391 86.83723 231.006 86.95848 229.9806 87.32963 228.9552 87.70078 227.9804 88.22748 227.0564 88.90974 226.1323 89.59201 225.4245 90.39735 224.9328 91.32577 224.4411 92.25419 224.1899 93.43685 224.1791 94.87375 224.1684 96.31064 224.5847 97.99953 225.4282 99.94041 226.2717 101.8813 227.2961 103.6438 228.5014 105.2281 229.7067 106.8123 231.0607 107.9947 232.5632 108.7752 234.0657 109.5557 235.7175 109.9351 237.5185 109.9133 239.3194 109.8915 241.1123 109.5953 242.8971 109.0248 244.6818 108.4543 246.3314 107.7181 247.8459 106.8162 249.3603 105.9143 250.65 104.8039 251.7151 103.4848 252.7802 102.1658 253.5158 100.703 253.9217 99.09648 254.3277 97.48996 254.5049 95.92667 254.4533 94.4066 254.4018 92.88654 254.1085 91.58201 253.5736 90.493 253.0387 89.404 252.326 88.54392 251.4357 87.91276 250.5453 87.2816 249.5527 86.88454 248.4579 86.72157 247.363 86.55861 246.1236 86.69556 244.7396 87.1324 243.3556 87.56924 242.0186 88.28568 240.7285 89.28172 239.4384 90.27776 238.2529 91.32096 237.1718 92.41133 236.0907 93.50169 235.2236 94.62365 234.5704 95.77721 233.9171 96.93077 233.6462 98.28717 233.7574 99.84643 233.8687 101.4057 234.4021 103.208 235.3576 105.2532 236.3131 107.2985 237.4528 109.1838 238.7768 110.909 240.1008 112.6342 241.5354 113.7905 243.0805 114.3777 244.6256 114.965 246.3315 115.2035 248.1982 115.0932 250.0648 114.983 251.9322 114.5576 253.8004 113.8169 255.6685 113.0763 257.314 112.1121 258.7369 110.9244 260.1599 109.7367 261.4262 108.396 262.5359 106.9025 263.6456 105.4089 264.4978 103.8425 265.0924 102.2032 265.6871 100.5638 266.0449 98.93641 266.1658 97.32089 266.2867 95.70538 266.0921 93.99889 265.5821 92.20144 265.0721 90.40398 264.3194 88.7088 263.324 87.11588 262.3287 85.52296 261.3743 84.3934 260.4609 83.72721 259.5475 83.06102 258.6766 82.72149 257.8482 82.70864 257.0198 82.69579 256.2302 82.97673 255.4794 83.55146 254.7286 84.12619 254.0354 84.95304 253.3998 86.03199 252.7643 87.11094 252.3187 88.43784 252.0632 90.01268 251.8077 91.58751 251.8246 93.18714 252.1138 94.81156 252.4031 96.43598 253.1649 98.05904 254.3992 99.68074 255.6336 101.3024 257.2645 102.7819 259.292 104.1192 261.3195 105.4564 263.5403 106.4338 265.9543 107.0514 268.3682 107.669 270.7363 107.9818 273.0583 107.9898 275.3804 107.9978 277.5367 107.7372 279.5271 107.2081 281.5175 106.679 283.1113 105.9578 284.3085 105.0447 285.5057 104.1316 286.333 103.0611 286.7906 101.8331 287.2481 100.6051 287.4268 99.24228 287.3267 97.74471 287.2266 96.24713 286.7838 94.67464 285.9983 93.02722 285.2128 91.3798 284.2587 89.72489 283.136 88.06248 282.0132 86.40009 281.0195 85.09023 280.1548 84.13292 279.2901 83.17561 278.6072 82.64141 278.1062 82.53032 277.6051 82.41923 277.0608 82.52326 276.4732 82.8424 275.8857 83.16154 275.3476 83.72877 274.8588 84.54408 274.3701 85.35938 273.99 86.29934 273.7185 87.36395 273.447 88.42855 273.2784 89.60163 273.2129 90.88317 273.1473 92.16472 273.3455 93.62224 273.8073 95.25574 274.269 96.88923 275.0797 98.5288 276.2391 100.1745 277.3986 101.8201 278.7388 103.1745 280.2598 104.2377 281.7808 105.3008 283.5156 105.9816 285.4643 106.2799 287.413 106.5782 289.3294 106.6194 291.2134 106.4035 293.0974 106.1875 294.7785 105.7039 296.2568 104.9527 297.735 104.2015 298.9473 103.1778 299.8937 101.8815 300.84 100.5852 301.6023 99.1349 302.1807 97.53065 302.759 95.92641 303.0809 94.39509 303.1464 92.93669 303.2119 91.47829 302.9792 90.16543 302.4484 88.99811 301.9175 87.83079 301.2915 86.87004 300.5704 86.11584 299.8494 85.36165 299.0958 84.89308 298.3096 84.71013 297.5235 84.52719 296.6419 84.48417 295.665 84.58109 294.6881 84.67799 293.6863 84.98474 292.6596 85.50134 291.6329 86.01793 290.7227 86.80127 289.929 87.85136 289.1353 88.90146 288.5452 90.17793 288.1588 91.68076 287.7723 93.18358 287.7517 94.87417 288.0969 96.75252 288.4422 98.63087 289.1465 100.5203 290.2098 102.4209 291.2732 104.3214 292.5375 105.9197 294.0028 107.2157 295.4681 108.5117 296.9919 109.4088 298.5742 109.9071 300.1565 110.4054 301.7484 110.641 303.3501 110.614 304.9518 110.5871 306.4584 110.3111 307.8701 109.7861 309.2817 109.2612 310.5649 108.5615 311.7195 107.6873 312.8741 106.813 313.893 105.9174 314.7763 105.0005 315.6596 104.0836 316.4218 103.1799 317.0629 102.2895 317.704 101.399 318.1564 100.5214 318.4202 99.65666 318.6839 98.79191 318.7829 97.91691 318.7171 97.03168 318.6513 96.14646 318.4117 95.32165 317.9982 94.55726 317.5847 93.79287 317.1155 93.20733 316.5904 92.80064 316.0654 92.39394 315.4273 92.08194 314.6761 91.86462 313.9249 91.64731 313.1355 91.58155 312.308 91.66734 311.4804 91.75314 310.6913 92.16514 309.9406 92.90334 309.1898 93.64155 308.5888 94.67735 308.1375 96.01074 307.6862 97.34413 307.4726 98.84553 307.4966 100.5149 307.5205 102.1843 307.9483 103.8936 308.7799 105.6427 309.6115 107.3917 310.5872 108.9374 311.7068 110.2797 312.8265 111.6221 313.9644 112.6253 315.1205 113.2895 316.2767 113.9536 317.4846 114.3189 318.7442 114.3854 320.0038 114.4518 321.1726 114.2387 322.2506 113.7461 323.3286 113.2535 324.3323 112.5717 325.2616 111.7007 326.1909 110.8296 327.0668 109.9704 327.8891 109.1229 328.7114 108.2755 329.3902 107.483 329.9254 106.7454 330.4606 106.0078 330.8318 105.2834 331.0389 104.5722 331.246 103.861 331.2907 103.1818 331.1732 102.5346 331.0558 101.8875 330.7416 101.2935 330.2308 100.7526 329.72 100.2117 329.1128 99.86043 328.4091 99.69882 327.7053 99.53721 326.9574 99.6288 326.1654 99.97362 325.3733 100.3184 324.5461 100.8307 323.6837 101.5103 322.8214 102.1899 321.9709 102.9439 321.1322 103.7722 320.2936 104.6005 319.5367 105.4017 318.8616 106.1757 318.1866 106.9498 317.6771 107.7749 317.3332 108.6511 316.9893 109.5272 316.8731 110.5352 316.9846 111.675 317.096 112.8148 317.4952 113.9947 318.182 115.2147 318.8688 116.4346 319.6842 117.5818 320.6281 118.6561 321.5721 119.7305 322.5788 120.5902 323.6483 121.2352 324.7178 121.8803 325.8473 122.2389 327.0368 122.3111 328.2263 122.3833 329.3374 122.1926 330.37 121.739 331.4026 121.2854 332.2546 120.5904 332.926 119.6542 333.5974 118.7179 334.0934 117.6538 334.4139 116.4619 334.7344 115.27 334.9376 113.9808 335.0234 112.5944 335.1092 111.2079 335.1563 109.9769 335.1649 108.9012 335.1735 107.8256 335.136 107.0305 335.0524 106.5158 334.9688 106.0012 334.7616 105.5531 334.4308 105.1713 334.0999 104.7896 333.5686 104.3109 332.8369 103.7351 332.1051 103.1593 331.2343 102.4701 330.2244 101.6675 329.2145 100.865 328.2483 100.1547 327.3258 99.53687 326.4033 98.91899 325.7117 98.60987 325.2509 98.60953 324.7901 98.60918 324.3908 98.81636 324.053 99.23106 323.7151 99.64577 323.3873 100.1081 323.0694 100.6181 322.7515 101.128 322.4654 101.6812 322.2109 102.2775 321.9565 102.8738 321.7628 103.5281 321.6299 104.2406 321.4969 104.9531 321.4162 105.7059 321.3875 106.4991 321.3589 107.2923 321.4314 108.0473 321.6051 108.764 321.7789 109.4808 322.1316 110.1631 322.6634 110.8108 323.1952 111.4585 323.86 112.1142 324.658 112.7781 325.4559 113.4419 326.3401 114.0067 327.3105 114.4725 328.2809 114.9382 329.2292 115.2213 330.1555 115.3216 331.0817 115.422 331.9367 115.3965 332.7203 115.2452 333.5039 115.094 334.1192 114.7804 334.5661 114.3044 335.013 113.8285 335.2857 113.175 335.3841 112.344 335.4825 111.5131 335.4407 110.5261 335.2586 109.3831 335.0765 108.2401 334.7652 106.9855 334.3247 105.6194 333.8842 104.2532 333.4884 103.0755 333.1372 102.0864 332.7861 101.0972 332.4662 100.4073 332.1777 100.0165 331.8893 99.62576 331.5118 99.35324 331.0453 99.19896 330.5788 99.04468 329.9729 98.92142 329.2275 98.82919 328.4822 98.73696 327.531 98.57102 326.3739 98.33139 325.2168 98.09176 324.0276 97.7142 322.8063 97.1987 321.585 96.6832 320.5984 96.21534 319.8467 95.79514 319.095 95.37492 318.6432 95.17069 318.4913 95.18243 318.2774 95.19896 318.619 95.81704 319.5161 97.03667"/>
</g>
<g style="mix-blend-mode:multiply">
<path transform="matrix(.5454546,0,0,.5454546,0,0)" stroke-width="40.01575" stroke-linecap="round" stroke-linejoin="round" fill="none" stroke="#b7f2ff" stroke-opacity=".5" d="M165.377 179.6437C164.9871 179.8357 164.7808 179.7902 164.7581 179.5071 164.7417 179.3039 164.7462 179.0409 164.7713 178.7178 164.7965 178.3947 164.7286 178.1364 164.5676 177.9429 164.4066 177.7493 164.1031 177.543 163.657 177.324 163.2109 177.1049 162.6547 176.9653 161.9882 176.905 161.3216 176.8447 160.6518 177.0035 159.9786 177.3815 159.3054 177.7595 158.6894 178.2976 158.1307 178.9959 157.572 179.6942 157.1841 180.4431 156.967 181.2426 156.7499 182.042 156.7265 182.7851 156.8967 183.4718 157.067 184.1585 157.4485 184.7742 158.0414 185.3191 158.6342 185.8639 159.302 186.2289 160.0446 186.4139 160.7872 186.599 161.4951 186.5932 162.1682 186.3967 162.8413 186.2002 163.4419 185.7887 163.9698 185.1623 164.4978 184.5359 164.9303 183.7728 165.2672 182.873 165.604 181.9732 165.8392 181.0751 165.9727 180.1787 166.1062 179.2823 166.1221 178.459 166.0202 177.7088 165.9184 176.9587 165.6398 176.3618 165.1843 175.9181 164.7288 175.4744 164.1366 175.1229 163.4077 174.8635 162.6788 174.6041 161.8173 174.4614 160.8231 174.4355 159.8288 174.4095 158.7561 174.6794 157.6048 175.2452 156.4535 175.8109 155.4326 176.5906 154.542 177.5842 153.6514 178.5777 152.8813 179.681 152.2318 180.894 151.5823 182.107 151.1597 183.3271 150.9643 184.5544 150.7688 185.7817 150.8072 186.9329 151.0794 188.0079 151.3516 189.083 151.7969 190.0122 152.4153 190.7956 153.0337 191.579 153.7385 192.0675 154.5298 192.261 155.321 192.4545 156.1593 192.3651 157.0446 191.9928 157.9299 191.6205 158.8083 190.9971 159.68 190.1227 160.5517 189.2483 161.2499 188.2451 161.7747 187.1132 162.2995 185.9812 162.6227 184.9478 162.7443 184.0128 162.8659 183.0778 162.7638 182.2371 162.4382 181.4908 162.1125 180.7445 161.5648 180.0844 160.7952 179.5105 160.0256 178.9367 159.084 178.4751 157.9706 178.1259 156.8571 177.7767 155.6189 177.55 154.2561 177.446 152.8933 177.3419 151.5218 177.4882 150.1417 177.8849 148.7616 178.2815 147.6724 178.9067 146.8741 179.7605 146.0758 180.6143 145.4794 181.6061 145.0847 182.736 144.6901 183.8659 144.5422 185.0135 144.6409 186.1787 144.7397 187.3439 145.1241 188.4839 145.7943 189.5989 146.4644 190.7139 147.3359 191.6804 148.4088 192.4985 149.4816 193.3165 150.6858 193.8241 152.0216 194.0211 153.3573 194.2181 154.6064 194.0423 155.7688 193.4937 156.9312 192.945 157.9813 192.1863 158.919 191.2175 159.8568 190.2486 160.5568 189.1244 161.0191 187.8448 161.4814 186.5651 161.7088 185.3122 161.7013 184.0859 161.6938 182.8597 161.4363 181.782 160.9288 180.853 160.4213 179.9239 159.6547 179.1134 158.6288 178.4214 157.603 177.7295 156.4707 177.153 155.2318 176.6921 153.9928 176.2312 152.6819 176.0123 151.2988 176.0353 149.9158 176.0584 148.6253 176.4013 147.4275 177.0641 146.2296 177.7269 145.2599 178.51 144.5182 179.4135 143.7765 180.3169 143.1958 181.1287 142.7761 181.8488 142.3565 182.5689 142.1832 183.2338 142.2564 183.8435 142.3296 184.4531 142.7691 185.207 143.575 186.1051 144.3808 187.0032 145.4305 187.9733 146.7242 189.0155 148.0179 190.0577 149.4358 190.7922 150.9778 191.219 152.5199 191.6458 153.9554 191.6386 155.2843 191.1974 156.6133 190.7562 157.8202 190.0374 158.9051 189.0409 159.9901 188.0444 160.8133 186.9434 161.3748 185.7377 161.9362 184.5321 162.2335 183.4159 162.2667 182.3891 162.2998 181.3622 162.0569 180.4442 161.5382 179.6349 161.0194 178.8256 160.1774 178.008 159.0122 177.1821 157.8471 176.3562 156.5767 175.5755 155.201 174.8401 153.8253 174.1047 152.3969 173.6081 150.9157 173.3502 149.4345 173.0923 148.117 173.2692 146.963 173.8809 145.8091 174.4926 144.8251 175.2975 144.0111 176.2957 143.197 177.2939 142.4767 178.3382 141.8502 179.4288 141.2236 180.5194 140.8445 181.6299 140.7127 182.7605 140.581 183.891 140.8271 185.085 141.4512 186.3424 142.0753 187.5998 142.9176 188.8866 143.9781 190.2028 145.0387 191.519 146.2016 192.6461 147.467 193.5842 148.7324 194.5222 149.9851 195.0535 151.2249 195.178 152.4647 195.3026 153.5842 195.1099 154.5835 194.6001 155.5827 194.0903 156.4433 193.3913 157.1651 192.5032 157.8869 191.6151 158.4183 190.6427 158.7592 189.5862 159.1001 188.5297 159.23 187.4609 159.149 186.3798 159.0679 185.2988 158.6164 184.2549 157.7944 183.2482 156.9725 182.2415 155.9753 181.3115 154.8028 180.4581 153.6304 179.6048 152.3751 178.9972 151.0371 178.6354 149.6991 178.2736 148.4027 178.305 147.1479 178.7296 145.8932 179.1542 144.7654 179.8909 143.7647 180.9394 142.7639 181.988 141.8104 183.1369 140.9042 184.3861 139.9979 185.6354 139.3575 186.8601 138.9828 188.0602 138.6081 189.2604 138.5171 190.3429 138.71 191.3078 138.9029 192.2726 139.4734 193.2219 140.4218 194.1555 141.37 195.0891 142.5404 195.8369 143.9328 196.3987 145.3252 196.9606 146.7666 197.1621 148.2571 197.0032 149.7477 196.8444 151.27 196.3499 152.8241 195.5199 154.3782 194.6899 155.7857 193.7381 157.0468 192.6643 158.3078 191.5905 159.2739 190.4969 159.9451 189.3834 160.6164 188.2699 161.0278 187.166 161.1793 186.0715 161.3309 184.9771 161.2108 183.972 160.819 183.0561 160.4273 182.1402 159.7703 181.3101 158.8482 180.5657 157.9261 179.8212 156.8891 179.2121 155.7374 178.7383 154.5856 178.2645 153.4608 178.1114 152.3629 178.2791 151.2649 178.4467 150.2964 179.0612 149.4572 180.1225 148.618 181.1838 147.9798 182.4011 147.5428 183.7745 147.1057 185.1479 146.896 186.5292 146.9137 187.9184 146.9314 189.3076 147.3288 190.6477 148.1061 191.9387 148.8833 193.2297 149.925 194.4121 151.2312 195.4858 152.5374 196.5596 153.9775 197.346 155.5515 197.8451 157.1256 198.3442 158.6861 198.4727 160.2332 198.2308 161.7803 197.9889 163.2339 197.4602 164.5941 196.645 165.9542 195.8297 167.1821 194.8245 168.2779 193.6293 169.3736 192.4342 170.2027 191.1662 170.7653 189.8255 171.3279 188.4849 171.6987 187.1791 171.8778 185.9084 172.0569 184.6376 172.0786 183.5048 171.943 182.5098 171.8073 181.5149 171.4563 180.6643 170.89 179.958 170.3236 179.2518 169.5898 178.6867 168.6886 178.2628 167.7874 177.8389 166.8158 177.5942 165.7736 177.5288 164.7314 177.4633 163.7628 177.5848 162.8678 177.8932 161.9727 178.2015 161.181 178.6668 160.4927 179.289 159.8043 179.9112 159.299 180.6682 158.9768 181.5599 158.6546 182.4516 158.6156 183.4912 158.8598 184.6786 159.104 185.8661 159.7373 187.2411 160.7598 188.8037 161.7824 190.3664 163.0434 191.8787 164.5431 193.3406 166.0427 194.8025 167.6122 195.9598 169.2517 196.8126 170.8911 197.6654 172.5453 198.1613 174.2141 198.3004 175.8829 198.4394 177.4188 198.2394 178.8218 197.7003 180.2248 197.1612 181.4149 196.4231 182.3921 195.486 183.3692 194.5488 184.1869 193.3959 184.8451 192.0273 185.5033 190.6586 185.946 189.1455 186.173 187.488 186.4001 185.8304 186.452 184.2352 186.3288 182.7023 186.2057 181.1695 185.8654 179.7197 185.3079 178.3529 184.7505 176.9861 184.1368 176.0117 183.4668 175.4296 182.7968 174.8474 182.1366 174.5848 181.4861 174.6418 180.8356 174.6988 180.1515 175.0412 179.4338 175.669 178.7161 176.2968 177.9913 177.1567 177.2592 178.2486 176.5272 179.3406 175.9096 180.5901 175.4064 181.9973 174.9032 183.4045 174.5804 185.0117 174.438 186.8191 174.2955 188.6264 174.4321 190.4154 174.8479 192.1859 175.2636 193.9565 175.784 195.4602 176.4091 196.6972 177.0341 197.9341 177.7311 198.8026 178.5 199.3026 179.2689 199.8026 180.0987 200.0316 180.9894 199.9894 181.8801 199.9472 182.8192 199.6975 183.8066 199.2401 184.7939 198.7828 185.7171 198.1779 186.5759 197.4256 187.4347 196.6733 188.1643 195.7833 188.7646 194.7558 189.3649 193.7282 189.8448 192.6561 190.2042 191.5395 190.5637 190.423 190.7384 189.3941 190.7283 188.453 190.7181 187.5119 190.4899 186.7369 190.0436 186.1283 189.5972 185.5196 189.0408 185.1003 188.3743 184.8705 187.7078 184.6406 187.0033 184.7062 186.261 185.0673 185.5187 185.4283 184.7995 186.1222 184.1034 187.1491 183.4073 188.176 182.7749 189.3897 182.2062 190.7904 181.6375 192.191 181.271 193.7026 181.1066 195.3249 180.9423 196.9473 180.9863 198.4079 181.2385 199.7068 181.4908 201.0058 181.9098 202.0235 182.4955 202.7602 183.0813 203.4968 183.7412 203.9749 184.4754 204.1945 185.2096 204.4141 185.9283 204.3544 186.6313 204.0154 187.3343 203.6764 187.9858 203.1328 188.5859 202.3846 189.1859 201.6364 189.7271 200.7526 190.2094 199.7331 190.6917 198.7136 191.0798 197.7074 191.3737 196.7146 191.6676 195.7217 191.8523 194.711 191.9278 193.6824 192.0032 192.6538 191.9718 191.6886 191.8335 190.787 191.6951 189.8854 191.5653 189.2667 191.444 188.9307 191.3227 188.5948 191.2137 188.41 191.1171 188.3764 191.0205 188.3428 190.8791 188.5241 190.6929 188.9201 190.5066 189.3161 190.3044 189.8949 190.0861 190.6564 189.8679 191.418 189.6749 192.2823 189.5072 193.2494 189.3395 194.2164 189.2357 195.2514 189.1959 196.3542 189.1561 197.457 189.2417 198.4937 189.4527 199.4642 189.6637 200.4346 190.0178 201.1642 190.5149 201.653 191.012 202.1417 191.654 202.4029 192.4408 202.4364 193.2275 202.4699 194.0135 202.2656 194.7985 201.8235 195.5835 201.3814 196.3186 200.7273 197.0036 199.8613 197.6887 198.9953 198.3111 197.9814 198.871 196.8195 199.4309 195.6577 199.8886 194.4887 200.244 193.3127 200.5994 192.1366 200.8256 190.9598 200.9226 189.7823 201.0196 188.6049 200.8656 187.3736 200.4607 186.0884 200.0558 184.8032 199.4914 183.5626 198.7676 182.3665 198.0438 181.1705 197.304 180.2131 196.5483 179.4944 195.7926 178.7757 195.0046 178.3267 194.1843 178.1473 193.3639 177.9679 192.5749 178.1112 191.8173 178.5771 191.0596 179.043 190.4087 179.7332 189.8646 180.6477 189.3205 181.5622 188.9137 182.5951 188.6443 183.7464 188.3749 184.8977 188.246 186.0187 188.2574 187.1092 188.2689 188.1997 188.5093 189.195 188.9788 190.0952 189.4483 190.9953 190.0942 191.6785 190.9167 192.1449 191.7391 192.6112 192.5906 192.837 193.4714 192.8222 194.3521 192.8074 195.182 192.5458 195.9611 192.0374 196.7402 191.529 197.422 190.8616 198.0067 190.035 198.5913 189.2084 199.0818 188.3161 199.4781 187.3578 199.8744 186.3996 200.1653 185.4157 200.3508 184.4059 200.5363 183.3961 200.5769 182.3914 200.4726 181.3919 200.3683 180.3923 200.0844 179.5199 199.621 178.7748 199.1576 178.0297 198.6532 177.5086 198.1078 177.2113 197.5624 176.9141 196.9937 176.8236 196.4017 176.9398 195.8097 177.056 195.2001 177.3465 194.5727 177.8112 193.9453 178.276 193.3776 178.7582 192.8696 179.2578 192.3615 179.7574 192.0092 180.2319 191.8125 180.6812 191.6158 181.1305 191.5921 181.5466 191.7413 181.9295 191.8906 182.3124 192.2529 182.6535 192.8283 182.9529 193.4037 183.2523 194.081 183.4401 194.8603 183.5161 195.6396 183.5921 196.406 183.4957 197.1595 183.2268 197.9131 182.9579 198.5733 182.499 199.14 181.85 199.7067 181.201 200.0914 180.4485 200.2939 179.5925 200.4965 178.7366 200.462 177.901 200.1905 177.0857 199.919 176.2705 199.405 175.5072 198.6485 174.7959 197.8919 174.0846 196.9537 173.4476 195.8339 172.885 194.714 172.3223 193.5376 171.9859 192.3047 171.8759 191.0718 171.7659 189.8907 171.9319 188.7617 172.3741 187.6326 172.8162 186.5394 173.4242 185.4821 174.198 184.4248 174.9719 183.4671 175.7661 182.6089 176.5808 181.7508 177.3955 181.1368 178.2353 180.7669 179.1002 180.397 179.965 180.2396 180.8247 180.2947 181.6792 180.3499 182.5338 180.6259 183.3263 181.1228 184.0569 181.6197 184.7875 182.2193 185.3199 182.9216 185.6541 183.6239 185.9883 184.2712 186.1222 184.8635 186.0557 185.4559 185.9893 185.8814 185.7262 186.1403 185.2664 186.3992 184.8066 186.5223 184.1621 186.5098 183.3327 186.4973 182.5033 186.3139 181.6363 185.9594 180.7316 185.605 179.8268 184.9993 178.9951 184.1423 178.2365 183.2854 177.4778 182.0885 176.738 180.5517 176.017 179.0149 175.296 177.2099 174.5653 175.1367 173.825 173.0636 173.0847 171.0059 172.474 168.9636 171.993 166.9213 171.5119 164.9995 171.2473 163.1983 171.1992 161.3971 171.1511 159.7653 171.5125 158.303 172.2834 156.8407 173.0543 155.618 174.012 154.6348 175.1567 153.6517 176.3013 152.8615 177.5069 152.2641 178.7734 151.6668 180.0399 151.296 181.2626 151.1518 182.4415 151.0076 183.6203 151.1433 184.7218 151.5588 185.746 151.9743 186.7702 152.5253 187.5677 153.2118 188.1386 153.8983 188.7095 154.583 188.9736 155.2659 188.9308 155.9488 188.8881 156.5585 188.5305 157.0952 187.858 157.6318 187.1856 158.0613 186.3319 158.3837 185.2969 158.7061 184.2619 158.8949 183.1781 158.9502 182.0455 159.0054 180.9128 158.794 179.8751 158.3158 178.9324 157.8376 177.9896 157.1025 177.1293 156.1103 176.3515 155.1181 175.5737 153.939 174.8886 152.5729 174.2962 151.2068 173.7039 149.872 173.3051 148.5684 173.1 147.2647 172.8948 146.1331 172.9202 145.1736 173.1762 144.214 173.4322 143.3638 173.8648 142.6229 174.4741 141.882 175.0834 141.2902 175.6873 140.8476 176.2859 140.405 176.8844 140.1308 177.4594 140.0251 178.0108 139.9194 178.5622 140.0494 179.0613 140.4151 179.5081 140.7807 179.955 141.2889 180.266 141.9397 180.4413 142.5905 180.6165 143.2632 180.6438 143.9579 180.5231 144.6525 180.4023 145.3072 180.0787 145.9218 179.552 146.5363 179.0253 147.0241 178.2902 147.385 177.3466 147.7459 176.4031 147.9751 175.3196 148.0726 174.0962 148.1701 172.8729 148.1201 171.7814 147.9225 170.8219 147.725 169.8625 147.4052 169.2118 146.9632 168.8701 146.5211 168.5284 145.9555 168.3251 145.2664 168.2602 144.5773 168.1953 143.8604 168.3593 143.1158 168.7522 142.3713 169.1451 141.7046 169.7529 141.1157 170.5756 140.5268 171.3982 140.0724 172.3077 139.7525 173.3039 139.4326 174.3002 139.2604 175.282 139.2361 176.2495 139.2118 177.217 139.4211 178.064 139.864 178.7906 140.3069 179.5171 140.9382 180.1279 141.7579 180.623 142.5777 181.118 143.4508 181.4441 144.3773 181.6011 145.3039 181.7581 146.1475 181.6909 146.9081 181.3994 147.6687 181.1079 148.3327 180.6135 148.9002 179.9161 149.4676 179.2188 149.9064 178.432 150.2165 177.5559 150.5266 176.6797 150.6933 175.8675 150.7167 175.1194 150.74 174.3713 150.5494 173.7602 150.1448 173.286 149.7402 172.8118 149.176 172.4742 148.4522 172.2732 147.7284 172.0721 147.004 172.0845 146.2791 172.3101 145.5541 172.5358 144.8866 173.1092 144.2766 174.0304 143.6667 174.9515 143.1969 176.1033 142.8672 177.4857 142.5374 178.8681 142.4137 180.2621 142.4959 181.6676 142.5781 183.0731 142.892 184.3568 143.4377 185.5188 143.9833 186.6809 144.6712 187.6387 145.5012 188.3924 146.3312 189.1461 147.187 189.599 148.0685 189.7511 149.3365 189.97 151.0082 189.1342 153.0836 187.2436"/>
</g>
<text fill-opacity="0" xml:space="preserve" transform="matrix(.5761954 0 0 .7733172 14.93236 36.885606)" font-size="40.01357" font-family="AAAAAM+.SFUI-Regular_wdth_opsz2"><tspan y="38.09886" x="0 24.092173 51.90561 80.23922 104.57147 134.18552 161.67885 171.00601 199.33963 227.95334 250.40496 274.7372">SCHRODINGERS</tspan></text>
<text fill-opacity="0" xml:space="preserve" transform="matrix(.5726763 0 0 .6687952 70.26233 83.9645)" font-size="42.32636" font-family="AAAAAN+.SFUI-Regular_wdth_opsz2"><tspan y="40.30098" x="0 29.387194 52.510087">CAT</tspan></text>
</g>
</svg>
