<svg xmlns="http://www.w3.org/2000/svg" xmlns:xlink="http://www.w3.org/1999/xlink" xmlns:inkscape="http://www.inkscape.org/namespaces/inkscape" version="1.1" width="200" height="200" viewBox="0 0 200 200">
<g>
<path transform="matrix(.5454546,0,0,.5454546,-23.31144,-12.262497)" stroke-width="9.35433" stroke-linecap="round" stroke-linejoin="round" fill="none" stroke="#ff5b59" d="M239.0121 131.4789C238.9052 131.4597 238.7593 131.4342 238.5742 131.4025 238.3891 131.3707 237.877 131.3521 237.0378 131.3467 236.1985 131.3413 234.7955 131.3182 232.8285 131.2775 230.8616 131.2367 228.886 131.2023 226.9017 131.1744 224.9175 131.1464 222.7931 131.0692 220.5285 130.9427 218.2639 130.8162 215.8613 130.6643 213.3205 130.4872 210.7798 130.3099 208.2002 130.1465 205.5818 129.9969 202.9635 129.8474 200.3467 129.7206 197.7316 129.6165 195.1165 129.5125 192.4307 129.3908 189.6742 129.2514 186.9177 129.1121 183.8998 128.9451 180.6205 128.7505 177.3411 128.5558 173.8937 128.4231 170.2782 128.3522 166.6627 128.2813 163.1454 128.4123 159.7263 128.7451 156.3072 129.0779 153.0548 129.548 149.9691 130.1556 146.8834 130.7632 143.9106 131.4035 141.0508 132.0765 138.191 132.7495 135.5026 133.5005 132.9856 134.3296 130.4686 135.1586 128.1128 136.1068 125.9183 137.1742 123.7238 138.2415 121.831 139.4248 120.24 140.724 118.6489 142.0232 117.243 143.3895 116.0222 144.8229 114.8015 146.2562 113.7127 147.7547 112.7559 149.3183 111.7991 150.882 110.7607 152.5781 109.6406 154.4068 108.5205 156.2354 107.4558 158.3109 106.4465 160.6332 105.4372 162.9555 104.6463 165.5054 104.0739 168.2831 103.5014 171.0607 103.1251 174.0072 102.9449 177.1226 102.7647 180.2381 102.8675 183.4408 103.2533 186.7309 103.6391 190.0209 104.6125 193.2434 106.1736 196.3983 107.7347 199.5531 109.9083 202.4477 112.6945 205.0819 115.4807 207.7161 118.4771 209.8967 121.6836 211.6237 124.8902 213.3508 128.1243 214.6814 131.3862 215.6156 134.648 216.5498 137.9866 217.2774 141.4022 217.7985 144.8177 218.3195 148.3047 218.809 151.8633 219.2669 155.4218 219.7248 158.9799 220.1355 162.5374 220.4992 166.0949 220.8629 169.7199 221.1932 173.4124 221.4902 177.1048 221.7872 180.7831 221.9808 184.4472 222.071 188.1114 222.1612 191.8286 222.2091 195.599 222.2147 199.3693 222.2203 203.2697 222.2817 207.3001 222.399 211.3305 222.5163 215.3204 222.6289 219.2699 222.7368 223.2194 222.8446 227.0291 222.9413 230.699 223.0268 234.3689 223.1122 237.9234 223.1558 241.3624 223.1576 244.8013 223.1593 248.327 223.1972 251.9395 223.2713 255.5521 223.3453 259.1092 223.3842 262.6109 223.3881 266.1126 223.3919 269.6288 223.2912 273.1596 223.0857 276.6904 222.8803 280.3398 222.6711 284.1079 222.4581 287.876 222.2451 291.6394 221.9975 295.3981 221.7155 299.1568 221.4335 302.8316 221.0863 306.4224 220.6738 310.0133 220.2614 313.4422 219.7525 316.709 219.1472 319.976 218.5419 323.0697 217.8646 325.9904 217.1153 328.911 216.366 331.5797 215.4784 333.9963 214.4524 336.4129 213.4264 338.6193 212.2399 340.6154 210.8928 342.6115 209.5457 344.4398 208.0241 346.1002 206.3279 347.7606 204.6318 349.2962 202.8161 350.707 200.8809 352.1178 198.9457 353.2868 196.8484 354.2141 194.5891 355.1412 192.3297 355.8012 189.9417 356.1939 187.425 356.5867 184.9084 356.6963 182.3153 356.5228 179.6457 356.3492 176.9761 355.9173 174.3153 355.2271 171.6631 354.5369 169.0109 353.5898 166.4455 352.386 163.9668 351.1821 161.4881 349.6826 159.202 347.8874 157.1087 346.0922 155.0153 344.2867 153.1986 342.4708 151.6586 340.655 150.1185 338.7665 148.7625 336.8054 147.5904 334.8443 146.4184 332.7647 145.3081 330.5666 144.2596 328.3685 143.2111 326.2087 142.3015 324.087 141.5309 321.9654 140.7603 319.9334 140.0936 317.9911 139.531 316.0489 138.9684 314.2486 138.4687 312.5904 138.032 310.9322 137.5953 309.2891 137.2164 307.661 136.8953 306.0329 136.5742 304.3892 136.3032 302.7298 136.0823 301.0704 135.8614 299.3742 135.6647 297.6411 135.4921 295.9079 135.3196 294.2255 135.1068 292.5937 134.8538 290.9619 134.6009 289.3418 134.3521 287.7335 134.1076 286.1251 133.8631 284.5544 133.6669 283.0215 133.519 281.4886 133.371 280.0104 133.2423 278.5869 133.1328 277.1634 133.0232 275.7839 132.921 274.4483 132.826 273.1128 132.731 271.9174 132.6323 270.8622 132.5299 269.8069 132.4275 268.7699 132.3389 267.7509 132.2642 266.732 132.1895 265.7117 132.1458 264.6901 132.1333 263.6684 132.1208 262.7277 132.113 261.8679 132.11 261.0081 132.1069 260.1472 132.0949 259.2853 132.0741 258.4233 132.0533 257.5137 132.0258 256.5565 131.9916 255.5993 131.9574 254.7053 131.936 253.8745 131.9272 253.0437 131.9185 252.2221 131.9113 251.4097 131.9057 250.5972 131.9001 249.7816 131.8853 248.9629 131.8611 248.1442 131.837 247.3552 131.8003 246.5959 131.7512 245.8367 131.702 245.0987 131.6546 244.3819 131.6089 243.6651 131.5632 242.9548 131.5385 242.2508 131.5347 241.5469 131.5309 240.8336 131.529 240.1109 131.529 239.3882 131.529 238.5943 131.5356 237.7292 131.549 236.8641 131.5623 235.7597 131.5744 234.416 131.5853 232.387 131.6018 230.4876 131.749 228.7178 132.0271"/>
<path transform="matrix(.5454546,0,0,.5454546,3.977313,-.17010498)" stroke-width="4.677165" stroke-linecap="round" stroke-linejoin="round" fill="none" stroke="#ff5b59" d="M88.89681 134.3653C89.14597 134.2994 89.41589 134.2568 89.70657 134.2375 89.99726 134.2181 90.57062 134.198 91.42664 134.1772 92.28267 134.1565 93.91084 134.0575 96.31116 133.8802 98.71147 133.703 101.2475 133.6656 103.9192 133.7679 106.5909 133.8701 108.8305 133.9948 110.6381 134.1419 112.4457 134.2889 113.8385 134.4099 114.8166 134.5047"/>
<path transform="matrix(.5454546,0,0,.5454546,3.977313,-.17010498)" stroke-width="4.677165" stroke-linecap="round" stroke-linejoin="round" fill="none" stroke="#ff5b59" d="M101.7033 135.3335C101.5817 135.1874 101.482 135.1958 101.4041 135.3584 101.3477 135.4762 101.3614 136.2199 101.4452 137.5895 101.529 138.9591 101.557 141.0254 101.5293 143.7885 101.5016 146.5516 101.4475 149.8331 101.3669 153.6331 101.2863 157.433 101.3025 160.4609 101.4155 162.7167 101.5284 164.9724 101.6171 166.2822 101.6813 166.6461L101.7295 166.9189 101.5849 166.1003"/>
<path transform="matrix(.5454546,0,0,.5454546,2.446568,-.3403015)" stroke-width="4.677165" stroke-linecap="round" stroke-linejoin="round" fill="none" stroke="#ff5b59" d="M117.0023 148.3205C117.0014 148.0653 116.9933 147.9552 116.978 147.9902 116.9672 148.0151 116.9399 148.0774 116.8964 148.177 116.8529 148.2767 116.8251 148.9326 116.813 150.1449 116.8008 151.3571 116.71 153.2871 116.5405 155.9349 116.371 158.5826 116.1643 161.4966 115.9203 164.6768 115.6764 167.857 115.5496 170.4345 115.54 172.4094 115.5303 174.3843 115.5782 175.6549 115.6835 176.2213"/>
<path transform="matrix(.5454546,0,0,.5454546,2.446568,-.3403015)" stroke-width="4.677165" stroke-linecap="round" stroke-linejoin="round" fill="none" stroke="#ff5b59" d="M117.8156 148.079C117.6986 147.9261 117.7551 147.7535 117.9853 147.5613 118.2155 147.3691 119.0662 147.2457 120.5374 147.1913 122.0086 147.1368 123.7459 147.3631 125.7494 147.87 127.7528 148.377 129.401 148.9588 130.6938 149.6153 131.9867 150.2719 132.6957 151.09 132.8211 152.0697 132.9464 153.0494 132.5433 154.1434 131.6119 155.3517 130.6804 156.5599 129.4782 157.6139 128.0053 158.5135 126.5324 159.4131 125.108 160.116 123.732 160.622 122.3561 161.128 121.4043 161.4365 120.8768 161.5475 120.3492 161.6586 120.075 161.7227 120.0542 161.7399 120.0334 161.757 120.0309 161.8283 120.0468 161.9536 120.0626 162.0789 120.2125 162.3303 120.4965 162.708 120.7805 163.0857 121.4903 163.7554 122.6259 164.7172 123.7614 165.679 125.187 166.8789 126.9028 168.3168 128.6186 169.7546 130.2123 171.1533 131.684 172.5127 133.1557 173.8721 134.2284 174.7444 134.9023 175.1295 135.5761 175.5147 135.8562 175.5994 135.7425 175.3837"/>
<path transform="matrix(.5454546,0,0,.5454546,1.399904,-.02619934)" stroke-width="4.677165" stroke-linecap="round" stroke-linejoin="round" fill="none" stroke="#ff5b59" d="M137.5426 133.952C137.3425 133.7745 137.2505 133.6962 137.2667 133.7171 137.2781 133.732 137.3068 133.7691 137.3527 133.8285 137.3986 133.8879 137.7329 134.3426 138.3554 135.1927 138.978 136.0428 139.9917 137.4057 141.3964 139.2816 142.8012 141.1575 144.1674 142.8153 145.495 144.2552 146.8227 145.6951 147.7326 146.6696 148.2247 147.1787L148.8283 147.793 148.7983 147.7567"/>
<path transform="matrix(.5454546,0,0,.5454546,1.399904,-.02619934)" stroke-width="4.677165" stroke-linecap="round" stroke-linejoin="round" fill="none" stroke="#ff5b59" d="M155.7385 132.2436C155.7442 131.8719 155.7536 131.6943 155.7667 131.711 155.776 131.7228 155.546 132.5348 155.0766 134.147 154.6072 135.7592 153.626 138.3112 152.1328 141.803 150.6397 145.2948 149.2859 148.9178 148.0714 152.6721 146.8568 156.4263 146.0138 159.2643 145.5423 161.186 145.0708 163.1078 144.8072 164.0873 144.7514 164.1246 144.6735 164.1767 144.6622 164.0553 144.7175 163.7604"/>
<path transform="matrix(.5454546,0,0,.5454546,-2.202709,-.49040223)" stroke-width="4.677165" stroke-linecap="round" stroke-linejoin="round" fill="none" stroke="#ff5b59" d="M179.9118 174.3331C179.8208 174.6246 179.7839 174.6996 179.8012 174.5581 179.8138 174.4552 179.8452 174.1979 179.8954 173.7863 179.9457 173.3746 180.4787 171.4282 181.4945 167.9468 182.5104 164.4655 183.8529 160.3886 185.522 155.7161 187.1912 151.0435 188.5699 147.7134 189.658 145.7256 190.7461 143.7378 191.5692 142.8904 192.1273 143.1833 192.6854 143.4764 193.2594 144.5327 193.8493 146.3525 194.4392 148.1723 194.9528 150.7981 195.3901 154.2299 195.8273 157.6618 196.1359 161.1066 196.3159 164.5644 196.4958 168.0222 196.5924 170.2936 196.6058 171.3787 196.6192 172.4638 196.5721 172.9459 196.4646 172.8252"/>
<path transform="matrix(.5454546,0,0,.5454546,-2.202709,-.49040223)" stroke-width="4.677165" stroke-linecap="round" stroke-linejoin="round" fill="none" stroke="#ff5b59" d="M184.1413 163.4671C184.2057 163.5901 185.155 163.8481 186.9893 164.2411 189.7347 164.8293 192.5509 165.217 195.4379 165.4041"/>
<path transform="matrix(.5454546,0,0,.5454546,-2.202709,-.49040223)" stroke-width="4.677165" stroke-linecap="round" stroke-linejoin="round" fill="none" stroke="#ff5b59" d="M215.5433 138.0924C215.3569 137.7457 215.1682 137.3561 214.9771 136.9235 214.786 136.4909 214.3333 136.1752 213.6189 135.9765 212.9045 135.7778 211.9572 135.917 210.7769 136.394 209.5966 136.8711 208.3976 137.892 207.1797 139.4568 205.9618 141.0215 205.0839 142.9583 204.546 145.267 204.0081 147.5757 203.6705 150.1422 203.5332 152.9665 203.3959 155.7908 203.723 158.301 204.5146 160.4971 205.3061 162.6932 206.5176 164.2326 208.149 165.1153 209.7804 165.9979 211.3594 166.2565 212.8859 165.8911 214.4124 165.5256 215.6003 164.7669 216.4496 163.615 217.2989 162.4631 217.9411 161.0382 218.3763 159.3405 218.8115 157.6429 219.2234 156.1077 219.6122 154.7351 220.0009 153.3625 220.2853 152.3313 220.4653 151.6417 220.6453 150.952 220.6307 150.5696 220.4214 150.4944 220.212 150.4192 219.3522 150.3201 217.842 150.197 215.4978 150.006 213.6174 149.9099 212.2007 149.9087"/>
<path transform="matrix(.5454546,0,0,.5454546,-3.570199,1.6427002)" stroke-width="4.677165" stroke-linecap="round" stroke-linejoin="round" fill="none" stroke="#ff5b59" d="M227.0857 165.7462C226.8477 165.9249 226.6904 165.9777 226.6139 165.9044 226.5599 165.8528 226.6648 165.2717 226.9285 164.161 227.1922 163.0504 227.6718 161.2021 228.3672 158.6163 229.0627 156.0305 229.9018 153.3954 230.8847 150.7111 231.8676 148.0268 232.8839 145.7934 233.9336 144.0109 234.9833 142.2284 235.978 140.9873 236.9175 140.2876 237.8571 139.588 238.5739 139.4208 239.0679 139.7862 239.5619 140.1517 240.0248 140.9228 240.4566 142.0998 240.8884 143.2767 241.2156 144.7514 241.4381 146.524 241.6606 148.2965 241.8773 150.2489 242.0881 152.3812 242.2989 154.5135 242.5177 156.6635 242.7447 158.8314 242.9717 160.9992 243.1499 162.7827 243.2794 164.1819 243.4089 165.5811 243.4852 166.3226 243.5085 166.4064 243.5408 166.5229 243.532 166.3596 243.4821 165.9164"/>
<path transform="matrix(.5454546,0,0,.5454546,-3.570199,1.6427002)" stroke-width="4.677165" stroke-linecap="round" stroke-linejoin="round" fill="none" stroke="#ff5b59" d="M230.5459 158.1368C230.4641 158.3272 230.6234 158.4128 231.024 158.3936 231.4245 158.3743 232.6112 158.4087 234.5842 158.4968 237.7634 158.6387 239.9772 158.6473 241.2256 158.5226"/>
<path transform="matrix(.5454546,0,0,.5454546,-4.729098,1.0476074)" stroke-width="4.677165" stroke-linecap="round" stroke-linejoin="round" fill="none" stroke="#ff5b59" d="M253.7126 149.4533C253.7882 149.3442 253.8631 149.167 253.9372 148.9219 253.9846 148.7653 254.013 148.8171 254.0225 149.0772 254.032 149.3373 254.0537 150.1193 254.0877 151.4231 254.1217 152.727 254.1455 154.2382 254.1592 155.957 254.173 157.6757 254.1915 159.276 254.2148 160.758 254.238 162.2399 254.2535 163.9056 254.2611 165.7549 254.2687 167.6043 254.3086 169.1554 254.3809 170.4083 254.4532 171.6613 254.4337 172.2059 254.3223 172.0422"/>
<path transform="matrix(.5454546,0,0,.5454546,-5.633922,2.750595)" stroke-width="4.677165" stroke-linecap="round" stroke-linejoin="round" fill="none" stroke="#ff5b59" d="M264.3926 137.6587C264.4675 137.5336 264.5212 137.4173 264.5535 137.3097 264.5753 137.2369 264.5915 137.3666 264.6021 137.6987 264.6126 138.0309 264.6649 138.7337 264.759 139.8072 264.8531 140.8806 264.9618 142.0784 265.0848 143.4004 265.2079 144.7225 265.2988 145.9511 265.3575 147.0864 265.4162 148.2216 265.4214 149.3612 265.3729 150.5052 265.3245 151.6491 265.3021 152.8626 265.3057 154.1458 265.3093 155.4289 265.381 156.7593 265.5206 158.1372 265.6603 159.515 265.7604 160.6447 265.821 161.5262 265.8816 162.4078 265.9605 162.5663 266.0577 162.0019"/>
<path transform="matrix(.5454546,0,0,.5454546,-5.633922,2.750595)" stroke-width="4.677165" stroke-linecap="round" stroke-linejoin="round" fill="none" stroke="#ff5b59" d="M265.8106 136.8849C265.7987 136.9426 266.0109 137.3323 266.4473 138.0539 266.8836 138.7755 267.5272 139.7924 268.3779 141.1046 269.2286 142.4168 270.0391 143.6925 270.8096 144.9317 271.58 146.1708 272.2327 147.371 272.7676 148.5322 273.3026 149.6933 273.8541 150.7608 274.4224 151.7347 274.9907 152.7086 275.5942 153.7023 276.233 154.7158 276.8717 155.7293 277.466 156.6728 278.0157 157.5465 278.5655 158.4202 279.1376 159.2615 279.7321 160.0704 280.3266 160.8794 280.669 161.3328 280.7594 161.4308 280.8498 161.5288 280.8882 161.5653 280.8746 161.5404 280.861 161.5155 280.8532 161.3285 280.851 160.9793 280.8489 160.6301 280.8443 160.0039 280.8374 159.1005 280.8305 158.1972 280.7991 157.1956 280.7432 156.0957 280.6873 154.9958 280.5832 153.9743 280.4311 153.0312 280.279 152.0882 280.163 151.0672 280.0831 149.9685 280.0033 148.8697 279.9761 147.7449 280.0013 146.5939 280.0266 145.443 280.0592 144.2646 280.0992 143.0587 280.1393 141.8527 280.1678 140.678 280.1849 139.5346 280.202 138.3912 280.1691 137.2762 280.086 136.1895 280.0029 135.1028 279.9609 134.0488 279.9601 133.0277 279.9593 132.0065 279.9654 131.1709 279.9782 130.5209 279.9911 129.8709 279.9873 129.4415 279.9669 129.2326 279.9466 129.0237 279.9307 128.9292 279.9193 128.949 279.9029 128.9773 279.8516 129.0665 279.7654 129.2164"/>
<g style="mix-blend-mode:multiply">
<path transform="matrix(.5454546,0,0,.5454546,0,0)" stroke-width="24" stroke-linecap="round" stroke-linejoin="round" fill="none" stroke="#ff8a89" stroke-opacity=".5" d="M141.4523 133.502C141.1305 133.2635 140.5339 132.9788 139.6627 132.6478 139.116 132.4401 138.5772 132.3711 138.0463 132.4408 137.5154 132.5105 136.9943 132.7357 136.4831 133.1166 135.9719 133.4974 135.4254 134.0385 134.8438 134.74 134.2622 135.4414 133.6168 136.4031 132.9075 137.625 132.1983 138.8469 131.4285 140.3723 130.598 142.201 129.7675 144.0298 129.0937 146.103 128.5766 148.4206 128.0595 150.7382 127.8836 153.0018 128.0489 155.2115 128.2142 157.4212 128.7211 159.0677 129.5695 160.151 130.418 161.2343 131.4483 161.7488 132.6604 161.6943 133.8726 161.6398 135.2325 161.3384 136.7402 160.7903 138.248 160.2421 139.7826 159.5667 141.344 158.7641 142.9054 157.9616 144.379 156.9533 145.765 155.7393 147.1509 154.5254 148.3472 153.125 149.3539 151.5383 150.3605 149.9515 151.0167 148.2647 151.3223 146.4779 151.6279 144.691 151.5247 143.0027 151.0128 141.4129 150.5008 139.8231 149.6857 138.3487 148.5675 136.9897 147.4493 135.6307 146.1018 134.4732 144.5251 133.5172 142.9484 132.5612 141.1679 131.9148 139.1836 131.5779 137.1994 131.2411 135.0983 131.282 132.8804 131.7006 130.6624 132.1192 128.5383 132.9947 126.508 134.327 124.4777 135.6594 122.6859 137.3238 121.1325 139.3204 119.5791 141.317 118.348 143.5549 117.4391 146.034 116.5302 148.5131 115.9942 151.1128 115.831 153.8332 115.6677 156.5535 115.9638 158.9964 116.7191 161.162 117.4744 163.3275 118.5529 164.8472 119.9547 165.7211 121.3564 166.5949 123.0166 166.8916 124.9351 166.6112 126.8537 166.3307 128.8071 165.5644 130.7954 164.3122 132.7837 163.06 134.6278 161.5301 136.3277 159.7224 138.0276 157.9147 139.4207 155.9677 140.507 153.8813 141.5933 151.795 142.3655 149.6013 142.8238 147.3001 143.2821 144.999 143.3533 142.5695 143.0374 140.0117 142.7216 137.4539 142.0264 135.0038 140.9519 132.6616 139.8774 130.3193 138.5389 128.5697 136.9364 127.4129 135.3339 126.256 133.5423 125.7434 131.5615 125.8749 129.5807 126.0065 127.4724 126.6608 125.2368 127.8378 123.0011 129.0148 120.822 130.5546 118.6995 132.4573 116.577 134.3599 114.6682 136.4497 112.973 138.7264 111.2777 141.0032 109.8902 143.4132 108.8104 145.9565 107.7306 148.4998 107.1096 150.9961 106.9474 153.4455 106.7851 155.8949 107.0395 157.9204 107.7105 159.5222 108.3815 161.1239 109.471 162.1587 110.9789 162.6264 112.4867 163.0941 114.2444 163.0981 116.252 162.6383 118.2595 162.1785 120.3492 161.2774 122.5213 159.9349 124.6933 158.5924 126.6927 156.9676 128.5195 155.0604 130.3462 153.1533 131.785 151.233 132.8358 149.2995 133.8865 147.366 134.7206 145.4945 135.3381 143.6851 135.9556 141.8756 136.2741 140.0754 136.2937 138.2843 136.3132 136.4933 135.9351 134.8358 135.1594 133.312 134.3837 131.7881 133.4718 130.5641 132.4237 129.6398 131.3755 128.7155 130.2053 128.2313 128.9129 128.1871 127.6205 128.1429 126.3762 128.5558 125.1799 129.4258 123.9836 130.2958 122.8977 131.3622 121.922 132.6251 120.9464 133.888 120.2862 135.1856 119.9415 136.518 119.5967 137.8504 119.5398 139.15 119.7705 140.4169 120.0013 141.6839 120.5352 142.7003 121.3721 143.4662 122.209 144.2321 123.1756 144.6714 124.2721 144.7842 125.3685 144.897 126.484 144.6876 127.6185 144.1562 128.7529 143.6247 129.9375 142.8319 131.1722 141.7777 132.407 140.7236 133.6075 139.5227 134.7739 138.175 135.9403 136.8273 136.9555 135.5585 137.8197 134.3684 138.6838 133.1783 139.3581 132.0956 139.8423 131.1203 140.3266 130.145 140.6774 129.2649 140.8946 128.4799 141.1118 127.6949 141.1951 127.0159 141.1445 126.4429 141.0939 125.87 140.9214 125.3166 140.627 124.7829 140.3325 124.2492 139.9566 123.7386 139.4991 123.2511 139.0417 122.7635 138.5007 122.3054 137.8763 121.8767 137.2518 121.4481 136.5587 121.0555 135.7969 120.6991 135.0352 120.3426 134.3088 120.0833 133.6177 119.921 132.9267 119.7587 132.2844 119.6725 131.6908 119.6623 131.0972 119.6521 130.5025 119.7008 129.9066 119.8083 129.3107 119.9158 128.7268 119.9961 128.1548 120.049 127.5828 120.102 127.0753 120.1311 126.6323 120.1364 126.1893 120.1417 125.7437 120.1205 125.2955 120.0728 124.8473 120.0251 124.1554 119.932 123.2199 119.7934 122.2845 119.6549 121.3994 119.547 120.5648 119.4696 119.7302 119.3922 118.9792 119.298 118.312 119.1869 117.6447 119.0757 117.1406 119.0021 116.7997 118.966 116.4588 118.9299 116.1025 118.9071 115.7309 118.8974 115.3592 118.8878 114.9799 118.8945 114.5931 118.9177 114.2063 118.9409 113.8278 118.9868 113.4575 119.0554 113.0873 119.1241 112.7209 119.201 112.3583 119.2863 111.9958 119.3715 111.6216 119.4486 111.2357 119.5174 110.8498 119.5862 110.4567 119.6482 110.0564 119.7033 109.6561 119.7585 109.2611 119.7948 108.8714 119.8124 108.4818 119.83 107.9445 119.8397 107.2596 119.8416 106.5747 119.8436 106.096 119.8657 105.8234 119.9079 105.5508 119.9501 105.2683 120.0095 104.9758 120.0861 104.6833 120.1627 104.3747 120.2651 104.0501 120.3934 103.7255 120.5217 102.911 120.8859 101.6067 121.4861 100.3024 122.0863 99.2014 122.5848 98.3036 122.9816 97.40579 123.3784 96.7199 123.6743 96.24591 123.8692 95.77192 124.0642 95.30928 124.2618 94.85798 124.4622 94.40668 124.6626 93.98364 124.8814 93.58887 125.1185 93.1941 125.3557 92.80215 125.6067 92.41302 125.8716 92.02391 126.1366 91.63507 126.3848 91.24651 126.6163 90.85795 126.8478 90.45436 127.0686 90.03572 127.2787 89.61708 127.4888 89.19091 127.6797 88.7572 127.8515 88.32349 128.0233 87.94027 128.1871 87.60754 128.343 87.27481 128.4988 86.81525 128.7747 86.22887 129.1706 85.64248 129.5664 85.20769 129.8654 84.92451 130.0674 84.64132 130.2694 84.19329 130.5619 83.58041 130.9447 82.96752 131.3276 82.51279 131.6252 82.21622 131.8375 81.91964 132.0499 81.63596 132.2782 81.36517 132.5226 81.09437 132.7669 80.84597 133.0159 80.61996 133.2695 80.39394 133.5231 80.0542 133.9255 79.60072 134.4768 79.14723 135.0282 78.69096 135.5807 78.23189 136.1343 77.77282 136.688 77.45132 137.0924 77.2674 137.3474 77.08347 137.6024 76.90996 137.8572 76.74689 138.1119 76.58382 138.3665 76.43083 138.6181 76.28793 138.8667 76.14503 139.1153 76.00615 139.3757 75.87129 139.6478 75.73643 139.9199 75.60499 140.2142 75.47696 140.5309 75.34894 140.8476 75.17993 141.352 74.96992 142.0441 74.75992 142.7362 74.53842 143.5218 74.30544 144.4007 74.07245 145.2796 73.8927 146.0078 73.76617 146.5854 73.63965 147.163 73.50074 147.7791 73.34944 148.4339 73.19814 149.0887 73.04559 149.7171 72.89182 150.3193 72.73803 150.9214 72.59317 151.5059 72.45722 152.0727 72.32128 152.6395 72.20732 153.1653 72.11536 153.6501 72.02339 154.1349 71.94568 154.5764 71.88223 154.9747 71.81878 155.3729 71.76278 155.7638 71.71424 156.1474 71.6657 156.5309 71.62393 156.9409 71.58893 157.3772 71.55393 157.8136 71.5312 158.4824 71.52072 159.3837 71.51024 160.285 71.53509 160.976 71.59528 161.4567 71.65546 161.9375 71.75186 162.4069 71.88448 162.8651 72.01709 163.3232 72.17142 163.7772 72.34744 164.227 72.52347 164.6769 72.82974 165.3568 73.26627 166.2668 73.70279 167.1768 74.07704 167.8508 74.389 168.2889 74.70096 168.727 75.0775 169.1488 75.51863 169.5545 75.95976 169.9601 76.66635 170.5998 77.63841 171.4736 78.61048 172.3474 79.33823 172.9721 79.82166 173.3479 80.3051 173.7237 80.80308 174.0631 81.3156 174.366 81.82812 174.6689 82.40238 174.9621 83.03839 175.2457 83.6744 175.5293 84.29849 175.83 84.91067 176.1478 85.52284 176.4656 86.09163 176.8002 86.61703 177.1516 87.14244 177.503 87.7057 177.8349 88.30682 178.1474 88.90794 178.46 89.546 178.7253 90.22101 178.9435 90.89601 179.1617 91.53552 179.339 92.13954 179.4754 92.74357 179.6118 93.6955 179.8419 94.99535 180.1656 96.29519 180.4894 97.30066 180.7385 98.01176 180.9131 98.72286 181.0876 99.45156 181.2379 100.1978 181.3639 100.9441 181.4899 101.8158 181.5893 102.8127 181.6622 103.8097 181.7351 104.8071 181.7782 105.8051 181.7916 106.803 181.8049 107.9094 181.8092 109.1245 181.8045 110.3395 181.7998 111.6076 181.7399 112.9288 181.6249 114.2499 181.5098 115.6216 181.3561 117.0437 181.1637 118.4659 180.9713 119.9233 180.7328 121.4159 180.4482 122.9084 180.1636 124.3925 179.79 125.868 179.3274 127.3434 178.8647 128.7759 178.3178 130.1653 177.6866 131.5547 177.0554 132.8885 176.3736 134.1668 175.6411 135.4451 174.9086 136.6606 174.1258 137.8132 173.2928 138.9659 172.4597 139.9766 171.6156 140.8454 170.7604 141.7142 169.9052 142.5116 169.0037 143.2375 168.0558 143.9633 167.108 144.5404 166.1042 144.9687 165.0446 145.3969 163.985 145.6867 162.8866 145.8381 161.7494 145.9894 160.6123 146.0304 159.3718 145.9612 158.0279 145.8919 156.684 145.6579 155.2363 145.2591 153.6848 144.8604 152.1333 144.3306 150.6799 143.6698 149.3247 143.009 147.9696 142.2085 146.7719 141.2683 145.7319 140.3281 144.6918 139.2624 143.773 138.0713 142.9755 136.8801 142.178 135.5739 141.456 134.1526 140.8094 132.7314 140.1628 131.175 139.5207 129.4836 138.8832 127.7922 138.2457 126.018 137.7081 124.1609 137.2704 122.3038 136.8328 120.4626 136.5801 118.6372 136.5122 116.8117 136.4443 114.9608 136.5939 113.0843 136.961 111.2078 137.3281 109.3287 137.8677 107.4471 138.5798 105.5655 139.2919 103.8042 140.0755 102.1632 140.9307 100.5222 141.7858 99.00777 142.6572 97.61992 143.5447 96.23206 144.4322 95.0136 145.3455 93.96453 146.2845 92.91546 147.2236 92.04912 148.123 91.36549 148.9827 90.68186 149.8425 90.14009 150.7163 89.74017 151.6043 89.34025 152.4924 89.11728 153.421 89.07126 154.3902 89.02524 155.3594 89.1868 156.4111 89.55595 157.5452 89.92511 158.6794 90.45368 159.9393 91.14165 161.3251 91.82963 162.7109 92.72947 164.1636 93.84117 165.6831 94.95288 167.2027 96.24552 168.6113 97.71909 169.909 99.19267 171.2067 100.7265 172.2852 102.3207 173.1447 103.9149 174.0041 105.4035 174.5311 106.7867 174.7256 108.1699 174.9201 109.4822 174.8733 110.7237 174.5852 111.9652 174.2971 113.2087 173.7647 114.4541 172.9882 115.6995 172.2116 116.9602 171.1815 118.2362 169.8977 119.5121 168.614 120.7263 167.1994 121.8787 165.6539 123.0311 164.1084 124.0538 162.5438 124.9467 160.9601 125.8396 159.3764 126.5236 157.9023 126.9987 156.5379 127.4738 155.1734 127.8285 153.8652 128.0629 152.6131 128.2973 151.3611 128.4262 150.0574 128.4497 148.702 128.4731 147.3466 128.2931 145.977 127.9096 144.5932 127.5262 143.2094 127.0048 141.9689 126.3455 140.8717 125.6863 139.7745 124.8414 138.8936 123.8109 138.2291 122.7805 137.5646 121.638 137.1448 120.3835 136.9698 119.1291 136.7949 117.8062 136.78 116.4148 136.9253 115.0234 137.0707 113.6643 137.3496 112.3376 137.7621 111.0108 138.1747 109.6632 138.7181 108.2948 139.3926 106.9263 140.067 105.6883 140.8299 104.5809 141.6813 103.4735 142.5327 102.5118 143.5075 101.6957 144.6057 100.8797 145.7039 100.3615 146.8959 100.1412 148.1816 99.92099 149.4674 99.89027 150.7384 100.0491 151.9946 100.2079 153.2508 100.6389 154.4453 101.342 155.578 102.0451 156.7107 103.0196 157.7106 104.2654 158.5776 105.5113 159.4447 106.935 160.1115 108.5365 160.5781 110.138 161.0447 111.9683 161.4039 114.0274 161.6556 116.0865 161.9073 118.2769 162.1241 120.5988 162.306 122.9207 162.488 125.1713 162.6484 127.3506 162.7872 129.53 162.926 131.6328 163.0385 133.6593 163.1247 135.6857 163.211 137.5719 163.3097 139.3178 163.4208 141.0637 163.532 142.6027 163.6685 143.9347 163.8303 145.2667 163.9922 146.4002 164.1265 147.3352 164.2331 148.2702 164.3397 149.0536 164.4203 149.6856 164.4748 150.3176 164.5293 150.6514 164.558 150.6871 164.5611 150.7229 164.5642 150.7391 164.5658 150.7358 164.5658 150.7326 164.5659 150.7019 164.5664 150.6438 164.5674 150.5858 164.5685 150.3638 164.4786 149.9779 164.2978 149.5919 164.117 149.1325 163.8487 148.5996 163.4929 148.0667 163.1371 147.5445 162.7002 147.0331 162.1822 146.5216 161.6642 146.0414 161.0627 145.5924 160.3777 145.1434 159.6928 144.7216 158.9633 144.327 158.1892 143.9325 157.4152 143.5256 156.5945 143.1064 155.7271 142.6871 154.8597 142.2486 153.9696 141.7907 153.0567 141.3328 152.1438 140.9061 151.2769 140.5107 150.4559 140.1153 149.635 139.72 148.8186 139.3247 148.0069 138.9295 147.1951 138.5223 146.3717 138.103 145.5368 137.6837 144.7018 137.3083 143.8807 136.9771 143.0736 136.6458 142.2665 136.346 141.4487 136.0778 140.6202 135.8095 139.7917 135.5535 138.9652 135.3097 138.1407 135.0658 137.3161 134.8624 136.5611 134.6993 135.8756 134.5363 135.1901 134.4105 134.4965 134.3218 133.7947 134.2332 133.093 134.1754 132.3814 134.1484 131.66 134.1215 130.9385 134.1065 130.078 134.1035 129.0784 134.1006 128.0788 134.1232 127.3747 134.1714 126.966 134.2196 126.5572 134.2853 126.1998 134.3685 125.8935 134.4517 125.5873 134.5728 125.2953 134.7318 125.0174 134.8908 124.7396 135.0748 124.4963 135.2836 124.2876 135.4924 124.0789 135.6796 123.9279 135.8451 123.8347 136.0107 123.7415 136.2189 123.6801 136.4698 123.6505 136.7207 123.621 136.9526 123.5787 137.1653 123.5236 137.378 123.4685 137.6306 123.3809 137.9232 123.2608 138.2157 123.1407 138.6641 122.9309 139.2684 122.6312 139.8727 122.3316 140.2883 122.1447 140.5152 122.0708 140.7421 121.9968 141.073 121.9304 141.5078 121.8716 141.9427 121.8128 142.2923 121.7519 142.5566 121.6888 142.8208 121.6258 143.0717 121.5369 143.3091 121.422 143.5465 121.3072 143.7615 121.1837 143.954 121.0516 144.1466 120.9195 144.2977 120.8016 144.4073 120.698 144.517 120.5943 144.598 120.4846 144.6503 120.3689 144.7025 120.2532 144.5539 120.0965 144.2044 119.8987 143.8548 119.701 143.53 119.554 143.2298 119.4579 142.9295 119.3619 142.5613 119.2763 142.125 119.2012 141.6886 119.1261 141.4482 119.0876 141.4037 119.0859 141.3591 119.0841 141.3295 119.083 141.3147 119.0824 141.2999 119.0818 141.3563 119.1159 141.4839 119.1845 141.6115 119.2531 141.8675 119.3909 142.2521 119.5978 142.6366 119.8047 143.1026 120.0219 143.6501 120.2494 144.1976 120.4768 144.6275 120.6475 144.9399 120.7614 145.2523 120.8753 145.5628 120.9772 145.8714 121.067 146.1799 121.1567 146.4883 121.2212 146.7964 121.2603 147.1046 121.2995 148.4765 121.3212 150.912 121.3256 153.3476 121.3299 154.7869 121.3381 155.23 121.3502 155.673 121.3622 156.1216 121.3809 156.5759 121.4062 157.0301 121.4316 157.8349 121.5037 158.9902 121.6227 160.1456 121.7416 161.403 121.8324 162.7625 121.8949 164.1219 121.9574 165.025 122.0108 165.4716 122.055 165.9182 122.0993 166.3568 122.1537 166.7872 122.2185 167.2177 122.2832 167.6896 122.3278 168.2028 122.3524 168.7161 122.377 169.2546 122.3875 169.8183 122.3839 170.3821 122.3803 170.9423 122.3512 171.499 122.2966 172.0557 122.2419 172.579 122.1998 173.0687 122.1703 173.5584 122.1407 174.7465 122.1242 176.633 122.1209 178.5194 122.1177 179.6932 122.11 180.1543 122.0979 180.6153 122.0859 181.3592 122.0538 182.3859 122.0019 183.4126 121.9499 184.1803 121.9135 184.6889 121.8928 185.1975 121.872 185.7063 121.8395 186.2153 121.7952 186.7243 121.7509 187.2484 121.7084 187.7876 121.6678 188.3268 121.6272 188.8946 121.5928 189.4911 121.5647 190.0876 121.5365 190.6658 121.521 191.2258 121.5182 191.7858 121.5153 192.3138 121.5228 192.8099 121.5406 193.306 121.5584 193.826 121.5893 194.3699 121.6333 194.9139 121.6773 195.4843 121.7166 196.0812 121.7512 196.6782 121.7857 197.2567 121.8288 197.8167 121.8805 198.3767 121.9322 199.1927 122.0462 200.2647 122.2226 201.3367 122.3989 202.1748 122.5159 202.7792 122.5734 203.3836 122.6309 203.9872 122.6806 204.5902 122.7226 205.1932 122.7645 205.781 122.8147 206.3537 122.8732 206.9264 122.9316 207.848 123.0147 209.1185 123.1225 210.389 123.2302 211.3372 123.2988 211.9631 123.3283 212.589 123.3578 213.5425 123.3868 214.8236 123.4154 216.1048 123.444 217.3413 123.4907 218.5333 123.5555 219.7253 123.6203 220.6231 123.6634 221.2269 123.6848 221.8307 123.7062 222.9589 123.7181 224.6115 123.7205 226.264 123.7229 227.6278 123.7494 228.7028 123.8001 229.7779 123.8507 230.5589 123.8955 231.0461 123.9343 231.5332 123.9731 232.1965 124.0487 233.0362 124.1609 233.8759 124.2731 234.53 124.341 234.9985 124.3644 235.4671 124.3879 236.387 124.401 237.7582 124.4036 239.1295 124.4062 240.0353 124.4136 240.4757 124.4256 240.916 124.4377 241.3632 124.4624 241.8172 124.4998 242.2712 124.5372 242.7198 124.5638 243.163 124.5796 243.6063 124.5954 244.2116 124.6041 244.9789 124.6059 245.7463 124.6076 246.2891 124.6115 246.6073 124.6176 246.9256 124.6236 247.4094 124.6743 248.0587 124.7696 248.708 124.865 249.1994 124.9424 249.5331 125.0019 249.8667 125.0615 250.5358 125.1623 251.5404 125.3044 252.5451 125.4465 253.407 125.5801 254.1262 125.7053 254.8454 125.8305 255.6116 125.9567 256.4247 126.084 257.2379 126.2113 257.8458 126.3023 258.2483 126.3572 258.6508 126.4121 259.0561 126.4604 259.4641 126.502 259.872 126.5437 260.4382 126.5795 261.1624 126.6094 261.8867 126.6393 262.4045 126.664 262.7158 126.6835 263.0271 126.7029 263.3369 126.7377 263.6454 126.7879 263.9538 126.8381 264.4345 126.9543 265.0876 127.1365 265.7406 127.3187 266.465 127.5353 267.2606 127.7862 268.0563 128.037 268.6646 128.2384 269.0856 128.3904 269.5066 128.5423 269.9129 128.6952 270.3047 128.8491 270.6964 129.003 271.3498 129.2984 272.2648 129.7353 273.1798 130.1722 273.7997 130.455 274.1246 130.5838 274.4495 130.7125 274.9936 130.8949 275.757 131.131 276.5204 131.367 277.0751 131.5451 277.4213 131.6651 277.7675 131.7851 278.1056 131.9235 278.4355 132.0802 278.7655 132.2369 279.0947 132.4045 279.4232 132.583 279.7515 132.7615 280.0949 132.9381 280.4533 133.1127 280.8117 133.2873 281.1987 133.4648 281.6143 133.6451 282.0299 133.8254 282.4393 133.9969 282.8426 134.1596 283.2459 134.3224 283.6214 134.4843 283.9692 134.6453 284.3169 134.8063 284.6438 134.9672 284.9499 135.128 285.2559 135.2889 285.685 135.5364 286.2371 135.8707 286.7892 136.205 287.4282 136.5833 288.1541 137.0058 288.88 137.4282 289.4096 137.7562 289.7428 137.9898 290.0761 138.2233 290.389 138.4573 290.6815 138.6917 290.9741 138.9261 291.2465 139.1696 291.4988 139.4222 291.7511 139.6748 291.9833 139.9283 292.1954 140.1827 292.4075 140.4371 292.6146 140.7007 292.8167 140.9734 293.0187 141.246 293.3965 141.7153 293.9501 142.381 294.5037 143.0467 294.8489 143.4766 294.9858 143.6705 295.1227 143.8645 295.3844 144.3764 295.771 145.2064 296.1576 146.0364 296.435 146.6461 296.6032 147.0355 296.7715 147.425 296.9394 147.8297 297.1068 148.2497 297.2743 148.6696 297.511 149.2076 297.8169 149.8635 298.1228 150.5195 298.3705 151.0781 298.56 151.5395 298.7496 152.0009 298.8789 152.3576 298.948 152.6096 299.0172 152.8616 299.0793 153.1328 299.1345 153.4233 299.1896 153.7139 299.2518 154.1691 299.3212 154.789 299.3906 155.4089 299.439 155.8705 299.4665 156.1739 299.4939 156.4772 299.5126 157.0194 299.5223 157.8007 299.532 158.5819 299.4959 159.2372 299.4139 159.7665 299.332 160.2958 299.2348 160.8098 299.1225 161.3083 299.0101 161.8069 298.9148 162.189 298.8365 162.4544 298.7582 162.7199 298.6669 162.9986 298.5626 163.2905 298.4584 163.5823 298.2103 164.1443 297.8184 164.9762 297.4265 165.8082 297.0489 166.6363 296.6857 167.4605 296.3226 168.2847 296.0487 168.9369 295.8643 169.4171 295.6798 169.8973 295.5379 170.2519 295.4387 170.4811 295.3395 170.7102 295.1741 171.0273 294.9426 171.4324 294.711 171.8375 294.44 172.2158 294.1297 172.5672 293.8193 172.9186 293.4682 173.3062 293.0762 173.73 292.6843 174.1538 292.4033 174.4521 292.2331 174.6248 292.0629 174.7975 291.891 174.9528 291.7172 175.0907 291.5435 175.2285 291.3605 175.3556 291.1683 175.4719 290.9761 175.5882 290.6828 175.7378 290.2885 175.9207 289.8943 176.1035 289.4835 176.3457 289.0564 176.6472 288.6293 176.9488 288.2965 177.1889 288.058 177.3676 287.8196 177.5463 287.4962 177.7791 287.0878 178.0659 286.6793 178.3527 286.3998 178.5569 286.2493 178.6785 286.0987 178.8 285.8572 179.0354 285.5247 179.3847 285.1923 179.734 284.8686 180.0258 284.5536 180.2603 284.2385 180.4947 283.9851 180.6599 283.7931 180.7558 283.6012 180.8516 283.3931 180.9405 283.169 181.0225 282.9448 181.1045 282.707 181.1797 282.4555 181.2482 282.204 181.3167 281.7549 181.4087 281.1081 181.5241 280.4614 181.6396 279.6648 181.7584 278.7184 181.8806 277.772 182.0028 276.9843 182.0974 276.3552 182.1646 275.7261 182.2317 275.0832 182.3054 274.4265 182.3857 273.7697 182.466 273.2805 182.5292 272.9589 182.5755 272.6372 182.6217 272.1549 182.7073 271.5118 182.8324 270.8688 182.9575 270.3685 183.0596 270.0108 183.1385 269.6531 183.2175 269.2785 183.2941 268.8871 183.3684 268.4956 183.4426 267.8893 183.5661 267.0679 183.7389 266.2466 183.9117 265.6314 184.0447 265.2222 184.1378 264.813 184.2309 264.4071 184.3123 264.0045 184.3819 263.6019 184.4515 263.1725 184.5109 262.7163 184.5601 262.2601 184.6092 261.7469 184.6544 261.1768 184.6955 260.6067 184.7366 259.519 184.8271 257.9137 184.9672 256.3083 185.1073 255.2441 185.1977 254.7209 185.2386 254.1977 185.2795 253.6869 185.314 253.1885 185.3422 252.6901 185.3704 251.9954 185.3891 251.1044 185.3983 250.2135 185.4074 249.514 185.4213 249.0061 185.44 248.4982 185.4588 247.9657 185.4841 247.4085 185.5161 246.8513 185.5482 246.0867 185.6039 245.1145 185.6834 244.1423 185.7629 243.3997 185.8138 242.8867 185.8358 242.3737 185.858 241.5979 185.8735 240.5595 185.8826 239.521 185.8917 238.3218 185.9093 236.9617 185.9354 235.6017 185.9616 233.6324 185.975 231.0539 185.9758 228.4754 185.9765 226.9707 185.9859 226.5399 186.004 226.109 186.0221 225.7123 186.0441 225.3497 186.0701 224.9871 186.096 224.628 186.1163 224.2722 186.1309 223.9164 186.1456 222.9929 186.1537 221.5016 186.1553 220.0103 186.157 218.7389 186.1771 217.6874 186.2158 216.6359 186.2544 215.454 186.2809 214.1418 186.2952 212.8296 186.3094 211.7632 186.3392 210.9427 186.3845 210.1223 186.4298 209.2718 186.4536 208.3913 186.4558 207.5108 186.4581 206.6559 186.4656 205.8266 186.4783 204.9974 186.491 203.7877 186.4977 202.1975 186.4984 200.6073 186.4991 199.3434 186.4962 198.4058 186.4896 197.4682 186.4829 196.4456 186.4796 195.3378 186.4795 194.2301 186.4794 193.3843 186.4854 192.8004 186.4975 192.2166 186.5096 191.6513 186.5343 191.1046 186.5717 190.5579 186.6091 189.9981 186.6537 189.4249 186.7057 188.8518 186.7577 188.2744 186.8014 187.6926 186.8367 187.1108 186.8721 186.3575 186.895 185.4327 186.9055 184.5078 186.9161 183.6146 186.9117 182.7529 186.8925 181.8913 186.8733 181.2526 186.8573 180.8371 186.8446 180.4215 186.8318 179.8831 186.8054 179.2219 186.7654 178.5607 186.7254 177.8901 186.6949 177.2101 186.674 176.5302 186.6531 176.0224 186.6423 175.6869 186.6416 175.3513 186.6408 174.9919 186.6465 174.6087 186.6584 174.2255 186.6704 173.6825 186.709 172.9796 186.7743 172.2768 186.8395 171.7492 186.8826 171.3971 186.9034 171.0449 186.9243 169.9889 186.9359 168.2291 186.9382 166.4692 186.9406 165.4353 186.9357 165.1272 186.9236 164.819 186.9116 164.0851 186.8528 162.9254 186.7472 161.7657 186.6416 160.9286 186.5651 160.4139 186.5175 159.8993 186.4699 159.3058 186.4029 158.6335 186.3165 157.9613 186.2301 157.1327 186.1432 156.1476 186.0561 155.1626 185.9689 154.3503 185.9082 153.7108 185.8739 153.0712 185.8397 152.2862 185.7828 151.3557 185.7032 150.4252 185.6236 149.4428 185.5596 148.4084 185.5112 147.3741 185.4628 146.4151 185.4186 145.5315 185.3784 144.6479 185.3383 143.893 185.3141 143.2668 185.306 142.6406 185.2978 141.6118 185.2937 140.1802 185.2936 138.7487 185.2935 137.7069 185.2998 137.055 185.3124 136.403 185.3251 135.7609 185.3318 135.1287 185.3325 134.4964 185.3333 134.0385 185.3276 133.7549 185.3156 133.4713 185.3035 133.2158 185.2848 132.9885 185.2595 132.7612 185.2341 132.2726 185.1336 131.5228 184.9579 130.7729 184.7822 130.2417 184.6606 129.9294 184.5931 129.617 184.5256 129.2764 184.4643 128.9076 184.4093 128.5388 184.3543 127.9754 184.2952 127.2174 184.2318 126.4595 184.1685 125.7159 184.1193 124.9868 184.0843 124.2576 184.0493 123.5219 184.031 122.7798 184.0295 122.0376 184.0279 121.4728 184.0241 121.0851 184.0181 120.6975 184.012 120.1755 183.9927 119.5192 183.9601 118.8629 183.9274 118.1999 183.8977 117.5302 183.8708 116.8605 183.844 116.3464 183.8088 115.988 183.7652 115.6295 183.7216 115.2696 183.6495 114.9082 183.5486 114.5468 183.4478 114.2094 183.2989 113.896 183.1018 113.5825 182.9048 113.2865 182.6216 113.008 182.2521 112.7295 181.8826 112.4739 181.4081 112.241 180.8284 112.0082 180.2487 111.8289 179.6254 111.7032 178.9583 111.5774 178.2913 111.5022 177.5807 111.4776 176.8266 111.453 176.0724 111.5268 175.2415 111.6992 174.334 111.8715 173.4264 112.1351 172.4538 112.49 171.4163 112.8448 170.3788 113.2961 169.2925 113.844 168.1576 114.3919 167.0227 115.0911 165.8618 115.9417 164.6749 116.7922 163.488 117.7242 162.3618 118.7376 161.2964 119.751 160.2309 120.9082 159.2289 122.2092 158.2901 123.5102 157.3514 124.9069 156.425 126.3994 155.511 127.8919 154.597 129.4513 153.7084 131.0775 152.8451 132.7037 151.9819 134.4119 151.1452 136.2022 150.3353 137.9925 149.5253 139.8301 148.7512 141.7151 148.0129 143.6002 147.2746 145.5141 146.5791 147.4568 145.9263 149.3996 145.2736 151.3844 144.6583 153.4113 144.0804 155.4382 143.5026 157.5477 142.9556 159.7397 142.4395 161.9318 141.9235 164.2074 141.4044 166.5667 140.8824 168.926 140.3605 171.3479 139.8653 173.8324 139.3971 176.3168 138.9288 178.8378 138.4963 181.3951 138.0997 183.9524 137.7032 186.5224 137.3765 189.105 137.1198 191.6877 136.863 194.2958 136.6585 196.9292 136.5061 199.5626 136.3538 202.2137 136.2218 204.8823 136.1101 207.551 135.9984 210.1581 135.9279 212.7037 135.8986 215.2493 135.8694 217.6922 135.9015 220.0326 135.9951 222.373 136.0886 224.6006 136.2426 226.7155 136.457 228.8303 136.6714 230.7983 136.9431 232.6194 137.2721 234.4404 137.601 236.0659 137.987 237.4959 138.43 238.9259 138.8729 240.1916 139.3608 241.2932 139.8935 242.3947 140.4263 243.2416 140.9696 243.834 141.5233 244.4264 142.0771 244.8276 142.5475 245.0376 142.9346 245.2475 143.3216 245.3359 143.6431 245.3026 143.8989 245.2694 144.1547 245.028 144.3828 244.5786 144.5832 244.1292 144.7837 243.3937 144.9452 242.3721 145.0678 241.3506 145.1903 240.1076 145.2487 238.643 145.2429 237.1784 145.237 235.5621 145.1584 233.794 145.0071 232.026 144.8557 229.9413 144.6549 227.54 144.4046 225.1387 144.1543 222.3923 143.9081 219.3008 143.666 216.2093 143.4238 212.9807 143.2876 209.6152 143.2574 206.2497 143.2272 202.7107 143.4397 198.9983 143.895 195.2859 144.3502 191.4777 145.0228 187.5739 145.9125 183.67 146.8023 179.8289 147.8766 176.0506 149.1355 172.2723 150.3943 168.654 151.7591 165.1957 153.2297 161.7374 154.7003 158.6176 156.1997 155.8363 157.7277 153.055 159.2557 150.7476 160.7293 148.9142 162.1484 147.0807 163.5676 145.8192 164.8667 145.1294 166.0459 144.4397 167.225 144.2683 168.2474 144.6153 169.1131 144.9623 169.9787 145.9278 170.7383 147.5118 171.3917 149.0957 172.0451 151.257 172.4708 153.9955 172.6688 156.7341 172.8668 159.9825 172.825 163.7407 172.5433 167.4989 172.2616 174.0922 171.4196 183.5204 170.0173 192.9486 168.615 200.1727 167.4815 205.1929 166.6169 210.2131 165.7522 215.1504 164.9058 220.0049 164.0776 224.8594 163.2494 229.5097 162.4803 233.9557 161.7703 238.4018 161.0604 242.5472 160.3865 246.3918 159.7486 250.2364 159.1108 253.6952 158.4946 256.7683 157.9002 259.8414 157.3057 262.3786 156.7677 264.3799 156.2861 266.3812 155.8046 267.8406 155.3528 268.7581 154.9307 269.6755 154.5087 270.1108 154.153 270.0639 153.8635 270.017 153.5741 269.4487 153.1978 268.3589 152.7346 267.2691 152.2715 265.7142 151.8208 263.6942 151.3825 261.6743 150.9443 259.231 150.5645 256.3645 150.2433 253.498 149.9221 250.2576 149.6579 246.6433 149.451 243.029 149.244 239.0126 149.1814 234.5941 149.2632 230.1756 149.345 225.6897 149.6433 221.1365 150.158 216.5834 150.6727 212.1199 151.3598 207.7462 152.2194 203.3724 153.0789 199.2096 154.1306 195.2577 155.3743 191.3058 156.6181 187.7487 157.9776 184.5865 159.4527 181.4243 160.9279 178.7869 162.3664 176.6742 163.7682 174.5616 165.17 173.0891 166.4596 172.2569 167.637 171.4247 168.8144 171.172 169.9052 171.4987 170.9094 171.8254 171.9136 172.7406 172.9152 174.2442 173.9141 175.7478 174.913 177.7774 175.7428 180.3331 176.4036 182.8887 177.0643 185.8045 177.4849 189.0802 177.6656 192.356 177.8462 195.9481 177.7768 199.8565 177.4571 203.7649 177.1375 207.8316 176.6632 212.0564 176.0342 216.2813 175.4053 220.4527 174.7367 224.5705 174.0286 228.6884 173.3204 232.6954 172.5722 236.5916 171.7837 240.4877 170.9953 244.2221 170.1757 247.7947 169.325 251.3673 168.4743 254.6464 167.5873 257.632 166.664 260.6176 165.7407 263.182 164.8078 265.3253 163.8652 267.4685 162.9226 269.1356 161.9519 270.3265 160.9531 271.5174 159.9543 272.2568 158.9949 272.5447 158.0749 272.8326 157.1549 272.7649 156.4288 272.3416 155.8966 271.9182 155.3643 271.1609 154.948 270.0696 154.6476 268.9784 154.3471 267.6729 154.1939 266.1531 154.188 264.6334 154.182 263.0108 154.3356 261.2854 154.6486 259.56 154.9615 257.8244 155.3658 256.0784 155.8615 254.3325 156.3571 252.7483 156.9734 251.3258 157.7104 249.9034 158.4475 248.69 159.293 247.6857 160.2472 246.6814 161.2013 246.0446 162.1753 245.7754 163.1692 245.5062 164.1632 245.557 165.0566 245.928 165.8494 246.2989 166.6423 246.9611 167.3196 247.9145 167.8813 248.8679 168.443 250.0223 168.8756 251.3775 169.179 252.7328 169.4824 254.286 169.6523 256.0371 169.6887 257.7882 169.7251 259.6797 169.5883 261.7115 169.2784 263.7434 168.9684 265.735 168.5477 267.6864 168.0162 269.6378 167.4847 271.4345 166.8757 273.0764 166.1894 274.7184 165.5031 276.1911 164.7789 277.4947 164.0167 278.7982 163.2546 279.9131 162.5339 280.8392 161.8547 281.7653 161.1755 282.4434 160.5426 282.8736 159.956 283.3038 159.3695 283.5766 158.8057 283.6919 158.2646 283.8073 157.7236 283.7713 157.2149 283.5839 156.7387 283.3965 156.2624 283.0734 155.8136 282.6146 155.3921 282.1558 154.9706 281.602 154.6121 280.9533 154.3167 280.3046 154.0213 279.6403 153.8347 278.9606 153.7569 278.2808 153.6791 277.5844 153.7479 276.8714 153.9632 276.1584 154.1786 275.4106 154.5955 274.6279 155.214 273.8453 155.8326 273.1435 156.7034 272.5227 157.8266 271.9019 158.9498 271.4972 160.1073 271.3085 161.299 271.1198 162.4907 271.209 163.3904 271.5759 163.998 271.9428 164.6057 272.4762 164.9881 273.176 165.1454 273.8758 165.3026 274.6435 165.3439 275.4791 165.2691 276.3147 165.1944 277.1721 164.9362 278.0515 164.4946 278.9308 164.0529 279.7851 163.4814 280.6146 162.7799 281.444 162.0784 282.1111 161.3368 282.616 160.5551 283.121 159.7734 283.4378 159.0088 283.5667 158.2612 283.6956 157.5137 283.679 156.7407 283.5171 155.9423 283.3552 155.1439 283.0672 154.3611 282.6531 153.5938 282.239 152.8265 281.6677 152.0759 280.9391 151.3418 280.2104 150.6078 279.3726 149.9267 278.4257 149.2985 277.4787 148.6703 276.4243 148.0896 275.2626 147.5564 274.1009 147.0232 272.8681 146.4888 271.5644 145.953 270.2606 145.4173 268.8654 144.8965 267.3786 144.3907 265.8919 143.8848 264.4352 143.4649 263.0085 143.1309 261.5818 142.7969 260.1732 142.5257 258.7826 142.3174 257.3921 142.1092 256.0094 141.9614 254.6345 141.8743 253.2597 141.7871 251.9851 141.7482 250.8107 141.7576 249.6363 141.767 248.463 141.8958 247.2906 142.1439 246.1182 142.3921 245.0242 142.7698 244.0088 143.2771 242.9933 143.7843 242.058 144.4341 241.2029 145.2266 240.3478 146.0191 239.6244 146.9795 239.0325 148.1081 238.4406 149.2366 237.9854 150.4331 237.667 151.6978 237.3486 152.9624 237.2278 154.0952 237.3044 155.096 237.3811 156.0969 237.6553 157.0273 238.1272 157.8872 238.599 158.7471 239.2203 159.5065 239.9908 160.1653 240.7614 160.8242 241.6464 161.3705 242.6458 161.8042 243.6452 162.238 244.7013 162.579 245.814 162.8274 246.9267 163.0758 248.1204 163.2064 249.3951 163.2192 250.6699 163.232 251.9105 163.0853 253.1171 162.779 254.3236 162.4727 255.5237 162.0208 256.7174 161.4234 257.9111 160.8259 258.9867 160.1264 259.944 159.325 260.9013 158.5235 261.6629 157.6997 262.2289 156.8537 262.7948 156.0077 263.1513 155.0781 263.2983 154.0648 263.5099 152.6063 262.7753 149.8905 261.0945 145.9174"/>
</g>
<g style="mix-blend-mode:multiply">
<path transform="matrix(.5454546,0,0,.5454546,0,0)" stroke-width="9.35433" stroke-linecap="round" stroke-linejoin="round" fill="none" stroke="#ff8a89" stroke-opacity=".5" d="M100.1377 194.7471C100.0231 194.7471 99.96367 194.7471 99.95935 194.7471H99.9591L100.0329 194.7449C100.085 194.7433 100.6061 194.7281 101.596 194.6992 102.586 194.6703 103.3372 194.6638 103.8495 194.6797 104.3618 194.6956 104.8791 194.7245 105.4011 194.7663 105.9232 194.808 106.4429 194.8425 106.9602 194.8697 107.4775 194.8968 108.0118 194.9204 108.5631 194.9403 109.1144 194.9603 109.6732 194.9856 110.2393 195.0163 110.8055 195.047 111.3724 195.0668 111.9401 195.0756 112.5077 195.0844 113.087 195.0864 113.6777 195.0815 114.2685 195.0767 114.9121 195.0482 115.6086 194.996 116.305 194.9438 117.0096 194.8835 117.7224 194.8151 118.4351 194.7467 119.1401 194.6746 119.8372 194.5988 120.5344 194.5231 121.271 194.4584 122.047 194.4049 122.823 194.3514 123.9384 194.2915 125.3932 194.2253 126.848 194.1591 127.9673 194.1129 128.751 194.0867 129.5347 194.0605 130.3045 194.026 131.0605 193.9832 131.8164 193.9404 132.6054 193.8881 133.4275 193.8264 134.2495 193.7647 135.0892 193.7049 135.9466 193.647 136.804 193.5891 137.6603 193.5401 138.5155 193.4998 139.3706 193.4596 140.2515 193.426 141.1582 193.399 142.0648 193.372 142.951 193.3341 143.8169 193.2855 144.6827 193.2368 145.581 193.19 146.5116 193.1449 147.4423 193.0998 148.3217 193.075 149.1497 193.0705 149.9778 193.066 150.8007 193.0923 151.6185 193.1493 152.4363 193.2062 153.288 193.2663 154.1736 193.3294 155.0593 193.3926 155.9139 193.4359 156.7375 193.4595 157.561 193.483 158.4274 193.4988 159.3366 193.5069 160.2458 193.515 161.1277 193.5252 161.9823 193.5375 162.837 193.5498 163.6745 193.5738 164.4949 193.6095 165.3154 193.6452 166.5623 193.6891 168.2356 193.7413 169.9089 193.7935 171.5805 193.8632 173.2504 193.9505 174.9203 194.0377 176.6022 194.12 178.2961 194.1972 179.9901 194.2745 181.2412 194.3352 182.0496 194.3792 182.8579 194.4232 183.7102 194.4733 184.6064 194.5294 185.5026 194.5855 186.3802 194.625 187.2392 194.6478 188.0983 194.6707 188.9957 194.6832 189.9314 194.6855 190.8672 194.6878 191.8182 194.6804 192.7846 194.6634 193.7509 194.6464 195.1925 194.637 197.1093 194.6351 199.026 194.6333 200.4765 194.6266 201.4607 194.6151 202.4449 194.6036 203.457 194.5886 204.4971 194.5702 205.5372 194.5519 206.5658 194.5303 207.5828 194.5054 208.5998 194.4806 210.1378 194.4275 212.1968 194.3461 214.2558 194.2647 215.8078 194.2105 216.8528 194.1837 217.8977 194.1568 218.929 194.122 219.9465 194.0791 220.9639 194.0362 221.9887 193.9839 223.0206 193.9221 224.0526 193.8604 225.0049 193.8092 225.8775 193.7686 226.7501 193.728 227.6292 193.6912 228.5146 193.6585 229.4 193.6257 230.2229 193.5818 230.9832 193.5268 231.7436 193.4719 232.4776 193.4072 233.1853 193.3327 233.8929 193.2583 235.0382 193.1234 236.621 192.9279 238.2039 192.7325 239.395 192.5869 240.1945 192.4911 240.994 192.3954 241.8069 192.2939 242.6333 192.1866 243.4598 192.0794 244.2157 191.9716 244.9013 191.8633 245.5869 191.7549 246.2998 191.6378 247.0402 191.5121 247.7806 191.3864 248.5294 191.2541 249.2868 191.1151 250.0441 190.9762 250.7621 190.8337 251.4408 190.6877 252.1194 190.5417 252.8372 190.3954 253.5941 190.2487 254.351 190.1019 255.1032 189.9466 255.8507 189.7826 256.5982 189.6186 257.2821 189.4594 257.9023 189.3052 258.5226 189.1509 259.1796 188.9914 259.8732 188.8266 260.5669 188.6619 261.2498 188.4908 261.9221 188.3135 262.5944 188.1362 263.2197 187.964 263.7979 187.797 264.3762 187.6299 264.9785 187.4691 265.6048 187.3145 266.2311 187.16 266.877 186.9945 267.5425 186.8182 268.2081 186.642 268.8354 186.4531 269.4245 186.2517 270.0136 186.0502 270.9236 185.7038 272.1546 185.2124 273.3856 184.7209 274.2863 184.3445 274.8565 184.0831 275.4268 183.8218 275.9845 183.5488 276.5295 183.2642 277.0746 182.9796 277.6472 182.688 278.2472 182.3896 278.8472 182.0912 279.4356 181.8064 280.0124 181.5353 280.5892 181.2642 281.1447 180.983 281.679 180.6917 282.2132 180.4004 282.7253 180.0994 283.2151 179.7888 283.7049 179.4783 284.4379 179.0437 285.4139 178.4851 286.39 177.9265 287.3247 177.3601 288.2182 176.7859 289.1117 176.2116 289.9967 175.6204 290.8732 175.0121 291.7498 174.4038 292.3951 173.94 292.8092 173.6206 293.2233 173.3013 293.6118 172.9907 293.9748 172.6888 294.3377 172.3869 294.7039 172.0715 295.0732 171.7426 295.4426 171.4137 295.7921 171.0835 296.1219 170.7519 296.4517 170.4203 296.9692 169.9078 297.6744 169.2142 298.3797 168.5206 298.8793 167.9955 299.1733 167.6388 299.4673 167.2821 299.9013 166.6988 300.4751 165.8887 301.0489 165.0786 301.4713 164.466 301.7422 164.0508 302.0131 163.6356 302.4009 163.0083 302.9056 162.1688 303.4102 161.3293 303.8022 160.698 304.0813 160.2747 304.3605 159.8514 304.6289 159.4089 304.8865 158.9473 305.1441 158.4857 305.3719 158.0164 305.5699 157.5394 305.7679 157.0625 306.0105 156.3787 306.2975 155.4882 306.5846 154.5977 306.7984 153.9377 306.9388 153.5082 307.0792 153.0788 307.2052 152.6559 307.3168 152.2396 307.4285 151.8233 307.5244 151.3818 307.6044 150.9151 307.6845 150.4484 307.7429 149.9878 307.7796 149.5333 307.8164 149.0788 307.8394 148.6422 307.8488 148.2234 307.8582 147.8046 307.8605 147.4048 307.8557 147.024 307.8509 146.6433 307.7998 146.135 307.7022 145.4992 307.6046 144.8634 307.5172 144.2519 307.4398 143.6649 307.3625 143.0778 307.3076 142.6751 307.275 142.4567 307.2425 142.2383 307.1894 141.9751 307.1158 141.6669 307.0423 141.3588 307.0022 141.1912 306.9958 141.1642 306.9893 141.1372 306.9868 141.1308 306.9882 141.1452 306.9895 141.1596 306.9981 141.2487 307.0138 141.4126 307.0295 141.5765 307.1146 142.036 307.269 142.7912 307.4235 143.5464 307.5912 144.3375 307.772 145.1647 307.9529 145.9918 308.0942 146.649 308.1961 147.1364 308.298 147.6238 308.3885 148.1044 308.4676 148.5782 308.5467 149.052 308.6045 149.5395 308.6411 150.0406 308.6777 150.5418 308.7012 151.2966 308.7115 152.3053 308.7219 153.3139 308.7156 154.0758 308.6928 154.5909 308.6699 155.1061 308.6114 155.6335 308.5172 156.1733 308.4231 156.713 308.311 157.2339 308.181 157.7359 308.051 158.2379 307.831 159.0323 307.521 160.1191 307.2109 161.206 306.918 162.2465 306.6422 163.2407 306.3663 164.2349 306.1496 164.9838 305.9921 165.4874 305.8345 165.9909 305.6819 166.4603 305.5341 166.8954 305.3862 167.3306 305.2418 167.7768 305.1006 168.2339 304.9595 168.691 304.8101 169.1463 304.6525 169.5998 304.4948 170.0533 304.3306 170.4952 304.1598 170.9254 303.989 171.3556 303.8089 171.7788 303.6196 172.1952 303.4302 172.6116 303.2342 173.01 303.0316 173.3906 302.8289 173.7711 302.6255 174.1355 302.4215 174.4837 302.2175 174.8319 302.0019 175.1699 301.7748 175.4977 301.5477 175.8254 301.2965 176.1464 301.0211 176.4607 300.7457 176.7749 300.4565 177.077 300.1533 177.3669 299.8502 177.6567 299.5427 177.9426 299.2311 178.2243 298.9194 178.506 298.4447 178.889 297.8069 179.3731 297.1691 179.8573 296.5261 180.3261 295.8777 180.7796 295.2294 181.233 294.5078 181.6832 293.7129 182.13 292.918 182.5768 292.0452 183.0238 291.0944 183.4712 290.1436 183.9185 289.412 184.2538 288.8997 184.4772 288.3873 184.7006 287.8299 184.9269 287.2274 185.156 286.6249 185.3851 286.0007 185.603 285.3548 185.8097 284.7088 186.0165 283.7865 186.3213 282.5877 186.7243 281.3889 187.1273 280.4985 187.4134 279.9165 187.5826 279.3346 187.7517 278.736 187.9166 278.1208 188.0771 277.5056 188.2376 276.9146 188.3862 276.3478 188.5229 275.781 188.6596 275.2195 188.7893 274.6632 188.9121 274.107 189.0349 273.5168 189.1599 272.8927 189.287 272.2686 189.4142 271.6641 189.5445 271.0792 189.6778 270.4943 189.8111 269.9457 189.9419 269.4336 190.0701 268.9215 190.1983 268.3872 190.3263 267.8307 190.454 267.2742 190.5817 266.6781 190.7094 266.0425 190.837 265.4069 190.9647 264.8047 191.0923 264.2358 191.22 263.667 191.3476 262.7288 191.575 261.4214 191.902 260.1139 192.2291 259.1329 192.4759 258.4785 192.6423 257.824 192.8087 256.8079 193.0786 255.4302 193.4518 254.0524 193.8251 253.0378 194.1307 252.3864 194.3685 251.4324 194.7168 250.1932 195.3019 248.6689 196.1237"/>
</g>
<text fill-opacity="0" xml:space="preserve" transform="matrix(.5783612 0 0 .5538988 30.14173 55.138597)" font-size="86.23489" font-family="AAAAAS+.SFUI-Regular_wdth_opsz5"><tspan y="82.10841" x="0 53.09483 114.03703 168.85657 188.23355">AGAIN</tspan></text>
</g>
</svg>
